<svg width="1em" height="1em" viewBox="0 0 24 24" fill="none" xmlns="http://www.w3.org/2000/svg">
<path d="M12 11.4963C11.8936 11.2963 7.45492 3 3.50417 3C1.33647 3 2.00456 8 2.50443 10.5C2.70653 11.5108 3.50417 14.5 8.003 14C8.003 14 4.00404 14.5 4.00404 17C4.00404 18.5 6.50339 21 8.50287 21C10.4606 21 11.9391 16.6859 12 16.5058C12.0609 16.6859 13.5394 21 15.4971 21C17.4966 21 19.996 18.5 19.996 17C19.996 14.5 15.997 14 15.997 14C20.4958 14.5 21.2935 11.5108 21.4956 10.5C21.9954 8 22.6635 3 20.4958 3C16.5451 3 12.1064 11.2963 12 11.4963Z" fill="#2400fd"/>
</svg>
