<svg width="1440" height="650" viewBox="0 0 1440 650" fill="none" xmlns="http://www.w3.org/2000/svg">
<g opacity="0.24">
<mask id="path-1-inside-1_101_2932" fill="white">
<path fill-rule="evenodd" clip-rule="evenodd" d="M1549 -807V-409.146L490.697 649.157L-203 -44.5414L-203 -442.395L490.697 251.303L1549 -807Z"/>
</mask>
<path d="M1549 -807H1556V-823.899L1544.05 -811.95L1549 -807ZM1549 -409.146L1553.95 -404.196L1556 -406.246V-409.146H1549ZM490.697 649.157L485.748 654.107L490.697 659.056L495.647 654.107L490.697 649.157ZM-203 -44.5414H-210L-210 -41.642L-207.95 -39.5917L-203 -44.5414ZM-203 -442.395L-198.05 -447.345L-210 -459.295L-210 -442.395H-203ZM490.697 251.303L485.748 256.253L490.697 261.203L495.647 256.253L490.697 251.303ZM1542 -807V-409.146H1556V-807H1542ZM1544.05 -414.096L485.748 644.207L495.647 654.107L1553.95 -404.196L1544.05 -414.096ZM495.647 644.207L-198.05 -49.4912L-207.95 -39.5917L485.748 654.107L495.647 644.207ZM-196 -44.5414L-196 -442.395H-210L-210 -44.5414H-196ZM-207.95 -437.446L485.748 256.253L495.647 246.353L-198.05 -447.345L-207.95 -437.446ZM495.647 256.253L1553.95 -802.05L1544.05 -811.95L485.748 246.353L495.647 256.253Z" fill="#2400FD" mask="url(#path-1-inside-1_101_2932)"/>
</g>
</svg>
