<?xml version="1.0" encoding="UTF-8" standalone="no"?>
<svg
   width="396"
   height="611"
   viewBox="0 0 396 611"
   fill="none"
   version="1.1"
   id="svg255"
   sodipodi:docname="background-woman-left.svg"
   inkscape:version="1.1.1 (3bf5ae0d25, 2021-09-20)"
   xmlns:inkscape="http://www.inkscape.org/namespaces/inkscape"
   xmlns:sodipodi="http://sodipodi.sourceforge.net/DTD/sodipodi-0.dtd"
   xmlns="http://www.w3.org/2000/svg"
   xmlns:svg="http://www.w3.org/2000/svg">
  <sodipodi:namedview
     id="namedview257"
     pagecolor="#ffffff"
     bordercolor="#666666"
     borderopacity="1.0"
     inkscape:pageshadow="2"
     inkscape:pageopacity="0.0"
     inkscape:pagecheckerboard="0"
     showgrid="false"
     inkscape:zoom="0.81342062"
     inkscape:cx="144.45171"
     inkscape:cy="305.5"
     inkscape:window-width="1366"
     inkscape:window-height="705"
     inkscape:window-x="-8"
     inkscape:window-y="-8"
     inkscape:window-maximized="1"
     inkscape:current-layer="svg255" />
  <g
     clip-path="url(#clip0_285_8605)"
     id="g248"
     transform="translate(100.80885,-6.1468813)">
    <path
       d="M 107.149,363.653 139.096,552.5 H 79.098 L 71.6523,363.653"
       fill="#ff3e37"
       id="path134" />
    <path
       d="M 107.149,363.653 139.096,552.5 H 79.098 L 71.6523,363.653"
       stroke="#000000"
       stroke-width="1.7"
       stroke-miterlimit="10"
       stroke-linecap="round"
       stroke-linejoin="round"
       id="path136" />
    <path
       d="m 192.947,585.433 c -4.588,-3.12 -9.956,-4.68 -15.237,-6.5 -14.978,-5.2 -28.571,-14.473 -38.787,-26.606 L 79.0117,552.24 v 41.427 c 0,0.26 0,0.606 0,0.866 0,8.84 7.1859,16.034 16.0168,16.034 5.8875,0 10.6485,-3.814 14.0255,-7.8 2.684,-2.6 7.099,-2.427 10.562,-0.867 3.463,1.473 6.321,4.073 9.61,5.807 3.983,2.166 7.36,2.86 13.074,2.86 h 45.28 c 10.995,0 17.055,-13.087 9.696,-21.32 -1.299,-1.387 -2.684,-2.687 -4.329,-3.814 z"
       fill="#d3d715"
       stroke="#000000"
       stroke-width="1.7"
       stroke-miterlimit="10"
       stroke-linecap="round"
       stroke-linejoin="round"
       id="path138" />
    <path
       d="m 138.923,552.327 h -6.147 l -13.939,18.546 c -1.731,2.34 -1.298,5.72 1.039,7.454 0.953,0.693 2.078,1.04 3.204,1.04 1.645,0 3.203,-0.694 4.242,-2.167 l 15.497,-20.627 c -1.385,-1.3 -2.684,-2.773 -3.896,-4.246 z"
       stroke="#000000"
       stroke-width="1.7"
       stroke-miterlimit="10"
       stroke-linecap="round"
       stroke-linejoin="round"
       id="path140" />
    <path
       d="m 142.386,575.033 8.398,-11.093 c -2.77,-2.253 -5.367,-4.68 -7.878,-7.193 l -9.004,11.96 c -1.732,2.34 -1.299,5.72 1.039,7.453 0.952,0.693 2.078,1.04 3.203,1.04 1.559,0 3.204,-0.78 4.242,-2.167 z"
       stroke="#000000"
       stroke-width="1.7"
       stroke-miterlimit="10"
       stroke-linecap="round"
       stroke-linejoin="round"
       id="path142" />
    <path
       d="m 149.226,574.86 c 0.952,0.693 2.078,1.04 3.203,1.04 1.645,0 3.203,-0.693 4.242,-2.167 l 2.684,-3.64 c -3.03,-1.906 -5.887,-3.986 -8.657,-6.24 l -2.598,3.467 c -1.731,2.427 -1.212,5.72 1.126,7.54 z"
       stroke="#000000"
       stroke-width="1.7"
       stroke-miterlimit="10"
       stroke-linecap="round"
       stroke-linejoin="round"
       id="path144" />
    <path
       d="m 200.133,594.707 c -3.636,2.34 -7.965,3.64 -12.553,3.64 h -45.28 -0.606 c -7.186,0 -12.034,-1.127 -17.489,-4.074 -1.905,-1.04 -3.463,-2.08 -4.935,-3.12 l -0.086,-0.086 c -9.091,-6.24 -19.8265,-9.534 -30.9084,-9.534 h -8.2248"
       stroke="#000000"
       stroke-width="1.7"
       stroke-miterlimit="10"
       stroke-linecap="round"
       stroke-linejoin="round"
       id="path146" />
    <path
       d="m 96.5003,552.24 c 0.3463,1.3 0.5195,2.687 0.5195,4.073 0,9.36 -7.6188,16.987 -16.9692,16.987 -0.3463,0 -0.6926,0 -1.0389,0"
       stroke="#000000"
       stroke-width="1.7"
       stroke-miterlimit="10"
       stroke-linecap="round"
       stroke-linejoin="round"
       id="path148" />
    <path
       d="m 80.4834,592.28 c 2.6839,0.087 5.2812,-0.78 7.7919,-1.56 3.0303,-0.953 6.4068,-1.647 9.6101,-1.04 3.2036,0.607 6.1466,3.207 5.6276,5.893 -0.26,1.387 -1.472,2.6 -2.944,3.38 -1.4715,0.78 -3.203,1.04 -4.9346,1.214 -3.2899,0.346 -6.6664,0 -9.8698,-0.78 -1.645,-0.434 -3.4631,-1.04 -4.9349,-0.434"
       stroke="#000000"
       stroke-width="1.7"
       stroke-miterlimit="10"
       stroke-linecap="round"
       stroke-linejoin="round"
       id="path150" />
    <path
       d="m 179.009,579.367 c -8.485,6.066 -25.541,15.686 -35.41,18.893"
       stroke="#000000"
       stroke-width="1.7"
       stroke-miterlimit="10"
       stroke-linecap="round"
       stroke-linejoin="round"
       id="path152" />
    <path
       d="M 130.525,502.06 H 77.1064 l 1.9913,50.44 h 59.9983 z"
       fill="#ffffff"
       stroke="#000000"
       stroke-width="1.7"
       stroke-miterlimit="10"
       stroke-linecap="round"
       stroke-linejoin="round"
       id="path154" />
    <path
       d="m 88.9678,512.373 1.212,29.814"
       stroke="#c3bfd8"
       stroke-width="1.7"
       stroke-miterlimit="10"
       stroke-linecap="round"
       stroke-linejoin="round"
       id="path156" />
    <path
       d="m 119.703,512.373 5.022,29.814"
       stroke="#c3bfd8"
       stroke-width="1.7"
       stroke-miterlimit="10"
       stroke-linecap="round"
       stroke-linejoin="round"
       id="path158" />
    <path
       d="m 107.669,542.187 -3.03,-29.814"
       stroke="#c3bfd8"
       stroke-width="1.7"
       stroke-miterlimit="10"
       stroke-linecap="round"
       stroke-linejoin="round"
       id="path160" />
    <path
       d="M 18.3213,363.653 -13.5391,552.5 H 46.3723 L 53.818,363.653"
       fill="#ff3e37"
       id="path162" />
    <path
       d="M 18.3213,363.653 -13.5391,552.5 H 46.3723 L 53.818,363.653"
       stroke="#000000"
       stroke-width="1.7"
       stroke-miterlimit="10"
       stroke-linecap="round"
       stroke-linejoin="round"
       id="path164" />
    <path
       d="m -67.4766,585.433 c 4.5886,-3.12 9.9563,-4.68 15.2376,-6.5 14.9778,-5.2 28.5704,-14.473 38.7865,-26.606 l 59.9114,-0.087 v 41.427 c 0,0.26 0,0.606 0,0.866 0,8.84 -7.1859,16.034 -16.0167,16.034 -5.8873,0 -10.649,-3.814 -14.0256,-7.8 -2.6838,-2.6 -7.09927,-2.427 -10.56236,-0.867 -3.46309,1.473 -6.320144,4.073 -9.61008,5.807 -3.98254,2.166 -7.35906,2.86 -13.07316,2.86 h -45.1933 c -10.9953,0 -17.0557,-13.087 -9.6966,-21.32 1.2121,-1.387 2.6839,-2.687 4.2423,-3.814 z"
       fill="#d3d715"
       stroke="#000000"
       stroke-width="1.7"
       stroke-miterlimit="10"
       stroke-linecap="round"
       stroke-linejoin="round"
       id="path166" />
    <path
       d="m -13.3657,552.327 h 6.14693 l 13.93894,18.546 c 1.73154,2.34 1.29865,5.72 -1.03893,7.454 -0.95235,0.693 -2.07785,1.04 -3.20336,1.04 -1.644962,0 -3.203353,-0.694 -4.24228,-2.167 l -15.4973,-20.627 c 1.2986,-1.3 2.5973,-2.773 3.896,-4.246 z"
       stroke="#000000"
       stroke-width="1.7"
       stroke-miterlimit="10"
       stroke-linecap="round"
       stroke-linejoin="round"
       id="path168" />
    <path
       d="m -74.5762,594.707 c 3.6363,2.34 7.9651,3.64 12.5537,3.64 h 45.2799 0.606 c 7.18592,0 12.03424,-1.127 17.4886,-4.074 1.9047,-1.04 3.4631,-2.08 4.93491,-3.12 l 0.08657,-0.086 c 9.09062,-6.24 19.82622,-9.534 30.90802,-9.534 h 8.2249"
       stroke="#000000"
       stroke-width="1.7"
       stroke-miterlimit="10"
       stroke-linecap="round"
       stroke-linejoin="round"
       id="path170" />
    <path
       d="m 28.9706,552.24 c -0.3463,1.3 -0.5194,2.687 -0.5194,4.073 0,9.36 7.6188,16.987 16.9691,16.987 0.3463,0 0.6926,0 1.0389,0"
       stroke="#000000"
       stroke-width="1.7"
       stroke-miterlimit="10"
       stroke-linecap="round"
       stroke-linejoin="round"
       id="path172" />
    <path
       d="m 44.9869,592.28 c -2.6839,0.087 -5.2812,-0.78 -7.792,-1.56 -3.0302,-0.953 -6.4067,-1.647 -9.6101,-1.04 -3.2033,0.607 -6.1469,3.207 -5.6275,5.893 0.2598,1.387 1.4718,2.6 2.9437,3.38 1.4718,0.78 3.2033,1.04 4.9349,1.214 3.2899,0.346 6.6664,0 9.8698,-0.78 1.6449,-0.434 3.4631,-1.04 4.9349,-0.434"
       stroke="#000000"
       stroke-width="1.7"
       stroke-miterlimit="10"
       stroke-linecap="round"
       stroke-linejoin="round"
       id="path174" />
    <path
       d="M -5.0545,502.06 H 48.3636 L 46.3723,552.5 H -13.5391 Z"
       fill="#ffffff"
       stroke="#000000"
       stroke-width="1.7"
       stroke-miterlimit="10"
       stroke-linecap="round"
       stroke-linejoin="round"
       id="path176" />
    <path
       d="M 36.5025,512.373 35.377,542.187"
       stroke="#c3bfd8"
       stroke-width="1.7"
       stroke-miterlimit="10"
       stroke-linecap="round"
       stroke-linejoin="round"
       id="path178" />
    <path
       d="M 5.85448,512.373 0.833008,542.187"
       stroke="#c3bfd8"
       stroke-width="1.7"
       stroke-miterlimit="10"
       stroke-linecap="round"
       stroke-linejoin="round"
       id="path180" />
    <path
       d="m 17.8887,542.187 2.9436,-29.814"
       stroke="#c3bfd8"
       stroke-width="1.7"
       stroke-miterlimit="10"
       stroke-linecap="round"
       stroke-linejoin="round"
       id="path182" />
    <path
       d="m 238.977,116.938 c 15.162,-10.45 13.78,-38.7992 -3.086,-63.3193 -16.866,-24.52 -42.83,-35.9257 -57.991,-25.4753 -15.162,10.4505 -13.78,38.7997 3.086,63.3198 16.866,24.5198 42.83,35.9258 57.991,25.4748 z"
       fill="#000000"
       id="path184" />
    <path
       d="m 171.739,124.576 -10.767,7.421 19.835,28.837 10.767,-7.421 z"
       fill="#000000"
       stroke="#000000"
       stroke-width="1.7"
       stroke-miterlimit="9.9996"
       stroke-linecap="round"
       stroke-linejoin="round"
       id="path186" />
    <path
       d="m 208.878,73.1466 c -7.705,-11.2667 -23.116,-14.1267 -34.371,-6.3267 -1.905,1.3 -3.549,2.86 -4.935,4.5067 2.251,7.1933 5.801,14.56 10.649,21.58 4.849,7.02 10.476,13.0004 16.363,17.6804 2.078,-0.694 4.069,-1.734 5.974,-3.034 11.255,-7.7998 14.026,-23.1398 6.32,-34.4064 z"
       fill="#ffffff"
       stroke="#000000"
       stroke-width="1.7"
       stroke-miterlimit="10"
       stroke-linecap="round"
       stroke-linejoin="round"
       id="path188" />
    <path
       d="M 182.299,91.4332 C 169.226,72.3666 164.637,49.9199 170.784,36.3999 l -24.415,53.6467 -24.068,16.5534 24.328,35.447 24.674,-17.074 55.756,-4.766 c -14.198,-0.434 -32.38,-10.92 -44.76,-28.7738 z"
       fill="#ffffff"
       stroke="#000000"
       stroke-width="1.7"
       stroke-miterlimit="10"
       stroke-linecap="round"
       stroke-linejoin="round"
       id="path190" />
    <path
       d="M 182.299,91.4332 C 169.226,72.3665 165.07,49.1399 171.217,35.6199 l -24.761,54.4266 -24.069,16.5535 3.29,4.767 c -0.519,0.26 -1.039,0.606 -1.558,0.953 -7.186,4.94 -9.004,14.733 -4.069,21.927 4.935,7.193 14.718,9.013 21.904,4.073 0.519,-0.347 1.039,-0.78 1.472,-1.127 l 3.376,4.854 24.675,-17.074 55.755,-4.766 c -14.371,-0.434 -32.553,-10.92 -44.933,-28.7738 z"
       fill="#d3d715"
       stroke="#000000"
       stroke-width="1.7"
       stroke-miterlimit="10"
       stroke-linecap="round"
       stroke-linejoin="round"
       id="path192" />
    <path
       d="m 207.233,192.92 v 0.173 l -21.039,-65.606 -31.773,13.26 -3.55,-11.094 c -1.212,-3.726 -5.195,-5.806 -8.917,-4.593 -3.723,1.213 -5.801,5.2 -4.589,8.927 l 3.896,12.22 h -0.087 l 9.437,30.593 -32.899,14.82 10.909,58.5 49.175,-19.76 c 15.151,-5.98 31.168,-11.18 30.909,-27.993 0.086,-3.38 -0.52,-6.5 -1.472,-9.447 z"
       fill="#ff3e37"
       stroke="#000000"
       stroke-width="1.7"
       stroke-miterlimit="10"
       stroke-linecap="round"
       stroke-linejoin="round"
       id="path194" />
    <path
       d="m 179.269,169 c -3.377,1.82 -7.619,0.52 -9.437,-2.86 l -14.892,-31.98 12.381,-6.587 14.805,31.98 c 1.818,3.38 0.519,7.627 -2.857,9.447 z"
       fill="#d3d715"
       stroke="#000000"
       stroke-width="1.7"
       stroke-miterlimit="10"
       stroke-linecap="round"
       stroke-linejoin="round"
       id="path196" />
    <path
       d="M 161.953,144.733 193.554,130 c 3.376,-1.56 4.762,-5.547 3.203,-8.927 l -0.346,-0.78 c -1.558,-3.38 -5.541,-4.766 -8.918,-3.206 l -31.6,14.733 c -3.377,1.56 -4.762,5.547 -3.204,8.927 l 0.347,0.78 c 1.645,3.38 5.627,4.766 8.917,3.206 z"
       fill="#ff3e37"
       stroke="#000000"
       stroke-width="1.7"
       stroke-miterlimit="10"
       stroke-linecap="round"
       stroke-linejoin="round"
       id="path198" />
    <path
       d="m 175.892,153.833 24.675,-11.526 c 3.55,-1.647 5.108,-5.894 3.463,-9.447 -1.645,-3.553 -5.887,-5.113 -9.437,-3.467 l -24.674,11.527 c -3.55,1.647 -5.108,5.893 -3.463,9.447 1.731,3.553 5.887,5.113 9.436,3.466 z"
       fill="#ff3e37"
       stroke="#000000"
       stroke-width="1.7"
       stroke-miterlimit="10"
       stroke-linecap="round"
       stroke-linejoin="round"
       id="path200" />
    <path
       d="m 188.706,164.233 19.74,-9.706 c 3.549,-1.647 5.108,-5.894 3.463,-9.447 -1.645,-3.553 -5.888,-5.113 -9.437,-3.467 l -19.74,9.707 c -3.55,1.647 -5.108,5.893 -3.463,9.447 1.732,3.553 5.887,5.113 9.437,3.466 z"
       fill="#ff3e37"
       stroke="#000000"
       stroke-width="1.7"
       stroke-miterlimit="10"
       stroke-linecap="round"
       stroke-linejoin="round"
       id="path202" />
    <path
       d="m 130.179,185.207 -15.065,6.24 c -5.974,2.426 -12.38,3.726 -18.7872,3.726 H 57.8 57.3671 18.8403 12.0872 -4.01611 l -11.16849,0.087 v 58.587 h 11.16849 v 83.46 h 61.46981 0.4329 63.6344 l -0.606,-83.027 22.337,-10.487 z"
       fill="#3a9918"
       stroke="#000000"
       stroke-width="1.7"
       stroke-miterlimit="10"
       stroke-linecap="round"
       stroke-linejoin="round"
       id="path204" />
    <path
       d="M 28.0176,195.173 61.8693,234.78 95.721,195.173 Z"
       fill="#ff3e37"
       stroke="#000000"
       stroke-width="1.7"
       stroke-miterlimit="10"
       stroke-linecap="round"
       stroke-linejoin="round"
       id="path206" />
    <path
       d="m -31.8065,456.387 c 23.28922,0 23.28922,9.36 46.4919,9.36 23.2893,0 23.2893,-9.36 46.4919,-9.36 23.2893,0 23.2893,9.36 46.4917,9.36 23.29,0 23.29,-9.36 46.492,-9.36 L 155.546,456.3 121.089,337.22 H 0.919628 L -33.5381,456.3 Z"
       fill="#ffffff"
       stroke="#000000"
       stroke-width="1.7"
       stroke-miterlimit="10"
       stroke-linecap="round"
       stroke-linejoin="round"
       id="path208" />
    <path
       d="m -31.8065,456.387 c 23.28922,0 23.28922,9.36 46.4919,9.36 23.2893,0 23.2893,-9.36 46.4919,-9.36 23.2893,0 23.2893,9.36 46.4917,9.36 23.29,0 23.29,-9.36 46.492,-9.36 L 155.546,456.3 121.089,337.22 H 0.919629 L -33.5381,456.3 Z"
       stroke="#000000"
       stroke-width="1.7"
       stroke-miterlimit="10"
       stroke-linecap="round"
       stroke-linejoin="round"
       id="path210" />
    <path
       d="m 24.6414,331.153 c 2.5973,-1.04 4.4154,-3.553 4.4154,-6.5 0,-3.9 -3.1168,-7.02 -7.0127,-7.02 H 20.1394 7.58568 -3.92909 V 304.72 H -13.366 c 0,0 -6.147,0.087 -6.9262,0.087 -13.9389,0 -25.1939,-11.267 -25.1939,-25.22 0,-13.954 10.649,-24.094 25.1939,-25.22 6.9262,-0.52 6.9262,-0.52 6.9262,-0.52 V 195.26 c -0.8658,0 -1.8181,0 -2.6839,-0.087 -47.704,-1.82 -80.0839,35.88 -80.0839,80.167 0,44.287 35.843,80.167 80.0839,80.167 0.8658,0 1.8181,0 2.6839,-0.087 v 0.087 H 7.4991 13.04 c 3.896,0 7.0128,-3.467 7.0128,-7.28 0,-1.3 -0.3463,-2.514 -1.0389,-3.554 h 2.9436 c 3.896,0 7.0127,-3.12 7.0127,-7.02 0.0866,-2.946 -1.7315,-5.46 -4.3288,-6.5 z"
       fill="#ff3e37"
       stroke="#000000"
       stroke-width="1.7"
       stroke-miterlimit="10"
       stroke-linecap="round"
       stroke-linejoin="round"
       id="path212" />
    <path
       d="M 24.6413,331.153 H 5.24805"
       stroke="#000000"
       stroke-width="1.7"
       stroke-miterlimit="10"
       stroke-linecap="round"
       stroke-linejoin="round"
       id="path214" />
    <path
       d="M 20.0531,344.673 H 0.573242"
       stroke="#000000"
       stroke-width="1.7"
       stroke-miterlimit="10"
       stroke-linecap="round"
       stroke-linejoin="round"
       id="path216" />
    <path
       d="m 81.6962,169.433 -4.3289,1.994 c -1.8181,0.866 -3.9825,0.086 -4.8483,-1.734 l -0.1731,-0.433 c -0.8658,-1.82 -0.0866,-3.987 1.7315,-4.853 l 4.3289,-1.994 c 1.8181,-0.866 3.9825,-0.086 4.8483,1.734 l 0.1731,0.433 c 0.8658,1.82 0.0866,4.073 -1.7315,4.853 z"
       fill="#ff3e37"
       stroke="#000000"
       stroke-width="1.7"
       stroke-miterlimit="10"
       stroke-linecap="round"
       stroke-linejoin="round"
       id="path218" />
    <path
       d="m 82.9947,176.54 -9.0906,-19.673 c -1.9913,-4.247 -7.0127,-6.067 -11.255,-4.074 l -13.7658,6.414 c -4.2423,1.993 -6.0604,7.02 -4.0691,11.18 l 9.1772,19.673 c 1.6449,3.553 6.8396,5.113 6.8396,5.113 H 77.2806 V 188.5 l 1.645,-0.78 c 4.2423,-1.907 6.0604,-6.933 4.0691,-11.18 z"
       fill="#ff3e37"
       stroke="#000000"
       stroke-width="1.7"
       stroke-miterlimit="10"
       stroke-linecap="round"
       stroke-linejoin="round"
       id="path220" />
    <path
       d="m 65.8522,147.593 c -2.1644,-4.68 -7.7919,-6.673 -12.5537,-4.42 -4.7617,2.254 -6.8396,7.8 -4.6752,12.48 0.3463,0.867 0.8658,1.56 1.4718,2.254 l -2.0778,0.953 c -4.1557,-0.607 -8.4846,-0.087 -12.5537,1.82 -11.0819,5.2 -15.9302,18.373 -10.7356,29.553 5.1947,11.18 18.3544,15.947 29.5229,10.747 11.0818,-5.2 15.9302,-18.373 10.7355,-29.553 -1.3852,-2.86 -3.2899,-5.374 -5.5409,-7.367 2.857,-2.513 5.0215,-5.373 6.2335,-8.32 0.7792,-1.473 1.1256,-3.207 1.039,-4.853 0,-0.087 0,-0.174 0,-0.26 -0.0866,-1.04 -0.3463,-2.08 -0.8658,-3.034 z"
       fill="#000000"
       stroke="#000000"
       stroke-width="1.7"
       stroke-miterlimit="10"
       stroke-linecap="round"
       stroke-linejoin="round"
       id="path222" />
    <path
       d="m 76.2411,161.893 c -1.0389,-1.213 -2.857,-1.646 -4.3289,-0.953 -1.5584,0.693 -2.3376,2.34 -2.0778,3.987"
       stroke="#000000"
       stroke-width="1.7"
       stroke-miterlimit="10"
       stroke-linecap="round"
       stroke-linejoin="round"
       id="path224" />
    <path
       d="m 80.6572,176.713 c 0.6926,0 1.2987,-0.26 1.7316,-0.693 -0.0866,-0.26 -0.1732,-0.52 -0.2598,-0.693 l -1.7315,-3.64 c -1.2987,0.173 -2.251,1.213 -2.251,2.513 0,1.387 1.1255,2.513 2.5107,2.513 z"
       fill="#000000"
       stroke="#000000"
       stroke-width="1.7"
       stroke-miterlimit="10"
       stroke-linecap="round"
       stroke-linejoin="round"
       id="path226" />
    <path
       d="m 85.2451,149.5 13.939,-28.253"
       stroke="#000000"
       stroke-width="1.7"
       stroke-miterlimit="10"
       stroke-linecap="round"
       stroke-linejoin="round"
       id="path228" />
    <path
       d="M 97.1064,176.107 135.547,170.56"
       stroke="#000000"
       stroke-width="1.7"
       stroke-miterlimit="10"
       stroke-linecap="round"
       stroke-linejoin="round"
       id="path230" />
    <path
       d="M 92.2578,163.453 116.326,146.12"
       stroke="#000000"
       stroke-width="1.7"
       stroke-miterlimit="10"
       stroke-linecap="round"
       stroke-linejoin="round"
       id="path232" />
    <path
       d="m 75.1155,141.007 -0.6926,-12.22"
       stroke="#000000"
       stroke-width="1.7"
       stroke-miterlimit="10"
       stroke-linecap="round"
       stroke-linejoin="round"
       id="path234" />
    <path
       d="M 237.621,38.5666 251.56,10.3132"
       stroke="#000000"
       stroke-width="1.7"
       stroke-miterlimit="10"
       stroke-linecap="round"
       stroke-linejoin="round"
       id="path236" />
    <path
       d="m 249.482,65.1734 38.441,-5.5467"
       stroke="#000000"
       stroke-width="1.7"
       stroke-miterlimit="10"
       stroke-linecap="round"
       stroke-linejoin="round"
       id="path238" />
    <path
       d="M 244.634,52.5201 268.702,35.1868"
       stroke="#000000"
       stroke-width="1.7"
       stroke-miterlimit="10"
       stroke-linecap="round"
       stroke-linejoin="round"
       id="path240" />
    <path
       d="m 227.491,30.0733 -0.692,-12.22"
       stroke="#000000"
       stroke-width="1.7"
       stroke-miterlimit="10"
       stroke-linecap="round"
       stroke-linejoin="round"
       id="path242" />
    <path
       d="M 95.7212,195.173 H 77.2803 l 9.9564,9.967 z"
       fill="#000000"
       stroke="#000000"
       stroke-width="1.7"
       stroke-miterlimit="10"
       stroke-linecap="round"
       stroke-linejoin="round"
       id="path244" />
    <path
       opacity="0.16"
       d="m 17.7155,246.827 h 32.8127 v 17.68 c 0,9.1 -7.359,16.466 -16.4496,16.466 -9.0906,0 -16.4497,-7.366 -16.4497,-16.466 z"
       stroke="#000000"
       stroke-width="1.7"
       stroke-miterlimit="10"
       stroke-linecap="round"
       stroke-linejoin="round"
       id="path246" />
  </g>
  <defs
     id="defs253">
    <clipPath
       id="clip0_285_8605">
      <rect
         width="387"
         height="611"
         fill="#ffffff"
         transform="translate(-97)"
         id="rect250"
         x="0"
         y="0" />
    </clipPath>
  </defs>
</svg>
