<svg width="18" height="12" viewBox="0 0 18 12" fill="none" xmlns="http://www.w3.org/2000/svg">
<path fill-rule="evenodd" clip-rule="evenodd" d="M16.3994 0.666626H15.3994C14.8471 0.666626 14.3994 1.11434 14.3994 1.66663V10.3333C14.3994 10.8856 14.8471 11.3333 15.3994 11.3333H16.3994C16.9516 11.3333 17.3994 10.8856 17.3994 10.3333V1.66663C17.3994 1.11434 16.9516 0.666626 16.3994 0.666626ZM10.7326 2.99993H11.7326C12.2849 2.99993 12.7326 3.44764 12.7326 3.99993V10.3333C12.7326 10.8855 12.2849 11.3333 11.7326 11.3333H10.7326C10.1803 11.3333 9.73263 10.8855 9.73263 10.3333V3.99993C9.73263 3.44764 10.1803 2.99993 10.7326 2.99993ZM7.06614 5.33342H6.06614C5.51386 5.33342 5.06614 5.78113 5.06614 6.33342V10.3334C5.06614 10.8857 5.51386 11.3334 6.06614 11.3334H7.06614C7.61843 11.3334 8.06614 10.8857 8.06614 10.3334V6.33342C8.06614 5.78113 7.61843 5.33342 7.06614 5.33342ZM2.39941 7.33342H1.39941C0.847129 7.33342 0.399414 7.78114 0.399414 8.33342V10.3334C0.399414 10.8857 0.847129 11.3334 1.39941 11.3334H2.39941C2.9517 11.3334 3.39941 10.8857 3.39941 10.3334V8.33342C3.39941 7.78114 2.9517 7.33342 2.39941 7.33342Z" fill="white"/>
</svg>
