<svg width="18" height="12" viewBox="0 0 18 12" fill="none" xmlns="http://www.w3.org/2000/svg">
<path fill-rule="evenodd" clip-rule="evenodd" d="M16.3993 0.666602H15.3993C14.847 0.666602 14.3993 1.11432 14.3993 1.6666V10.3333C14.3993 10.8856 14.847 11.3333 15.3993 11.3333H16.3993C16.9516 11.3333 17.3993 10.8856 17.3993 10.3333V1.6666C17.3993 1.11432 16.9516 0.666602 16.3993 0.666602ZM10.7326 2.99991H11.7326C12.2849 2.99991 12.7326 3.44762 12.7326 3.99991V10.3332C12.7326 10.8855 12.2849 11.3332 11.7326 11.3332H10.7326C10.1803 11.3332 9.73259 10.8855 9.73259 10.3332V3.99991C9.73259 3.44762 10.1803 2.99991 10.7326 2.99991ZM7.06611 5.33339H6.06611C5.51383 5.33339 5.06611 5.78111 5.06611 6.33339V10.3334C5.06611 10.8857 5.51383 11.3334 6.06611 11.3334H7.06611C7.6184 11.3334 8.06611 10.8857 8.06611 10.3334V6.33339C8.06611 5.78111 7.6184 5.33339 7.06611 5.33339ZM2.39938 7.3334H1.39938C0.847098 7.3334 0.399383 7.78112 0.399383 8.3334V10.3334C0.399383 10.8857 0.847098 11.3334 1.39938 11.3334H2.39938C2.95167 11.3334 3.39938 10.8857 3.39938 10.3334V8.3334C3.39938 7.78112 2.95167 7.3334 2.39938 7.3334Z" fill="white"/>
</svg>
