<svg width="40" height="41" viewBox="0 0 40 41" fill="none" xmlns="http://www.w3.org/2000/svg">
<path d="M13.333 10.485L29.9997 21.3183L13.333 32.1517" fill="#2400FD"/>
<path d="M29.9997 21.3183L31.6346 23.8336L35.5044 21.3183L31.6346 18.803L29.9997 21.3183ZM13.333 10.485L14.968 7.96965L10.333 4.95693V10.485H13.333ZM13.333 32.1517H10.333V37.6797L14.968 34.667L13.333 32.1517ZM11.698 13.0003L28.3647 23.8336L31.6346 18.803L14.968 7.96965L11.698 13.0003ZM28.3647 18.803L11.698 29.6363L14.968 34.667L31.6346 23.8336L28.3647 18.803ZM10.333 10.485L10.333 32.1517H16.333L16.333 10.485H10.333Z" fill="#2400FD"/>
</svg>
