<svg width="64" height="64" viewBox="0 0 64 64" fill="none" xmlns="http://www.w3.org/2000/svg">
<path d="M21.3333 16L47.9999 33.3333L21.3333 50.6667" fill="#2400FD"/>
<path d="M47.9999 33.3333L49.6349 35.8487L53.5046 33.3333L49.6349 30.818L47.9999 33.3333ZM21.3333 16L22.9682 13.4847L18.3333 10.4719V16H21.3333ZM21.3333 50.6667H18.3333V56.1947L22.9682 53.182L21.3333 50.6667ZM19.6983 18.5153L46.365 35.8487L49.6349 30.818L22.9682 13.4847L19.6983 18.5153ZM46.365 30.818L19.6983 48.1513L22.9682 53.182L49.6349 35.8487L46.365 30.818ZM18.3333 16L18.3333 50.6667H24.3333L24.3333 16H18.3333Z" fill="#2400FD"/>
</svg>
