<svg width="40" height="41" viewBox="0 0 40 41" fill="none" xmlns="http://www.w3.org/2000/svg">
<path d="M13.3335 10.485L30.0002 21.3183L13.3335 32.1517" fill="#2400FD"/>
<path d="M30.0002 21.3183L31.6351 23.8336L35.5049 21.3183L31.6351 18.803L30.0002 21.3183ZM13.3335 10.485L14.9685 7.96965L10.3335 4.95693V10.485H13.3335ZM13.3335 32.1517H10.3335V37.6797L14.9685 34.667L13.3335 32.1517ZM11.6985 13.0003L28.3652 23.8336L31.6351 18.803L14.9685 7.96965L11.6985 13.0003ZM28.3652 18.803L11.6985 29.6363L14.9685 34.667L31.6351 23.8336L28.3652 18.803ZM10.3335 10.485L10.3335 32.1517H16.3335L16.3335 10.485H10.3335Z" fill="#2400FD"/>
</svg>
