<svg width="16" height="15" viewBox="0 0 16 15" fill="none" xmlns="http://www.w3.org/2000/svg">
<path d="M8.01233 10.4894C10.2605 10.4894 12.2269 11.4563 13.2964 12.8991L12.1655 13.4338C11.295 12.4024 9.76018 11.7173 8.01233 11.7173C6.26448 11.7173 4.72967 12.4024 3.85912 13.4338L2.72888 12.8985C3.79834 11.4557 5.76413 10.4894 8.01233 10.4894ZM8.01233 1.28052C8.82645 1.28052 9.60722 1.60392 10.1829 2.17959C10.7586 2.75526 11.082 3.53603 11.082 4.35015V6.19193C11.0819 6.98295 10.7765 7.74342 10.2294 8.31475C9.68235 8.88608 8.93583 9.22416 8.14555 9.25849L8.01233 9.26156C7.19821 9.26156 6.41744 8.93815 5.84177 8.36248C5.26611 7.78682 4.9427 7.00604 4.9427 6.19193V4.35015C4.94274 3.55913 5.24815 2.79866 5.79523 2.22733C6.34231 1.656 7.08883 1.31792 7.87911 1.28359L8.01233 1.28052ZM8.01233 2.50837C7.54255 2.50834 7.09051 2.68784 6.74871 3.01012C6.40691 3.33241 6.20118 3.77312 6.17362 4.2421L6.17055 4.35015V6.19193C6.17009 6.67135 6.35658 7.13205 6.69041 7.47615C7.02423 7.82025 7.47907 8.02062 7.95828 8.03469C8.43749 8.04876 8.90331 7.87541 9.25674 7.55149C9.61018 7.22757 9.82337 6.7786 9.85104 6.29998L9.85411 6.19193V4.35015C9.85411 3.86168 9.66006 3.39321 9.31466 3.04781C8.96926 2.70241 8.5008 2.50837 8.01233 2.50837Z" fill="#2400FD"/>
</svg>
