<svg width="25" height="24" viewBox="0 0 25 24" fill="none" xmlns="http://www.w3.org/2000/svg">
<path d="M5.48712 11H4.48712V13H5.48712V11ZM19.4871 12L20.1942 12.7071L20.9013 12L20.1942 11.2929L19.4871 12ZM13.1942 4.29289L12.4871 3.58579L11.0729 5L11.78 5.70711L13.1942 4.29289ZM11.78 18.2929L11.0729 19L12.4871 20.4142L13.1942 19.7071L11.78 18.2929ZM5.48712 13H19.4871V11H5.48712V13ZM11.78 5.70711L18.78 12.7071L20.1942 11.2929L13.1942 4.29289L11.78 5.70711ZM18.78 11.2929L11.78 18.2929L13.1942 19.7071L20.1942 12.7071L18.78 11.2929Z" fill="#0A004C"/>
</svg>
