<svg width="16" height="15" viewBox="0 0 16 15" fill="none" xmlns="http://www.w3.org/2000/svg">
<path d="M8.01233 10.6221C10.2605 10.6221 12.2269 11.589 13.2964 13.0318L12.1655 13.5665C11.295 12.5351 9.76018 11.85 8.01233 11.85C6.26448 11.85 4.72967 12.5351 3.85912 13.5665L2.72888 13.0311C3.79834 11.5884 5.76413 10.6221 8.01233 10.6221ZM8.01233 1.41321C8.82645 1.41321 9.60722 1.73661 10.1829 2.31228C10.7586 2.88795 11.082 3.66872 11.082 4.48284V6.32462C11.0819 7.11564 10.7765 7.87611 10.2294 8.44744C9.68235 9.01877 8.93583 9.35685 8.14555 9.39118L8.01233 9.39425C7.19821 9.39425 6.41744 9.07084 5.84177 8.49517C5.26611 7.91951 4.9427 7.13873 4.9427 6.32462V4.48284C4.94275 3.69182 5.24815 2.93135 5.79523 2.36002C6.34231 1.78869 7.08883 1.45061 7.87911 1.41628L8.01233 1.41321ZM8.01233 2.64106C7.54255 2.64103 7.09051 2.82053 6.74871 3.14281C6.40691 3.4651 6.20118 3.90581 6.17362 4.37479L6.17055 4.48284V6.32462C6.17009 6.80404 6.35658 7.26474 6.69041 7.60884C7.02423 7.95294 7.47907 8.15331 7.95828 8.16738C8.43749 8.18145 8.90331 8.0081 9.25674 7.68418C9.61018 7.36026 9.82337 6.91129 9.85104 6.43267L9.85411 6.32462V4.48284C9.85411 3.99437 9.66006 3.52591 9.31466 3.1805C8.96926 2.8351 8.5008 2.64106 8.01233 2.64106V2.64106Z" fill="#2400FD"/>
</svg>
