<svg width="25" height="24" viewBox="0 0 25 24" fill="none" xmlns="http://www.w3.org/2000/svg">
<path d="M5.5 11H4.5V13H5.5V11ZM19.5 12L20.2071 12.7071L20.9142 12L20.2071 11.2929L19.5 12ZM13.2071 4.29289L12.5 3.58579L11.0858 5L11.7929 5.70711L13.2071 4.29289ZM11.7929 18.2929L11.0858 19L12.5 20.4142L13.2071 19.7071L11.7929 18.2929ZM5.5 13H19.5V11H5.5V13ZM11.7929 5.70711L18.7929 12.7071L20.2071 11.2929L13.2071 4.29289L11.7929 5.70711ZM18.7929 11.2929L11.7929 18.2929L13.2071 19.7071L20.2071 12.7071L18.7929 11.2929Z" fill="white"/>
</svg>
