<svg width="176" height="192" viewBox="0 0 176 192" fill="none" xmlns="http://www.w3.org/2000/svg">
<path d="M125.818 64.2158L159.482 63.7228L129.507 48.4735L152.955 24.4901L120.922 34.7737L120.426 1.35205L105.066 31.1111L80.908 7.83212L91.2663 39.6338L57.6018 40.1268L87.5415 55.3761L64.129 79.3595L96.1616 69.0759L96.6583 102.498L112.018 72.7737L136.176 96.0175L125.818 64.2158Z" fill="#EDE73B" stroke="#0A004C" stroke-width="1.2233" stroke-miterlimit="10" stroke-linecap="round" stroke-linejoin="round"/>
<path d="M83.5325 97.99L96.303 106.055" stroke="#0A004C" stroke-width="1.2233" stroke-miterlimit="10" stroke-linecap="round" stroke-linejoin="round"/>
<path d="M39.8647 159.938L62.7098 174.448L88.2862 190.648L136.743 159.938V110.915L88.2862 80.2053L39.8647 110.915V159.938Z" fill="#2400FD" stroke="#0A004C" stroke-width="1.2233" stroke-miterlimit="10" stroke-linecap="round" stroke-linejoin="round"/>
<path d="M136.743 111.268L113.898 125.742L88.2861 141.978V190.649L113.898 174.449L136.743 159.939V111.268Z" fill="white" stroke="#0A004C" stroke-width="1.2233" stroke-miterlimit="10" stroke-linecap="round" stroke-linejoin="round"/>
<path d="M136.743 111.268L113.898 125.742L88.2861 141.978V190.649L113.898 174.449L136.743 159.939V111.268Z" stroke="#0A004C" stroke-width="1.2233" stroke-miterlimit="10" stroke-linecap="round" stroke-linejoin="round"/>
<path d="M39.8647 111.268L62.7098 125.742L88.2862 141.978V190.649L62.7098 174.449L39.8647 159.939V111.268Z" fill="#FF3E37" stroke="#0A004C" stroke-width="1.2233" stroke-miterlimit="10" stroke-linecap="round" stroke-linejoin="round"/>
<path d="M100.879 121.41L87.5767 112.993L75.7285 105.456" fill="white"/>
<path d="M100.879 121.41L87.5767 112.993L75.7285 105.456" stroke="#0A004C" stroke-width="7.33981" stroke-miterlimit="10" stroke-linecap="round" stroke-linejoin="round"/>
<path d="M100.879 121.41L87.5767 112.993L75.7285 105.456V74.5352L87.5767 82.0718L100.879 90.4888V121.41Z" fill="white" stroke="#0A004C" stroke-width="1.2233" stroke-miterlimit="10" stroke-linecap="round" stroke-linejoin="round"/>
<path d="M84.4907 96.1587L97.2612 104.224" stroke="#0A004C" stroke-width="1.2233" stroke-miterlimit="10" stroke-linecap="round" stroke-linejoin="round"/>
<path d="M80.9078 96.6872C81.7698 96.6872 82.4686 95.883 82.4686 94.8911C82.4686 93.8991 81.7698 93.095 80.9078 93.095C80.0457 93.095 79.3469 93.8991 79.3469 94.8911C79.3469 95.883 80.0457 96.6872 80.9078 96.6872Z" fill="#0A004C"/>
<path d="M84.4907 103.906L97.2612 111.971" stroke="#0A004C" stroke-width="1.2233" stroke-miterlimit="10" stroke-linecap="round" stroke-linejoin="round"/>
<path d="M80.9078 104.435C81.7698 104.435 82.4686 103.631 82.4686 102.639C82.4686 101.647 81.7698 100.843 80.9078 100.843C80.0457 100.843 79.3469 101.647 79.3469 102.639C79.3469 103.631 80.0457 104.435 80.9078 104.435Z" fill="#0A004C"/>
<path d="M84.4907 88.4106L97.2612 96.4755" stroke="#0A004C" stroke-width="1.2233" stroke-miterlimit="10" stroke-linecap="round" stroke-linejoin="round"/>
<path d="M80.9078 88.9391C81.7698 88.9391 82.4686 88.135 82.4686 87.143C82.4686 86.1511 81.7698 85.3469 80.9078 85.3469C80.0457 85.3469 79.3469 86.1511 79.3469 87.143C79.3469 88.135 80.0457 88.9391 80.9078 88.9391Z" fill="#0A004C"/>
</svg>
