<svg width="658" height="172" viewBox="0 0 658 172" fill="none" xmlns="http://www.w3.org/2000/svg">
<g opacity="0.88">
<mask id="path-1-outside-1_2885_8983" maskUnits="userSpaceOnUse" x="479" y="6" width="36" height="15" fill="black">
<rect fill="white" x="479" y="6" width="36" height="15"/>
<path d="M485.016 19.192C484.238 19.192 483.56 19.0533 482.984 18.776C482.408 18.488 481.955 18.104 481.624 17.624C481.304 17.1333 481.107 16.5787 481.032 15.96H482.584C482.702 16.5147 482.974 16.968 483.4 17.32C483.827 17.6613 484.371 17.832 485.032 17.832C485.512 17.832 485.928 17.7147 486.28 17.48C486.632 17.2453 486.904 16.9307 487.096 16.536C487.288 16.1413 487.384 15.6987 487.384 15.208C487.384 14.696 487.283 14.2533 487.08 13.88C486.888 13.496 486.616 13.1973 486.264 12.984C485.923 12.7707 485.523 12.664 485.064 12.664C484.51 12.664 484.03 12.792 483.624 13.048C483.23 13.304 482.936 13.624 482.744 14.008H481.208L482.152 7.8H488.168V9.192H483.368L482.776 12.328C483.032 12.04 483.374 11.8053 483.8 11.624C484.238 11.432 484.734 11.336 485.288 11.336C485.854 11.336 486.36 11.4373 486.808 11.64C487.256 11.8427 487.635 12.12 487.944 12.472C488.264 12.824 488.51 13.2347 488.68 13.704C488.851 14.1627 488.936 14.6587 488.936 15.192C488.936 15.7573 488.846 16.28 488.664 16.76C488.483 17.24 488.222 17.6667 487.88 18.04C487.539 18.4027 487.128 18.6853 486.648 18.888C486.168 19.0907 485.624 19.192 485.016 19.192ZM495.372 19.192C494.37 19.192 493.511 18.952 492.796 18.472C492.082 17.9813 491.532 17.304 491.148 16.44C490.764 15.5653 490.572 14.552 490.572 13.4C490.572 12.248 490.764 11.24 491.148 10.376C491.532 9.50133 492.082 8.824 492.796 8.344C493.511 7.85333 494.37 7.608 495.372 7.608C496.364 7.608 497.212 7.85333 497.916 8.344C498.631 8.824 499.18 9.50133 499.564 10.376C499.948 11.24 500.14 12.248 500.14 13.4C500.14 14.552 499.948 15.5653 499.564 16.44C499.18 17.304 498.631 17.9813 497.916 18.472C497.212 18.952 496.364 19.192 495.372 19.192ZM495.356 17.768C495.975 17.768 496.519 17.592 496.988 17.24C497.458 16.888 497.826 16.3867 498.092 15.736C498.37 15.0853 498.508 14.3067 498.508 13.4C498.508 12.4933 498.37 11.7147 498.092 11.064C497.826 10.4133 497.458 9.91733 496.988 9.576C496.519 9.224 495.975 9.048 495.356 9.048C494.748 9.048 494.204 9.224 493.724 9.576C493.255 9.91733 492.882 10.4133 492.604 11.064C492.338 11.7147 492.204 12.4933 492.204 13.4C492.204 14.3067 492.338 15.0853 492.604 15.736C492.882 16.3867 493.255 16.888 493.724 17.24C494.204 17.592 494.748 17.768 495.356 17.768ZM503.394 19L509.842 7.8H511.426L504.978 19H503.394ZM510.738 19.192C510.248 19.192 509.805 19.08 509.41 18.856C509.016 18.632 508.701 18.3173 508.466 17.912C508.232 17.496 508.114 17.0107 508.114 16.456C508.114 15.88 508.232 15.3893 508.466 14.984C508.701 14.5787 509.016 14.264 509.41 14.04C509.805 13.816 510.248 13.704 510.738 13.704C511.24 13.704 511.682 13.816 512.066 14.04C512.461 14.264 512.77 14.5787 512.994 14.984C513.229 15.3893 513.346 15.88 513.346 16.456C513.346 17.0107 513.229 17.496 512.994 17.912C512.77 18.3173 512.461 18.632 512.066 18.856C511.672 19.08 511.229 19.192 510.738 19.192ZM510.722 18.008C510.968 18.008 511.186 17.9493 511.378 17.832C511.581 17.7147 511.741 17.544 511.858 17.32C511.986 17.0853 512.05 16.792 512.05 16.44C512.05 16.088 511.992 15.8 511.874 15.576C511.757 15.3413 511.597 15.1653 511.394 15.048C511.202 14.9307 510.984 14.872 510.738 14.872C510.504 14.872 510.285 14.9307 510.082 15.048C509.88 15.1653 509.714 15.3413 509.586 15.576C509.469 15.8 509.41 16.088 509.41 16.44C509.41 16.792 509.469 17.0853 509.586 17.32C509.714 17.544 509.874 17.7147 510.066 17.832C510.269 17.9493 510.488 18.008 510.722 18.008ZM504.194 13.112C503.693 13.112 503.245 13 502.85 12.776C502.456 12.552 502.141 12.2373 501.906 11.832C501.672 11.416 501.554 10.9253 501.554 10.36C501.554 9.79467 501.672 9.30933 501.906 8.904C502.141 8.49867 502.456 8.184 502.85 7.96C503.256 7.736 503.704 7.624 504.194 7.624C504.696 7.624 505.144 7.736 505.538 7.96C505.933 8.184 506.242 8.49867 506.466 8.904C506.701 9.30933 506.818 9.79467 506.818 10.36C506.818 10.9253 506.701 11.416 506.466 11.832C506.242 12.2373 505.928 12.552 505.522 12.776C505.128 13 504.685 13.112 504.194 13.112ZM504.178 11.928C504.424 11.928 504.642 11.8693 504.834 11.752C505.037 11.6347 505.197 11.464 505.314 11.24C505.432 11.0053 505.49 10.712 505.49 10.36C505.49 10.008 505.432 9.71467 505.314 9.48C505.197 9.24533 505.037 9.06933 504.834 8.952C504.642 8.83467 504.429 8.776 504.194 8.776C503.97 8.776 503.752 8.83467 503.538 8.952C503.336 9.06933 503.17 9.24533 503.042 9.48C502.925 9.71467 502.866 10.008 502.866 10.36C502.866 10.7013 502.925 10.9893 503.042 11.224C503.17 11.4587 503.336 11.6347 503.538 11.752C503.741 11.8693 503.954 11.928 504.178 11.928Z"/>
</mask>
<path d="M485.016 19.192C484.238 19.192 483.56 19.0533 482.984 18.776C482.408 18.488 481.955 18.104 481.624 17.624C481.304 17.1333 481.107 16.5787 481.032 15.96H482.584C482.702 16.5147 482.974 16.968 483.4 17.32C483.827 17.6613 484.371 17.832 485.032 17.832C485.512 17.832 485.928 17.7147 486.28 17.48C486.632 17.2453 486.904 16.9307 487.096 16.536C487.288 16.1413 487.384 15.6987 487.384 15.208C487.384 14.696 487.283 14.2533 487.08 13.88C486.888 13.496 486.616 13.1973 486.264 12.984C485.923 12.7707 485.523 12.664 485.064 12.664C484.51 12.664 484.03 12.792 483.624 13.048C483.23 13.304 482.936 13.624 482.744 14.008H481.208L482.152 7.8H488.168V9.192H483.368L482.776 12.328C483.032 12.04 483.374 11.8053 483.8 11.624C484.238 11.432 484.734 11.336 485.288 11.336C485.854 11.336 486.36 11.4373 486.808 11.64C487.256 11.8427 487.635 12.12 487.944 12.472C488.264 12.824 488.51 13.2347 488.68 13.704C488.851 14.1627 488.936 14.6587 488.936 15.192C488.936 15.7573 488.846 16.28 488.664 16.76C488.483 17.24 488.222 17.6667 487.88 18.04C487.539 18.4027 487.128 18.6853 486.648 18.888C486.168 19.0907 485.624 19.192 485.016 19.192ZM495.372 19.192C494.37 19.192 493.511 18.952 492.796 18.472C492.082 17.9813 491.532 17.304 491.148 16.44C490.764 15.5653 490.572 14.552 490.572 13.4C490.572 12.248 490.764 11.24 491.148 10.376C491.532 9.50133 492.082 8.824 492.796 8.344C493.511 7.85333 494.37 7.608 495.372 7.608C496.364 7.608 497.212 7.85333 497.916 8.344C498.631 8.824 499.18 9.50133 499.564 10.376C499.948 11.24 500.14 12.248 500.14 13.4C500.14 14.552 499.948 15.5653 499.564 16.44C499.18 17.304 498.631 17.9813 497.916 18.472C497.212 18.952 496.364 19.192 495.372 19.192ZM495.356 17.768C495.975 17.768 496.519 17.592 496.988 17.24C497.458 16.888 497.826 16.3867 498.092 15.736C498.37 15.0853 498.508 14.3067 498.508 13.4C498.508 12.4933 498.37 11.7147 498.092 11.064C497.826 10.4133 497.458 9.91733 496.988 9.576C496.519 9.224 495.975 9.048 495.356 9.048C494.748 9.048 494.204 9.224 493.724 9.576C493.255 9.91733 492.882 10.4133 492.604 11.064C492.338 11.7147 492.204 12.4933 492.204 13.4C492.204 14.3067 492.338 15.0853 492.604 15.736C492.882 16.3867 493.255 16.888 493.724 17.24C494.204 17.592 494.748 17.768 495.356 17.768ZM503.394 19L509.842 7.8H511.426L504.978 19H503.394ZM510.738 19.192C510.248 19.192 509.805 19.08 509.41 18.856C509.016 18.632 508.701 18.3173 508.466 17.912C508.232 17.496 508.114 17.0107 508.114 16.456C508.114 15.88 508.232 15.3893 508.466 14.984C508.701 14.5787 509.016 14.264 509.41 14.04C509.805 13.816 510.248 13.704 510.738 13.704C511.24 13.704 511.682 13.816 512.066 14.04C512.461 14.264 512.77 14.5787 512.994 14.984C513.229 15.3893 513.346 15.88 513.346 16.456C513.346 17.0107 513.229 17.496 512.994 17.912C512.77 18.3173 512.461 18.632 512.066 18.856C511.672 19.08 511.229 19.192 510.738 19.192ZM510.722 18.008C510.968 18.008 511.186 17.9493 511.378 17.832C511.581 17.7147 511.741 17.544 511.858 17.32C511.986 17.0853 512.05 16.792 512.05 16.44C512.05 16.088 511.992 15.8 511.874 15.576C511.757 15.3413 511.597 15.1653 511.394 15.048C511.202 14.9307 510.984 14.872 510.738 14.872C510.504 14.872 510.285 14.9307 510.082 15.048C509.88 15.1653 509.714 15.3413 509.586 15.576C509.469 15.8 509.41 16.088 509.41 16.44C509.41 16.792 509.469 17.0853 509.586 17.32C509.714 17.544 509.874 17.7147 510.066 17.832C510.269 17.9493 510.488 18.008 510.722 18.008ZM504.194 13.112C503.693 13.112 503.245 13 502.85 12.776C502.456 12.552 502.141 12.2373 501.906 11.832C501.672 11.416 501.554 10.9253 501.554 10.36C501.554 9.79467 501.672 9.30933 501.906 8.904C502.141 8.49867 502.456 8.184 502.85 7.96C503.256 7.736 503.704 7.624 504.194 7.624C504.696 7.624 505.144 7.736 505.538 7.96C505.933 8.184 506.242 8.49867 506.466 8.904C506.701 9.30933 506.818 9.79467 506.818 10.36C506.818 10.9253 506.701 11.416 506.466 11.832C506.242 12.2373 505.928 12.552 505.522 12.776C505.128 13 504.685 13.112 504.194 13.112ZM504.178 11.928C504.424 11.928 504.642 11.8693 504.834 11.752C505.037 11.6347 505.197 11.464 505.314 11.24C505.432 11.0053 505.49 10.712 505.49 10.36C505.49 10.008 505.432 9.71467 505.314 9.48C505.197 9.24533 505.037 9.06933 504.834 8.952C504.642 8.83467 504.429 8.776 504.194 8.776C503.97 8.776 503.752 8.83467 503.538 8.952C503.336 9.06933 503.17 9.24533 503.042 9.48C502.925 9.71467 502.866 10.008 502.866 10.36C502.866 10.7013 502.925 10.9893 503.042 11.224C503.17 11.4587 503.336 11.6347 503.538 11.752C503.741 11.8693 503.954 11.928 504.178 11.928Z" fill="#0A004C"/>
<path d="M482.984 18.776L482.537 19.6704L482.544 19.6738L482.55 19.677L482.984 18.776ZM481.624 17.624L480.787 18.1703L480.793 18.1809L480.801 18.1913L481.624 17.624ZM481.032 15.96V14.96H479.904L480.039 16.0798L481.032 15.96ZM482.584 15.96L483.563 15.753L483.395 14.96H482.584V15.96ZM483.4 17.32L482.764 18.0914L482.77 18.0962L482.775 18.1009L483.4 17.32ZM486.28 17.48L485.725 16.6479L485.725 16.6479L486.28 17.48ZM487.096 16.536L487.995 16.9735L487.995 16.9735L487.096 16.536ZM487.08 13.88L486.186 14.3272L486.193 14.3423L486.201 14.3571L487.08 13.88ZM486.264 12.984L485.734 13.8321L485.746 13.8392L486.264 12.984ZM483.624 13.048L483.09 12.2024L483.08 12.209L483.624 13.048ZM482.744 14.008V15.008H483.362L483.639 14.4552L482.744 14.008ZM481.208 14.008L480.22 13.8577L480.045 15.008H481.208V14.008ZM482.152 7.8V6.8H481.293L481.164 7.64967L482.152 7.8ZM488.168 7.8H489.168V6.8H488.168V7.8ZM488.168 9.192V10.192H489.168V9.192H488.168ZM483.368 9.192V8.192H482.539L482.386 9.0065L483.368 9.192ZM482.776 12.328L481.794 12.1425L481.123 15.6926L483.524 12.9924L482.776 12.328ZM483.8 11.624L484.191 12.5444L484.202 12.5396L483.8 11.624ZM486.808 11.64L486.396 12.5511L486.396 12.5511L486.808 11.64ZM487.944 12.472L487.193 13.1321L487.199 13.1384L487.204 13.1447L487.944 12.472ZM488.68 13.704L487.74 14.0458L487.743 14.0527L488.68 13.704ZM488.664 16.76L489.6 17.1134L489.6 17.1134L488.664 16.76ZM487.88 18.04L488.608 18.7254L488.613 18.7201L488.618 18.7148L487.88 18.04ZM486.648 18.888L486.259 17.9668L486.259 17.9668L486.648 18.888ZM485.016 19.192V18.192C484.356 18.192 483.832 18.0745 483.418 17.875L482.984 18.776L482.55 19.677C483.288 20.0321 484.119 20.192 485.016 20.192V19.192ZM482.984 18.776L483.431 17.8816C482.99 17.661 482.673 17.3835 482.448 17.0567L481.624 17.624L480.801 18.1913C481.237 18.8245 481.826 19.315 482.537 19.6704L482.984 18.776ZM481.624 17.624L482.462 17.0777C482.231 16.7236 482.082 16.3166 482.025 15.8402L481.032 15.96L480.039 16.0798C480.131 16.8407 480.378 17.5431 480.787 18.1703L481.624 17.624ZM481.032 15.96V16.96H482.584V15.96V14.96H481.032V15.96ZM482.584 15.96L481.606 16.167C481.769 16.937 482.158 17.5915 482.764 18.0914L483.4 17.32L484.037 16.5486C483.789 16.3445 483.634 16.0923 483.563 15.753L482.584 15.96ZM483.4 17.32L482.775 18.1009C483.415 18.6121 484.193 18.832 485.032 18.832V17.832V16.832C484.549 16.832 484.239 16.7106 484.025 16.5391L483.4 17.32ZM485.032 17.832V18.832C485.682 18.832 486.297 18.6705 486.835 18.3121L486.28 17.48L485.725 16.6479C485.559 16.7588 485.342 16.832 485.032 16.832V17.832ZM486.28 17.48L486.835 18.3121C487.34 17.975 487.729 17.5217 487.995 16.9735L487.096 16.536L486.197 16.0985C486.08 16.3396 485.924 16.5156 485.725 16.6479L486.28 17.48ZM487.096 16.536L487.995 16.9735C488.261 16.4272 488.384 15.8322 488.384 15.208H487.384H486.384C486.384 15.5651 486.315 15.8555 486.197 16.0985L487.096 16.536ZM487.384 15.208H488.384C488.384 14.5634 488.256 13.9499 487.959 13.4029L487.08 13.88L486.201 14.3571C486.31 14.5567 486.384 14.8286 486.384 15.208H487.384ZM487.08 13.88L487.975 13.4328C487.702 12.8877 487.303 12.4443 486.782 12.1288L486.264 12.984L485.746 13.8392C485.929 13.9504 486.074 14.1043 486.186 14.3272L487.08 13.88ZM486.264 12.984L486.794 12.136C486.273 11.81 485.683 11.664 485.064 11.664V12.664V13.664C485.362 13.664 485.573 13.7313 485.734 13.832L486.264 12.984ZM485.064 12.664V11.664C484.351 11.664 483.679 11.8305 483.09 12.2025L483.624 13.048L484.158 13.8935C484.38 13.7535 484.668 13.664 485.064 13.664V12.664ZM483.624 13.048L483.08 12.209C482.55 12.5525 482.129 13.0023 481.85 13.5608L482.744 14.008L483.639 14.4552C483.743 14.2457 483.909 14.0555 484.168 13.887L483.624 13.048ZM482.744 14.008V13.008H481.208V14.008V15.008H482.744V14.008ZM481.208 14.008L482.197 14.1583L483.141 7.95033L482.152 7.8L481.164 7.64967L480.22 13.8577L481.208 14.008ZM482.152 7.8V8.8H488.168V7.8V6.8H482.152V7.8ZM488.168 7.8H487.168V9.192H488.168H489.168V7.8H488.168ZM488.168 9.192V8.192H483.368V9.192V10.192H488.168V9.192ZM483.368 9.192L482.386 9.0065L481.794 12.1425L482.776 12.328L483.759 12.5135L484.351 9.3775L483.368 9.192ZM482.776 12.328L483.524 12.9924C483.663 12.8352 483.874 12.6794 484.191 12.5443L483.8 11.624L483.409 10.7037C482.873 10.9313 482.401 11.2448 482.029 11.6636L482.776 12.328ZM483.8 11.624L484.202 12.5396C484.494 12.4115 484.85 12.336 485.288 12.336V11.336V10.336C484.617 10.336 483.981 10.4525 483.398 10.7084L483.8 11.624ZM485.288 11.336V12.336C485.733 12.336 486.096 12.4152 486.396 12.5511L486.808 11.64L487.22 10.7289C486.625 10.4595 485.974 10.336 485.288 10.336V11.336ZM486.808 11.64L486.396 12.5511C486.721 12.6981 486.982 12.8922 487.193 13.1321L487.944 12.472L488.695 11.8119C488.288 11.3478 487.791 10.9872 487.22 10.7289L486.808 11.64ZM487.944 12.472L487.204 13.1447C487.432 13.3957 487.612 13.6925 487.74 14.0457L488.68 13.704L489.62 13.3623C489.407 12.7768 489.096 12.2523 488.684 11.7993L487.944 12.472ZM488.68 13.704L487.743 14.0527C487.869 14.3902 487.936 14.767 487.936 15.192H488.936H489.936C489.936 14.5503 489.833 13.9351 489.617 13.3553L488.68 13.704ZM488.936 15.192H487.936C487.936 15.6489 487.863 16.0505 487.729 16.4066L488.664 16.76L489.6 17.1134C489.828 16.5095 489.936 15.8658 489.936 15.192H488.936ZM488.664 16.76L487.729 16.4066C487.592 16.7697 487.397 17.0869 487.142 17.3652L487.88 18.04L488.618 18.7148C489.046 18.2464 489.374 17.7103 489.6 17.1134L488.664 16.76ZM487.88 18.04L487.152 17.3546C486.91 17.6112 486.617 17.8157 486.259 17.9668L486.648 18.888L487.037 19.8092C487.639 19.555 488.167 19.1941 488.608 18.7254L487.88 18.04ZM486.648 18.888L486.259 17.9668C485.921 18.1095 485.513 18.192 485.016 18.192V19.192V20.192C485.736 20.192 486.415 20.0718 487.037 19.8092L486.648 18.888ZM492.796 18.472L492.23 19.2964L492.239 19.3021L492.796 18.472ZM491.148 16.44L490.233 16.842L490.235 16.8461L491.148 16.44ZM491.148 10.376L492.062 10.7821L492.064 10.778L491.148 10.376ZM492.796 8.344L493.354 9.17418L493.362 9.1684L492.796 8.344ZM497.916 8.344L497.345 9.1644L497.352 9.16933L497.359 9.17414L497.916 8.344ZM499.564 10.376L498.649 10.778L498.651 10.7821L499.564 10.376ZM499.564 16.44L500.478 16.8461L500.48 16.842L499.564 16.44ZM497.916 18.472L498.48 19.2982L498.482 19.2964L497.916 18.472ZM498.092 15.736L497.172 15.3439L497.167 15.3568L498.092 15.736ZM498.092 11.064L497.167 11.4433L497.172 11.4561L498.092 11.064ZM496.988 9.576L496.388 10.376L496.394 10.3804L496.4 10.3847L496.988 9.576ZM493.724 9.576L494.312 10.3847L494.316 10.3824L493.724 9.576ZM492.604 11.064L491.684 10.6719L491.679 10.6848L492.604 11.064ZM492.604 15.736L491.679 16.1153L491.684 16.1281L492.604 15.736ZM493.724 17.24L493.124 18.04L493.133 18.0464L493.724 17.24ZM495.372 19.192V18.192C494.535 18.192 493.878 17.9938 493.354 17.6419L492.796 18.472L492.239 19.3021C493.144 19.9102 494.205 20.192 495.372 20.192V19.192ZM492.796 18.472L493.362 17.6476C492.814 17.2709 492.378 16.7448 492.062 16.0339L491.148 16.44L490.235 16.8461C490.687 17.8632 491.35 18.6917 492.23 19.2964L492.796 18.472ZM491.148 16.44L492.064 16.038C491.746 15.3134 491.572 14.4415 491.572 13.4H490.572H489.572C489.572 14.6625 489.783 15.8173 490.233 16.842L491.148 16.44ZM490.572 13.4H491.572C491.572 12.358 491.746 11.4935 492.062 10.7821L491.148 10.376L490.235 9.96986C489.783 10.9865 489.572 12.138 489.572 13.4H490.572ZM491.148 10.376L492.064 10.778C492.38 10.0574 492.814 9.53692 493.354 9.17414L492.796 8.344L492.239 7.51386C491.35 8.11108 490.684 8.94522 490.233 9.97401L491.148 10.376ZM492.796 8.344L493.362 9.1684C493.885 8.80926 494.539 8.608 495.372 8.608V7.608V6.608C494.2 6.608 493.137 6.8974 492.23 7.5196L492.796 8.344ZM495.372 7.608V8.608C496.193 8.608 496.833 8.80815 497.345 9.1644L497.916 8.344L498.488 7.5236C497.591 6.89851 496.536 6.608 495.372 6.608V7.608ZM497.916 8.344L497.359 9.17414C497.899 9.53692 498.332 10.0574 498.649 10.778L499.564 10.376L500.48 9.97401C500.028 8.94522 499.363 8.11108 498.474 7.51386L497.916 8.344ZM499.564 10.376L498.651 10.7821C498.967 11.4935 499.14 12.358 499.14 13.4H500.14H501.14C501.14 12.138 500.93 10.9865 500.478 9.96986L499.564 10.376ZM500.14 13.4H499.14C499.14 14.4415 498.967 15.3134 498.649 16.038L499.564 16.44L500.48 16.842C500.93 15.8173 501.14 14.6625 501.14 13.4H500.14ZM499.564 16.44L498.651 16.0339C498.335 16.7448 497.899 17.2709 497.35 17.6476L497.916 18.472L498.482 19.2964C499.363 18.6917 500.026 17.8632 500.478 16.8461L499.564 16.44ZM497.916 18.472L497.353 17.6458C496.841 17.9949 496.197 18.192 495.372 18.192V19.192V20.192C496.531 20.192 497.584 19.9091 498.48 19.2982L497.916 18.472ZM495.356 17.768V18.768C496.179 18.768 496.936 18.5292 497.588 18.04L496.988 17.24L496.388 16.44C496.102 16.6548 495.771 16.768 495.356 16.768V17.768ZM496.988 17.24L497.588 18.04C498.228 17.5599 498.696 16.8996 499.018 16.1152L498.092 15.736L497.167 15.3568C496.955 15.8737 496.687 16.2161 496.388 16.44L496.988 17.24ZM498.092 15.736L499.012 16.1281C499.355 15.3238 499.508 14.405 499.508 13.4H498.508H497.508C497.508 14.2083 497.384 14.8468 497.172 15.3439L498.092 15.736ZM498.508 13.4H499.508C499.508 12.395 499.355 11.4762 499.012 10.6719L498.092 11.064L497.172 11.4561C497.384 11.9532 497.508 12.5917 497.508 13.4H498.508ZM498.092 11.064L499.018 10.6848C498.696 9.89893 498.225 9.2388 497.576 8.76726L496.988 9.576L496.4 10.3847C496.69 10.5959 496.956 10.9277 497.167 11.4432L498.092 11.064ZM496.988 9.576L497.588 8.776C496.936 8.28681 496.179 8.048 495.356 8.048V9.048V10.048C495.771 10.048 496.102 10.1612 496.388 10.376L496.988 9.576ZM495.356 9.048V8.048C494.541 8.048 493.788 8.28895 493.133 8.76959L493.724 9.576L494.316 10.3824C494.62 10.159 494.956 10.048 495.356 10.048V9.048ZM493.724 9.576L493.136 8.76726C492.492 9.236 492.017 9.89128 491.684 10.6719L492.604 11.064L493.524 11.4561C493.746 10.9354 494.018 10.5987 494.312 10.3847L493.724 9.576ZM492.604 11.064L491.679 10.6848C491.351 11.4851 491.204 12.3992 491.204 13.4H492.204H493.204C493.204 12.5874 493.324 11.9442 493.53 11.4432L492.604 11.064ZM492.204 13.4H491.204C491.204 14.4008 491.351 15.3149 491.679 16.1152L492.604 15.736L493.53 15.3568C493.324 14.8558 493.204 14.2126 493.204 13.4H492.204ZM492.604 15.736L491.684 16.1281C492.016 16.9072 492.488 17.5628 493.124 18.04L493.724 17.24L494.324 16.44C494.022 16.2132 493.747 15.8661 493.524 15.3439L492.604 15.736ZM493.724 17.24L493.133 18.0464C493.788 18.5271 494.541 18.768 495.356 18.768V17.768V16.768C494.956 16.768 494.62 16.6569 494.316 16.4336L493.724 17.24ZM503.394 19L502.528 18.5011L501.665 20H503.394V19ZM509.842 7.8V6.8H509.264L508.976 7.30106L509.842 7.8ZM511.426 7.8L512.293 8.29894L513.156 6.8H511.426V7.8ZM504.978 19V20H505.557L505.845 19.4989L504.978 19ZM509.41 18.856L508.917 19.7257L508.917 19.7257L509.41 18.856ZM508.466 17.912L507.595 18.4034L507.601 18.413L508.466 17.912ZM508.466 14.984L507.601 14.483L507.601 14.483L508.466 14.984ZM509.41 14.04L509.904 14.9097L509.904 14.9097L509.41 14.04ZM512.066 14.04L511.563 14.9038L511.573 14.9097L512.066 14.04ZM512.994 14.984L512.119 15.4677L512.124 15.4764L512.129 15.485L512.994 14.984ZM512.994 17.912L512.123 17.4207L512.119 17.4283L512.994 17.912ZM511.378 17.832L510.877 16.9666L510.867 16.9725L510.857 16.9787L511.378 17.832ZM511.858 17.32L510.981 16.8411L510.977 16.8485L510.973 16.856L511.858 17.32ZM511.874 15.576L510.98 16.0232L510.984 16.0317L510.989 16.04L511.874 15.576ZM511.394 15.048L510.873 15.9013L510.883 15.9075L510.893 15.9134L511.394 15.048ZM510.082 15.048L509.581 14.1826L509.581 14.1826L510.082 15.048ZM509.586 15.576L508.709 15.0971L508.705 15.1045L508.701 15.112L509.586 15.576ZM509.586 17.32L508.692 17.7672L508.704 17.792L508.718 17.8161L509.586 17.32ZM510.066 17.832L509.545 18.6853L509.555 18.6915L509.565 18.6974L510.066 17.832ZM502.85 12.776L503.344 11.9063L503.344 11.9063L502.85 12.776ZM501.906 11.832L501.035 12.3234L501.041 12.333L501.906 11.832ZM502.85 7.96L502.367 7.0847L502.357 7.09031L502.85 7.96ZM505.538 7.96L506.032 7.09031L506.032 7.09031L505.538 7.96ZM506.466 8.904L505.591 9.38769L505.596 9.39641L505.601 9.40504L506.466 8.904ZM506.466 11.832L505.595 11.3407L505.591 11.3483L506.466 11.832ZM505.522 12.776L505.039 11.9007L505.029 11.9063L505.522 12.776ZM504.834 11.752L504.333 10.8866L504.323 10.8925L504.313 10.8987L504.834 11.752ZM505.314 11.24L506.2 11.704L506.205 11.6957L506.209 11.6872L505.314 11.24ZM505.314 9.48L506.209 9.03279L506.209 9.03279L505.314 9.48ZM504.834 8.952L504.313 9.80528L504.323 9.81147L504.333 9.81743L504.834 8.952ZM503.538 8.952L503.057 8.07578L503.047 8.08107L503.037 8.08657L503.538 8.952ZM503.042 9.48L502.165 9.00115L502.156 9.01682L502.148 9.03279L503.042 9.48ZM503.042 11.224L502.148 11.6712L502.156 11.6872L502.165 11.7029L503.042 11.224ZM503.538 11.752L503.037 12.6174L503.037 12.6174L503.538 11.752ZM503.394 19L504.261 19.4989L510.709 8.29894L509.842 7.8L508.976 7.30106L502.528 18.5011L503.394 19ZM509.842 7.8V8.8H511.426V7.8V6.8H509.842V7.8ZM511.426 7.8L510.56 7.30106L504.112 18.5011L504.978 19L505.845 19.4989L512.293 8.29894L511.426 7.8ZM504.978 19V18H503.394V19V20H504.978V19ZM510.738 19.192V18.192C510.406 18.192 510.136 18.118 509.904 17.9863L509.41 18.856L508.917 19.7257C509.474 20.042 510.089 20.192 510.738 20.192V19.192ZM509.41 18.856L509.904 17.9863C509.669 17.8529 509.481 17.6677 509.332 17.411L508.466 17.912L507.601 18.413C507.922 18.9669 508.363 19.4111 508.917 19.7257L509.41 18.856ZM508.466 17.912L509.337 17.4207C509.2 17.1773 509.114 16.8665 509.114 16.456H508.114H507.114C507.114 17.1548 507.263 17.8147 507.595 18.4033L508.466 17.912ZM508.114 16.456H509.114C509.114 16.0158 509.204 15.7067 509.332 15.485L508.466 14.984L507.601 14.483C507.26 15.0719 507.114 15.7442 507.114 16.456H508.114ZM508.466 14.984L509.332 15.485C509.481 15.2283 509.669 15.0431 509.904 14.9097L509.41 14.04L508.917 13.1703C508.363 13.4849 507.922 13.9291 507.601 14.483L508.466 14.984ZM509.41 14.04L509.904 14.9097C510.136 14.778 510.406 14.704 510.738 14.704V13.704V12.704C510.089 12.704 509.474 12.854 508.917 13.1703L509.41 14.04ZM510.738 13.704V14.704C511.086 14.704 511.35 14.7799 511.563 14.9038L512.066 14.04L512.57 13.1762C512.015 12.8521 511.394 12.704 510.738 12.704V13.704ZM512.066 14.04L511.573 14.9097C511.804 15.0407 511.982 15.2203 512.119 15.4677L512.994 14.984L513.87 14.5003C513.558 13.9371 513.119 13.4873 512.56 13.1703L512.066 14.04ZM512.994 14.984L512.129 15.485C512.257 15.7067 512.346 16.0158 512.346 16.456H513.346H514.346C514.346 15.7442 514.201 15.0719 513.86 14.483L512.994 14.984ZM513.346 16.456H512.346C512.346 16.8665 512.261 17.1773 512.123 17.4207L512.994 17.912L513.865 18.4033C514.197 17.8147 514.346 17.1548 514.346 16.456H513.346ZM512.994 17.912L512.119 17.4283C511.982 17.6757 511.804 17.8553 511.573 17.9863L512.066 18.856L512.56 19.7257C513.119 19.4087 513.558 18.9589 513.87 18.3957L512.994 17.912ZM512.066 18.856L511.573 17.9863C511.341 18.118 511.071 18.192 510.738 18.192V19.192V20.192C511.388 20.192 512.003 20.042 512.56 19.7257L512.066 18.856ZM510.722 18.008V19.008C511.135 19.008 511.537 18.9072 511.9 18.6853L511.378 17.832L510.857 16.9787C510.836 16.9915 510.801 17.008 510.722 17.008V18.008ZM511.378 17.832L511.879 18.6974C512.259 18.4778 512.546 18.1616 512.744 17.784L511.858 17.32L510.973 16.856C510.936 16.9264 510.903 16.9516 510.877 16.9666L511.378 17.832ZM511.858 17.32L512.736 17.7989C512.966 17.3781 513.05 16.9081 513.05 16.44H512.05H511.05C511.05 16.6759 511.007 16.7926 510.981 16.8411L511.858 17.32ZM512.05 16.44H513.05C513.05 15.9862 512.976 15.5242 512.76 15.112L511.874 15.576L510.989 16.04C511.007 16.0758 511.05 16.1898 511.05 16.44H512.05ZM511.874 15.576L512.769 15.1288C512.575 14.741 512.287 14.4094 511.895 14.1826L511.394 15.048L510.893 15.9134C510.907 15.9213 510.939 15.9416 510.98 16.0232L511.874 15.576ZM511.394 15.048L511.916 14.1947C511.553 13.9728 511.151 13.872 510.738 13.872V14.872V15.872C510.817 15.872 510.852 15.8885 510.873 15.9013L511.394 15.048ZM510.738 14.872V13.872C510.328 13.872 509.937 13.9769 509.581 14.1826L510.082 15.048L510.583 15.9134C510.634 15.8844 510.679 15.872 510.738 15.872V14.872ZM510.082 15.048L509.581 14.1826C509.199 14.4042 508.912 14.7248 508.709 15.0971L509.586 15.576L510.464 16.0549C510.517 15.9579 510.561 15.9265 510.583 15.9134L510.082 15.048ZM509.586 15.576L508.701 15.112C508.485 15.5242 508.41 15.9862 508.41 16.44H509.41H510.41C510.41 16.1898 510.453 16.0758 510.472 16.04L509.586 15.576ZM509.41 16.44H508.41C508.41 16.8966 508.486 17.3546 508.692 17.7672L509.586 17.32L510.481 16.8728C510.453 16.8161 510.41 16.6874 510.41 16.44H509.41ZM509.586 17.32L508.718 17.8161C508.917 18.1648 509.189 18.4679 509.545 18.6853L510.066 17.832L510.588 16.9787C510.56 16.9615 510.511 16.9232 510.455 16.8239L509.586 17.32ZM510.066 17.832L509.565 18.6974C509.921 18.9031 510.312 19.008 510.722 19.008V18.008V17.008C510.663 17.008 510.618 16.9956 510.567 16.9666L510.066 17.832ZM504.194 13.112V12.112C503.848 12.112 503.573 12.0362 503.344 11.9063L502.85 12.776L502.357 13.6457C502.917 13.9638 503.539 14.112 504.194 14.112V13.112ZM502.85 12.776L503.344 11.9063C503.109 11.7729 502.921 11.5877 502.772 11.331L501.906 11.832L501.041 12.333C501.362 12.8869 501.803 13.3311 502.357 13.6457L502.85 12.776ZM501.906 11.832L502.777 11.3407C502.642 11.1 502.554 10.7849 502.554 10.36H501.554H500.554C500.554 11.0658 500.702 11.732 501.035 12.3233L501.906 11.832ZM501.554 10.36H502.554C502.554 9.9342 502.642 9.62942 502.772 9.40504L501.906 8.904L501.041 8.40296C500.702 8.98925 500.554 9.65513 500.554 10.36H501.554ZM501.906 8.904L502.772 9.40504C502.921 9.14827 503.109 8.96311 503.344 8.82968L502.85 7.96L502.357 7.09031C501.803 7.40489 501.362 7.84906 501.041 8.40296L501.906 8.904ZM502.85 7.96L503.334 8.83524C503.583 8.69797 503.863 8.624 504.194 8.624V7.624V6.624C503.545 6.624 502.929 6.77403 502.367 7.08476L502.85 7.96ZM504.194 7.624V8.624C504.541 8.624 504.816 8.69982 505.045 8.82969L505.538 7.96L506.032 7.09031C505.472 6.77218 504.85 6.624 504.194 6.624V7.624ZM505.538 7.96L505.045 8.82968C505.276 8.96072 505.454 9.14026 505.591 9.38769L506.466 8.904L507.342 8.42031C507.03 7.85708 506.591 7.40728 506.032 7.09031L505.538 7.96ZM506.466 8.904L505.601 9.40504C505.731 9.62942 505.818 9.9342 505.818 10.36H506.818H507.818C507.818 9.65513 507.671 8.98925 507.332 8.40296L506.466 8.904ZM506.818 10.36H505.818C505.818 10.7849 505.731 11.1 505.595 11.3407L506.466 11.832L507.337 12.3233C507.671 11.732 507.818 11.0658 507.818 10.36H506.818ZM506.466 11.832L505.591 11.3483C505.458 11.5889 505.279 11.7678 505.039 11.9008L505.522 12.776L506.006 13.6512C506.576 13.3362 507.027 12.8858 507.342 12.3157L506.466 11.832ZM505.522 12.776L505.029 11.9063C504.797 12.038 504.527 12.112 504.194 12.112V13.112V14.112C504.844 14.112 505.459 13.962 506.016 13.6457L505.522 12.776ZM504.178 11.928V12.928C504.591 12.928 504.993 12.8272 505.356 12.6053L504.834 11.752L504.313 10.8987C504.292 10.9115 504.257 10.928 504.178 10.928V11.928ZM504.834 11.752L505.335 12.6174C505.715 12.3978 506.002 12.0816 506.2 11.704L505.314 11.24L504.429 10.776C504.392 10.8464 504.359 10.8716 504.333 10.8866L504.834 11.752ZM505.314 11.24L506.209 11.6872C506.415 11.2746 506.49 10.8166 506.49 10.36H505.49H504.49C504.49 10.6074 504.448 10.7361 504.42 10.7928L505.314 11.24ZM505.49 10.36H506.49C506.49 9.90335 506.415 9.44541 506.209 9.03279L505.314 9.48L504.42 9.92721C504.448 9.98392 504.49 10.1126 504.49 10.36H505.49ZM505.314 9.48L506.209 9.03279C506.015 8.64503 505.727 8.31338 505.335 8.08657L504.834 8.952L504.333 9.81743C504.347 9.82528 504.379 9.84563 504.42 9.92721L505.314 9.48ZM504.834 8.952L505.356 8.09872C505 7.88121 504.605 7.776 504.194 7.776V8.776V9.776C504.253 9.776 504.285 9.78812 504.313 9.80528L504.834 8.952ZM504.194 8.776V7.776C503.788 7.776 503.404 7.88449 503.057 8.07578L503.538 8.952L504.02 9.82821C504.099 9.78484 504.153 9.776 504.194 9.776V8.776ZM503.538 8.952L503.037 8.08657C502.655 8.3082 502.368 8.62876 502.165 9.00115L503.042 9.48L503.92 9.95885C503.973 9.86191 504.017 9.83047 504.039 9.81743L503.538 8.952ZM503.042 9.48L502.148 9.03279C501.942 9.44541 501.866 9.90335 501.866 10.36H502.866H503.866C503.866 10.1126 503.909 9.98392 503.937 9.92721L503.042 9.48ZM502.866 10.36H501.866C501.866 10.8115 501.944 11.2623 502.148 11.6712L503.042 11.224L503.937 10.7768C503.907 10.7163 503.866 10.5911 503.866 10.36H502.866ZM503.042 11.224L502.165 11.7029C502.368 12.0752 502.655 12.3958 503.037 12.6174L503.538 11.752L504.039 10.8866C504.017 10.8735 503.973 10.8421 503.92 10.7451L503.042 11.224ZM503.538 11.752L503.037 12.6174C503.385 12.8187 503.77 12.928 504.178 12.928V11.928V10.928C504.139 10.928 504.097 10.9199 504.039 10.8866L503.538 11.752Z" fill="white" mask="url(#path-1-outside-1_2885_8983)"/>
</g>
<g filter="url(#filter0_d_2885_8983)">
<rect width="626" height="52.2347" transform="translate(8 29)" fill="white"/>
<g clip-path="url(#clip0_2885_8983)">
<rect width="19.588" height="19.588" transform="translate(17.7939 45.3234)" fill="#2400FD"/>
<path d="M27.2034 59.6173V52.5003L25.5188 52.9835V51.5471L27.9477 50.4762H29.0186V59.6173H27.2034Z" fill="white"/>
</g>
<path d="M44.7804 59.1173V50.5476H50.4119V51.882H46.4331V54.1224H50.0446V55.4078H46.4331V57.7829H50.4119V59.1173H44.7804ZM54.0064 59.2642C53.4187 59.2642 52.9168 59.1744 52.5005 58.9949C52.0924 58.8072 51.7741 58.5582 51.5456 58.2481C51.3252 57.9298 51.1987 57.5666 51.1661 57.1585H52.8066C52.8392 57.3136 52.9004 57.4564 52.9902 57.587C53.0882 57.7094 53.2188 57.8114 53.382 57.8931C53.5534 57.9665 53.7533 58.0032 53.9819 58.0032C54.2022 58.0032 54.3859 57.9747 54.5328 57.9175C54.6797 57.8523 54.7858 57.7666 54.8511 57.6605C54.9245 57.5544 54.9613 57.436 54.9613 57.3054C54.9613 57.1259 54.9123 56.9871 54.8144 56.8892C54.7164 56.7912 54.5736 56.7137 54.3859 56.6566C54.1982 56.5913 53.9655 56.5382 53.688 56.4974C53.3697 56.4321 53.0637 56.3587 52.7699 56.277C52.4842 56.1873 52.2312 56.073 52.0108 55.9343C51.7986 55.7955 51.6313 55.62 51.5089 55.4078C51.3865 55.1956 51.3252 54.9385 51.3252 54.6366C51.3252 54.2693 51.4232 53.9428 51.6191 53.6572C51.8231 53.3633 52.1128 53.1348 52.4883 52.9716C52.8719 52.8002 53.3289 52.7145 53.8594 52.7145C54.6185 52.7145 55.2143 52.8818 55.6468 53.2164C56.0794 53.5429 56.3365 53.9999 56.4181 54.5876H54.8633C54.8144 54.3917 54.7042 54.2407 54.5328 54.1346C54.3614 54.0285 54.1329 53.9755 53.8472 53.9755C53.5452 53.9755 53.3167 54.0326 53.1616 54.1469C53.0065 54.253 52.929 54.3917 52.929 54.5631C52.929 54.6855 52.9739 54.7957 53.0637 54.8936C53.1535 54.9834 53.2922 55.061 53.4799 55.1263C53.6676 55.1915 53.9043 55.2528 54.19 55.3099C54.7042 55.4078 55.1408 55.518 55.4999 55.6404C55.8591 55.7629 56.1365 55.9465 56.3324 56.1914C56.5283 56.4362 56.6262 56.779 56.6262 57.2197C56.6262 57.6278 56.5161 57.9869 56.2957 58.2971C56.0835 58.599 55.7815 58.8357 55.3898 59.0071C55.0062 59.1785 54.545 59.2642 54.0064 59.2642ZM60.2647 59.1173C59.8321 59.1173 59.4526 59.052 59.1261 58.9214C58.7997 58.7827 58.5467 58.5582 58.3671 58.2481C58.1957 57.9298 58.11 57.4972 58.11 56.9504V54.2326H57.0327V52.8614H58.11L58.2937 51.1352H59.7628V52.8614H61.391V54.2326H59.7628V56.9749C59.7628 57.2524 59.8199 57.4442 59.9341 57.5503C60.0566 57.6564 60.2688 57.7094 60.5708 57.7094H61.391V59.1173H60.2647ZM65.2036 59.2642C64.5833 59.2642 64.0365 59.1296 63.5631 58.8602C63.0979 58.5909 62.7306 58.2154 62.4613 57.7339C62.2001 57.2442 62.0695 56.6811 62.0695 56.0444C62.0695 55.3915 62.2001 54.8161 62.4613 54.3182C62.7225 53.8122 63.0857 53.4205 63.5509 53.143C64.0243 52.8573 64.5752 52.7145 65.2036 52.7145C65.8239 52.7145 66.3626 52.8491 66.8196 53.1185C67.2767 53.3878 67.6276 53.7551 67.8725 54.2203C68.1255 54.6855 68.252 55.216 68.252 55.8118C68.252 55.8935 68.2479 55.9832 68.2398 56.0812C68.2398 56.1791 68.2316 56.2811 68.2153 56.3872H63.2448V55.3833H66.5748C66.5585 54.9671 66.4238 54.6406 66.1708 54.4039C65.9178 54.1673 65.5995 54.0489 65.2159 54.0489C64.9302 54.0489 64.6731 54.1142 64.4446 54.2448C64.2161 54.3754 64.0324 54.5753 63.8937 54.8447C63.7631 55.114 63.6978 55.4527 63.6978 55.8608V56.2158C63.6978 56.5586 63.759 56.8606 63.8814 57.1218C64.0039 57.3748 64.1752 57.5707 64.3956 57.7094C64.6241 57.8482 64.8894 57.9175 65.1914 57.9175C65.5097 57.9175 65.7627 57.8563 65.9504 57.7339C66.1381 57.6115 66.285 57.4482 66.3911 57.2442H68.0684C67.9541 57.6196 67.7623 57.9624 67.493 58.2726C67.2318 58.5746 66.9053 58.8153 66.5136 58.9949C66.13 59.1744 65.6933 59.2642 65.2036 59.2642ZM69.21 59.1173V50.3027H70.8627V59.1173H69.21ZM72.0897 59.1173V50.3027H73.7424V59.1173H72.0897ZM77.9076 59.2642C77.2873 59.2642 76.7405 59.1296 76.2671 58.8602C75.8019 58.5909 75.4346 58.2154 75.1653 57.7339C74.9041 57.2442 74.7735 56.6811 74.7735 56.0444C74.7735 55.3915 74.9041 54.8161 75.1653 54.3182C75.4265 53.8122 75.7897 53.4205 76.2549 53.143C76.7282 52.8573 77.2792 52.7145 77.9076 52.7145C78.5279 52.7145 79.0666 52.8491 79.5236 53.1185C79.9807 53.3878 80.3316 53.7551 80.5765 54.2203C80.8295 54.6855 80.956 55.216 80.956 55.8118C80.956 55.8935 80.9519 55.9832 80.9437 56.0812C80.9437 56.1791 80.9356 56.2811 80.9193 56.3872H75.9488V55.3833H79.2788C79.2624 54.9671 79.1278 54.6406 78.8748 54.4039C78.6218 54.1673 78.3034 54.0489 77.9198 54.0489C77.6342 54.0489 77.3771 54.1142 77.1486 54.2448C76.92 54.3754 76.7364 54.5753 76.5977 54.8447C76.4671 55.114 76.4018 55.4527 76.4018 55.8608V56.2158C76.4018 56.5586 76.463 56.8606 76.5854 57.1218C76.7078 57.3748 76.8792 57.5707 77.0996 57.7094C77.3281 57.8482 77.5934 57.9175 77.8954 57.9175C78.2137 57.9175 78.4667 57.8563 78.6544 57.7339C78.8421 57.6115 78.989 57.4482 79.0951 57.2442H80.7724C80.6581 57.6196 80.4663 57.9624 80.197 58.2726C79.9358 58.5746 79.6093 58.8153 79.2176 58.9949C78.834 59.1744 78.3973 59.2642 77.9076 59.2642ZM84.4601 59.1173V50.5476H87.2146C88.2104 50.5476 89.0306 50.7271 89.6754 51.0862C90.3283 51.4372 90.8099 51.935 91.12 52.5798C91.4383 53.2164 91.5975 53.9673 91.5975 54.8324C91.5975 55.6976 91.4383 56.4525 91.12 57.0973C90.8099 57.7339 90.3283 58.2318 89.6754 58.5909C89.0306 58.9418 88.2104 59.1173 87.2146 59.1173H84.4601ZM86.1128 57.6972H87.1289C87.8309 57.6972 88.3818 57.5829 88.7817 57.3544C89.1898 57.1259 89.4795 56.7994 89.6509 56.375C89.8223 55.9424 89.908 55.4282 89.908 54.8324C89.908 54.2285 89.8223 53.7143 89.6509 53.2899C89.4795 52.8573 89.1898 52.5268 88.7817 52.2982C88.3818 52.0697 87.8309 51.9554 87.1289 51.9554H86.1128V57.6972ZM95.5134 59.2642C94.8931 59.2642 94.3463 59.1296 93.8729 58.8602C93.4077 58.5909 93.0404 58.2154 92.7711 57.7339C92.5099 57.2442 92.3793 56.6811 92.3793 56.0444C92.3793 55.3915 92.5099 54.8161 92.7711 54.3182C93.0322 53.8122 93.3954 53.4205 93.8606 53.143C94.334 52.8573 94.8849 52.7145 95.5134 52.7145C96.1337 52.7145 96.6723 52.8491 97.1294 53.1185C97.5864 53.3878 97.9374 53.7551 98.1822 54.2203C98.4353 54.6855 98.5618 55.216 98.5618 55.8118C98.5618 55.8935 98.5577 55.9832 98.5495 56.0812C98.5495 56.1791 98.5414 56.2811 98.525 56.3872H93.5546V55.3833H96.8845C96.8682 54.9671 96.7335 54.6406 96.4805 54.4039C96.2275 54.1673 95.9092 54.0489 95.5256 54.0489C95.24 54.0489 94.9829 54.1142 94.7543 54.2448C94.5258 54.3754 94.3422 54.5753 94.2034 54.8447C94.0728 55.114 94.0075 55.4527 94.0075 55.8608V56.2158C94.0075 56.5586 94.0688 56.8606 94.1912 57.1218C94.3136 57.3748 94.485 57.5707 94.7054 57.7094C94.9339 57.8482 95.1992 57.9175 95.5011 57.9175C95.8194 57.9175 96.0725 57.8563 96.2602 57.7339C96.4479 57.6115 96.5948 57.4482 96.7009 57.2442H98.3781C98.2639 57.6196 98.0721 57.9624 97.8027 58.2726C97.5416 58.5746 97.2151 58.8153 96.8233 58.9949C96.4397 59.1744 96.0031 59.2642 95.5134 59.2642ZM99.5198 59.1173V50.3027H101.173V59.1173H99.5198ZM104.468 59.2642C103.962 59.2642 103.542 59.1785 103.207 59.0071C102.881 58.8357 102.636 58.6072 102.473 58.3215C102.31 58.0277 102.228 57.7094 102.228 57.3666C102.228 56.9912 102.322 56.6606 102.51 56.375C102.706 56.0812 102.999 55.8526 103.391 55.6894C103.783 55.5262 104.268 55.4446 104.848 55.4446H106.354C106.354 55.1263 106.317 54.8651 106.244 54.661C106.178 54.457 106.06 54.306 105.889 54.2081C105.717 54.102 105.485 54.0489 105.191 54.0489C104.889 54.0489 104.632 54.1142 104.419 54.2448C104.215 54.3754 104.089 54.5753 104.04 54.8447H102.436C102.477 54.4039 102.616 54.0285 102.852 53.7184C103.097 53.4001 103.42 53.1552 103.82 52.9838C104.228 52.8043 104.685 52.7145 105.191 52.7145C105.778 52.7145 106.284 52.8124 106.709 53.0083C107.133 53.196 107.456 53.4735 107.676 53.8408C107.896 54.2081 108.007 54.661 108.007 55.1997V59.1173H106.623L106.439 58.1746C106.35 58.3297 106.24 58.4766 106.109 58.6154C105.987 58.746 105.844 58.8602 105.68 58.9582C105.525 59.0561 105.346 59.1296 105.142 59.1785C104.938 59.2357 104.713 59.2642 104.468 59.2642ZM104.86 57.991C105.064 57.991 105.248 57.9543 105.411 57.8808C105.583 57.7992 105.729 57.689 105.852 57.5503C105.974 57.4115 106.072 57.2524 106.146 57.0728C106.219 56.8851 106.268 56.6892 106.293 56.4852V56.4607H105.044C104.791 56.4607 104.587 56.4933 104.432 56.5586C104.277 56.6239 104.162 56.7137 104.089 56.828C104.015 56.9422 103.979 57.0769 103.979 57.232C103.979 57.3952 104.015 57.5339 104.089 57.6482C104.162 57.7543 104.264 57.84 104.395 57.9053C104.534 57.9624 104.689 57.991 104.86 57.991ZM109.201 61.8107V52.8614H110.67L110.853 53.7061C110.984 53.5266 111.135 53.3633 111.306 53.2164C111.486 53.0614 111.702 52.9389 111.955 52.8491C112.208 52.7594 112.498 52.7145 112.824 52.7145C113.412 52.7145 113.922 52.8573 114.355 53.143C114.795 53.4286 115.138 53.8204 115.383 54.3182C115.636 54.8079 115.763 55.367 115.763 55.9955C115.763 56.6239 115.632 57.1871 115.371 57.6849C115.118 58.1746 114.771 58.5623 114.33 58.848C113.898 59.1255 113.404 59.2642 112.849 59.2642C112.392 59.2642 111.996 59.1826 111.661 59.0194C111.327 58.848 111.057 58.6154 110.853 58.3215V61.8107H109.201ZM112.445 57.8196C112.763 57.8196 113.045 57.7461 113.29 57.5992C113.534 57.4442 113.726 57.232 113.865 56.9626C114.004 56.6851 114.073 56.3627 114.073 55.9955C114.073 55.6282 114.004 55.3058 113.865 55.0283C113.726 54.7508 113.534 54.5345 113.29 54.3795C113.045 54.2244 112.763 54.1469 112.445 54.1469C112.127 54.1469 111.841 54.2244 111.588 54.3795C111.343 54.5345 111.151 54.7508 111.012 55.0283C110.874 55.3058 110.804 55.6241 110.804 55.9832C110.804 56.3505 110.874 56.6729 111.012 56.9504C111.151 57.2279 111.343 57.4442 111.588 57.5992C111.841 57.7461 112.127 57.8196 112.445 57.8196ZM119.716 59.2642C119.121 59.2642 118.586 59.1255 118.113 58.848C117.647 58.5705 117.28 58.1869 117.011 57.6972C116.742 57.1993 116.607 56.628 116.607 55.9832C116.607 55.3385 116.742 54.7712 117.011 54.2815C117.28 53.7837 117.652 53.4001 118.125 53.1307C118.598 52.8532 119.133 52.7145 119.729 52.7145C120.333 52.7145 120.867 52.8532 121.332 53.1307C121.806 53.4001 122.177 53.7837 122.447 54.2815C122.716 54.7712 122.851 55.3385 122.851 55.9832C122.851 56.628 122.716 57.1993 122.447 57.6972C122.177 58.1869 121.806 58.5705 121.332 58.848C120.859 59.1255 120.32 59.2642 119.716 59.2642ZM119.716 57.8318C119.994 57.8318 120.239 57.7666 120.451 57.636C120.671 57.4972 120.843 57.2891 120.965 57.0116C121.096 56.7341 121.161 56.3913 121.161 55.9832C121.161 55.5751 121.1 55.2364 120.977 54.9671C120.855 54.6896 120.684 54.4815 120.463 54.3427C120.251 54.204 120.006 54.1346 119.729 54.1346C119.459 54.1346 119.215 54.204 118.994 54.3427C118.782 54.4815 118.611 54.6896 118.48 54.9671C118.349 55.2364 118.284 55.5751 118.284 55.9832C118.284 56.3913 118.345 56.7341 118.468 57.0116C118.598 57.2891 118.77 57.4972 118.982 57.636C119.202 57.7666 119.447 57.8318 119.716 57.8318ZM123.891 59.1173V52.8614H125.36L125.507 53.9877C125.67 53.7102 125.866 53.4776 126.094 53.2899C126.323 53.1022 126.588 52.9593 126.89 52.8614C127.192 52.7635 127.527 52.7145 127.894 52.7145V54.4529H127.209C126.972 54.4529 126.751 54.4815 126.547 54.5386C126.343 54.5876 126.164 54.6774 126.009 54.8079C125.862 54.9304 125.748 55.1018 125.666 55.3221C125.584 55.5343 125.544 55.8037 125.544 56.1301V59.1173H123.891ZM131.404 59.1173C130.971 59.1173 130.591 59.052 130.265 58.9214C129.938 58.7827 129.685 58.5582 129.506 58.2481C129.335 57.9298 129.249 57.4972 129.249 56.9504V54.2326H128.171V52.8614H129.249L129.432 51.1352H130.902V52.8614H132.53V54.2326H130.902V56.9749C130.902 57.2524 130.959 57.4442 131.073 57.5503C131.195 57.6564 131.408 57.7094 131.71 57.7094H132.53V59.1173H131.404ZM136.342 59.2642C135.722 59.2642 135.175 59.1296 134.702 58.8602C134.237 58.5909 133.869 58.2154 133.6 57.7339C133.339 57.2442 133.208 56.6811 133.208 56.0444C133.208 55.3915 133.339 54.8161 133.6 54.3182C133.861 53.8122 134.224 53.4205 134.69 53.143C135.163 52.8573 135.714 52.7145 136.342 52.7145C136.963 52.7145 137.501 52.8491 137.958 53.1185C138.416 53.3878 138.766 53.7551 139.011 54.2203C139.264 54.6855 139.391 55.216 139.391 55.8118C139.391 55.8935 139.387 55.9832 139.379 56.0812C139.379 56.1791 139.37 56.2811 139.354 56.3872H134.384V55.3833H137.714C137.697 54.9671 137.563 54.6406 137.31 54.4039C137.057 54.1673 136.738 54.0489 136.355 54.0489C136.069 54.0489 135.812 54.1142 135.583 54.2448C135.355 54.3754 135.171 54.5753 135.032 54.8447C134.902 55.114 134.837 55.4527 134.837 55.8608V56.2158C134.837 56.5586 134.898 56.8606 135.02 57.1218C135.143 57.3748 135.314 57.5707 135.534 57.7094C135.763 57.8482 136.028 57.9175 136.33 57.9175C136.649 57.9175 136.902 57.8563 137.089 57.7339C137.277 57.6115 137.424 57.4482 137.53 57.2442H139.207C139.093 57.6196 138.901 57.9624 138.632 58.2726C138.371 58.5746 138.044 58.8153 137.652 58.9949C137.269 59.1744 136.832 59.2642 136.342 59.2642Z" fill="#2400FD"/>
<rect x="362.184" y="36.1838" width="86.5137" height="14.691" rx="1.63233" fill="#3A9918" stroke="white" stroke-width="1.63233"/>
<rect x="447.881" y="37.0293" width="62" height="13" rx="0.816167" fill="#A0CF1C"/>
<rect x="509.881" y="37" width="27.7497" height="13.0587" fill="#D3D715"/>
<rect x="537.631" y="37" width="25.3012" height="13.0587" fill="#C2B113"/>
<rect x="562.932" y="37" width="58.764" height="13.0587" fill="#C27C13"/>
<line x1="494.844" y1="27.7758" x2="494.027" y2="58.7901" stroke="#0A004C" stroke-width="1.63233" stroke-linecap="square" stroke-dasharray="3.26 4.08"/>
<rect x="464" y="63.6871" width="60.3964" height="19.588" rx="1.63233" fill="#A0CF1C"/>
<path d="M472.823 77.6871V70.9342H470.48V69.6887H476.696V70.9342H474.354V77.6871H472.823ZM476.845 77.6871V71.8026H478.216L478.353 72.8538C478.498 72.5948 478.677 72.3777 478.89 72.2025C479.111 72.0273 479.366 71.894 479.656 71.8026C479.945 71.7112 480.261 71.6655 480.604 71.6655V73.288H479.919C479.705 73.288 479.503 73.3147 479.313 73.368C479.13 73.4137 478.966 73.4975 478.822 73.6194C478.685 73.7336 478.578 73.8936 478.502 74.0993C478.426 74.2973 478.387 74.5449 478.387 74.842V77.6871H476.845ZM483.888 77.8242C483.309 77.8242 482.799 77.6986 482.357 77.4472C481.922 77.1882 481.58 76.834 481.328 76.3845C481.085 75.9275 480.963 75.3981 480.963 74.7963C480.963 74.1869 481.085 73.646 481.328 73.1737C481.572 72.7014 481.911 72.332 482.345 72.0654C482.787 71.7988 483.301 71.6655 483.888 71.6655C484.474 71.6655 484.977 71.795 485.396 72.054C485.815 72.3053 486.139 72.6519 486.367 73.0937C486.603 73.5279 486.722 74.0231 486.722 74.5792C486.722 74.6553 486.718 74.7391 486.71 74.8305C486.71 74.922 486.706 75.021 486.699 75.1276H482.071V74.1792H485.168C485.152 73.7831 485.023 73.4746 484.779 73.2537C484.543 73.0252 484.246 72.9109 483.888 72.9109C483.629 72.9109 483.393 72.9757 483.179 73.1052C482.966 73.2271 482.795 73.4137 482.665 73.6651C482.543 73.9164 482.482 74.2364 482.482 74.6249V74.9562C482.482 75.2838 482.54 75.5695 482.654 75.8132C482.768 76.0494 482.928 76.236 483.134 76.3731C483.347 76.5026 483.595 76.5674 483.876 76.5674C484.173 76.5674 484.41 76.514 484.585 76.4074C484.76 76.2931 484.893 76.1408 484.985 75.9503H486.55C486.451 76.3007 486.276 76.6207 486.025 76.9101C485.773 77.192 485.465 77.4167 485.099 77.5843C484.741 77.7443 484.337 77.8242 483.888 77.8242ZM484.882 71.3112L482.437 69.9629L482.882 68.8774L485.236 70.3857L484.882 71.3112ZM489.942 77.8242C489.386 77.8242 488.914 77.7405 488.525 77.5729C488.145 77.3977 487.851 77.1615 487.646 76.8644C487.44 76.5674 487.322 76.2322 487.291 75.8589H488.834C488.857 76.0037 488.91 76.137 488.994 76.2588C489.085 76.3731 489.207 76.4683 489.36 76.5445C489.512 76.6131 489.699 76.6473 489.919 76.6473C490.125 76.6473 490.297 76.6207 490.434 76.5674C490.571 76.5064 490.674 76.4264 490.742 76.3274C490.811 76.2208 490.845 76.1065 490.845 75.9846C490.845 75.817 490.799 75.6875 490.708 75.5961C490.616 75.4971 490.479 75.4209 490.297 75.3676C490.121 75.3066 489.908 75.2571 489.657 75.219C489.344 75.1581 489.051 75.0895 488.777 75.0134C488.51 74.9296 488.274 74.8229 488.068 74.6934C487.87 74.5563 487.714 74.3887 487.6 74.1907C487.493 73.9926 487.44 73.7489 487.44 73.4594C487.44 73.1166 487.531 72.8119 487.714 72.5453C487.905 72.2711 488.175 72.0578 488.525 71.9054C488.883 71.7454 489.31 71.6655 489.805 71.6655C490.521 71.6655 491.081 71.8216 491.485 72.1339C491.889 72.4463 492.129 72.8728 492.205 73.4137H490.754C490.708 73.2309 490.601 73.0937 490.434 73.0023C490.274 72.9033 490.06 72.8538 489.794 72.8538C489.512 72.8538 489.295 72.9033 489.142 73.0023C488.998 73.1014 488.925 73.2347 488.925 73.4023C488.925 73.5165 488.963 73.6194 489.04 73.7108C489.123 73.7946 489.253 73.8707 489.428 73.9393C489.603 74.0079 489.832 74.065 490.114 74.1107C490.609 74.1945 491.024 74.2973 491.359 74.4192C491.702 74.5411 491.961 74.7163 492.136 74.9448C492.311 75.1657 492.395 75.4857 492.388 75.9046C492.395 76.2931 492.296 76.6321 492.09 76.9216C491.892 77.2034 491.611 77.4243 491.245 77.5843C490.879 77.7443 490.445 77.8242 489.942 77.8242ZM499.038 77.8242C498.718 77.8242 498.44 77.7824 498.203 77.6986C497.967 77.6224 497.765 77.5157 497.598 77.3786C497.43 77.2415 497.289 77.1006 497.175 76.9558L497.015 77.6871H495.644V69.4602H497.186V72.6024C497.369 72.3053 497.617 72.0768 497.929 71.9168C498.241 71.7492 498.599 71.6655 499.003 71.6655C499.544 71.6655 500.016 71.7988 500.42 72.0654C500.831 72.332 501.155 72.6938 501.391 73.1509C501.627 73.6079 501.746 74.1374 501.746 74.7391C501.746 75.3257 501.627 75.8513 501.391 76.316C501.163 76.7806 500.847 77.1501 500.443 77.4243C500.039 77.6909 499.571 77.8242 499.038 77.8242ZM498.66 76.4759C498.95 76.4759 499.209 76.4074 499.437 76.2703C499.666 76.1255 499.845 75.9237 499.974 75.6647C500.104 75.4057 500.169 75.101 500.169 74.7506C500.169 74.4002 500.104 74.0955 499.974 73.8365C499.845 73.5698 499.666 73.3642 499.437 73.2194C499.209 73.0747 498.95 73.0023 498.66 73.0023C498.363 73.0023 498.101 73.0747 497.872 73.2194C497.643 73.3642 497.464 73.5698 497.335 73.8365C497.205 74.0955 497.141 74.4002 497.141 74.7506C497.141 75.0934 497.205 75.3981 497.335 75.6647C497.464 75.9237 497.643 76.1255 497.872 76.2703C498.101 76.4074 498.363 76.4759 498.66 76.4759ZM502.746 77.6871V71.8026H504.289V77.6871H502.746ZM503.523 71.0484C503.241 71.0484 503.009 70.9684 502.826 70.8085C502.651 70.6409 502.563 70.4314 502.563 70.18C502.563 69.9287 502.651 69.723 502.826 69.563C503.009 69.3954 503.241 69.3116 503.523 69.3116C503.798 69.3116 504.022 69.3954 504.197 69.563C504.38 69.723 504.472 69.9287 504.472 70.18C504.472 70.4314 504.38 70.6409 504.197 70.8085C504.022 70.9684 503.798 71.0484 503.523 71.0484ZM508.193 77.8242C507.614 77.8242 507.103 77.6986 506.662 77.4472C506.227 77.1882 505.885 76.834 505.633 76.3845C505.389 75.9275 505.268 75.3981 505.268 74.7963C505.268 74.1869 505.389 73.646 505.633 73.1737C505.877 72.7014 506.216 72.332 506.65 72.0654C507.092 71.7988 507.606 71.6655 508.193 71.6655C508.779 71.6655 509.282 71.795 509.701 72.054C510.12 72.3053 510.444 72.6519 510.672 73.0937C510.908 73.5279 511.026 74.0231 511.026 74.5792C511.026 74.6553 511.023 74.7391 511.015 74.8305C511.015 74.922 511.011 75.021 511.004 75.1276H506.376V74.1792H509.472C509.457 73.7831 509.328 73.4746 509.084 73.2537C508.848 73.0252 508.551 72.9109 508.193 72.9109C507.934 72.9109 507.698 72.9757 507.484 73.1052C507.271 73.2271 507.1 73.4137 506.97 73.6651C506.848 73.9164 506.787 74.2364 506.787 74.6249V74.9562C506.787 75.2838 506.844 75.5695 506.959 75.8132C507.073 76.0494 507.233 76.236 507.439 76.3731C507.652 76.5026 507.899 76.5674 508.181 76.5674C508.478 76.5674 508.714 76.514 508.89 76.4074C509.065 76.2931 509.198 76.1408 509.29 75.9503H510.855C510.756 76.3007 510.581 76.6207 510.329 76.9101C510.078 77.192 509.77 77.4167 509.404 77.5843C509.046 77.7443 508.642 77.8242 508.193 77.8242ZM511.916 77.6871V71.8026H513.265L513.379 72.7167C513.546 72.3967 513.79 72.1416 514.11 71.9511C514.438 71.7607 514.826 71.6655 515.276 71.6655C515.748 71.6655 516.148 71.7607 516.475 71.9511C516.803 72.1416 517.05 72.4196 517.218 72.7852C517.393 73.1509 517.481 73.6003 517.481 74.1335V77.6871H515.95V74.2821C515.95 73.8631 515.847 73.5394 515.641 73.3108C515.443 73.0823 515.15 72.9681 514.761 72.9681C514.518 72.9681 514.297 73.0252 514.099 73.1395C513.901 73.2461 513.744 73.4061 513.63 73.6194C513.516 73.825 513.459 74.0802 513.459 74.3849V77.6871H511.916Z" fill="white"/>
<path d="M491.443 64.6052C491.152 64.314 491.124 63.8512 491.377 63.5263L493.175 61.2192C493.502 60.8 494.136 60.8 494.463 61.2192L496.261 63.5264C496.514 63.8512 496.486 64.314 496.195 64.6052L494.396 66.4037C494.077 66.7224 493.561 66.7224 493.242 66.4037L491.443 64.6052Z" fill="#A0CF1C"/>
<rect width="626" height="52.2347" transform="translate(8 93.2346)" fill="white"/>
<g clip-path="url(#clip1_2885_8983)">
<rect width="19.588" height="19.588" transform="translate(17.7939 109.558)" fill="#18048F"/>
<path d="M24.2539 123.852V122.559C24.8198 122.115 25.3639 121.671 25.8862 121.227C26.4173 120.783 26.8917 120.343 27.3096 119.908C27.7362 119.464 28.0714 119.033 28.3151 118.615C28.5589 118.198 28.6808 117.793 28.6808 117.401C28.6808 117.157 28.6329 116.935 28.5371 116.735C28.4501 116.526 28.3108 116.361 28.1192 116.239C27.9364 116.108 27.6883 116.043 27.3749 116.043C27.0702 116.043 26.8134 116.112 26.6044 116.252C26.3955 116.391 26.2344 116.578 26.1213 116.813C26.0168 117.04 25.9646 117.296 25.9646 117.584H24.2669C24.2844 116.913 24.4324 116.352 24.7109 115.899C24.9982 115.446 25.3769 115.111 25.847 114.894C26.3172 114.667 26.8439 114.554 27.4271 114.554C28.0801 114.554 28.6285 114.676 29.0725 114.92C29.5165 115.155 29.8561 115.477 30.0911 115.886C30.3262 116.295 30.4437 116.765 30.4437 117.296C30.4437 117.697 30.3697 118.089 30.2217 118.472C30.0737 118.855 29.8691 119.229 29.6079 119.595C29.3555 119.952 29.0682 120.296 28.7461 120.626C28.424 120.957 28.0844 121.275 27.7275 121.58C27.3793 121.876 27.0397 122.154 26.7089 122.415H30.6526V123.852H24.2539Z" fill="white"/>
</g>
<path d="M44.7804 123.352V114.782H46.7514L49.3346 120.132L51.8688 114.782H53.852V123.352H52.1993V117.61L49.9712 122.177H48.6612L46.4331 117.61V123.352H44.7804ZM57.1882 123.499C56.6821 123.499 56.2618 123.413 55.9272 123.242C55.6007 123.07 55.3559 122.842 55.1926 122.556C55.0294 122.262 54.9478 121.944 54.9478 121.601C54.9478 121.226 55.0416 120.895 55.2294 120.61C55.4252 120.316 55.7191 120.087 56.1108 119.924C56.5026 119.761 56.9882 119.679 57.5677 119.679H59.0735C59.0735 119.361 59.0368 119.1 58.9633 118.896C58.898 118.692 58.7797 118.541 58.6083 118.443C58.4369 118.337 58.2043 118.284 57.9105 118.284C57.6085 118.284 57.3514 118.349 57.1392 118.479C56.9351 118.61 56.8086 118.81 56.7597 119.079H55.1559C55.1967 118.639 55.3355 118.263 55.5721 117.953C55.817 117.635 56.1394 117.39 56.5393 117.218C56.9474 117.039 57.4044 116.949 57.9105 116.949C58.4981 116.949 59.0041 117.047 59.4285 117.243C59.8529 117.431 60.1753 117.708 60.3957 118.075C60.6161 118.443 60.7262 118.896 60.7262 119.434V123.352H59.3428L59.1592 122.409C59.0694 122.564 58.9592 122.711 58.8287 122.85C58.7062 122.981 58.5634 123.095 58.4002 123.193C58.2451 123.291 58.0655 123.364 57.8615 123.413C57.6575 123.47 57.433 123.499 57.1882 123.499ZM57.5799 122.226C57.784 122.226 57.9676 122.189 58.1308 122.115C58.3022 122.034 58.4491 121.924 58.5716 121.785C58.694 121.646 58.7919 121.487 58.8654 121.307C58.9388 121.12 58.9878 120.924 59.0123 120.72V120.695H57.7636C57.5105 120.695 57.3065 120.728 57.1514 120.793C56.9964 120.859 56.8821 120.948 56.8086 121.063C56.7352 121.177 56.6985 121.312 56.6985 121.467C56.6985 121.63 56.7352 121.769 56.8086 121.883C56.8821 121.989 56.9841 122.075 57.1147 122.14C57.2535 122.197 57.4085 122.226 57.5799 122.226ZM61.9203 123.352V117.096H63.3894L63.5363 118.222C63.6995 117.945 63.8954 117.712 64.124 117.524C64.3525 117.337 64.6177 117.194 64.9197 117.096C65.2217 116.998 65.5563 116.949 65.9236 116.949V118.688H65.238C65.0013 118.688 64.781 118.716 64.5769 118.773C64.3729 118.822 64.1933 118.912 64.0383 119.043C63.8913 119.165 63.7771 119.336 63.6955 119.557C63.6138 119.769 63.573 120.038 63.573 120.365V123.352H61.9203ZM69.433 123.352C69.0005 123.352 68.6209 123.287 68.2945 123.156C67.968 123.017 67.715 122.793 67.5354 122.483C67.364 122.164 67.2783 121.732 67.2783 121.185V118.467H66.201V117.096H67.2783L67.462 115.37H68.9311V117.096H70.5593V118.467H68.9311V121.209C68.9311 121.487 68.9882 121.679 69.1025 121.785C69.2249 121.891 69.4371 121.944 69.7391 121.944H70.5593V123.352H69.433ZM71.6259 123.352V117.096H73.2786V123.352H71.6259ZM72.4584 116.276C72.1564 116.276 71.9116 116.186 71.7238 116.006C71.5361 115.827 71.4423 115.607 71.4423 115.345C71.4423 115.068 71.5361 114.843 71.7238 114.672C71.9116 114.501 72.1564 114.415 72.4584 114.415C72.7604 114.415 73.0052 114.501 73.1929 114.672C73.3888 114.843 73.4868 115.068 73.4868 115.345C73.4868 115.607 73.3888 115.827 73.1929 116.006C73.0052 116.186 72.7604 116.276 72.4584 116.276ZM74.5645 123.352V117.096H76.0214L76.1438 118.075C76.3233 117.733 76.5845 117.459 76.9273 117.255C77.2783 117.051 77.6945 116.949 78.176 116.949C78.6821 116.949 79.1106 117.051 79.4615 117.255C79.8125 117.459 80.0818 117.761 80.2695 118.161C80.4572 118.561 80.5511 119.051 80.5511 119.63V123.352H78.8984V119.777C78.8984 119.32 78.7923 118.965 78.58 118.712C78.3678 118.459 78.0495 118.333 77.6251 118.333C77.364 118.333 77.1232 118.394 76.9028 118.516C76.6906 118.639 76.5233 118.818 76.4009 119.055C76.2785 119.283 76.2172 119.565 76.2172 119.9V123.352H74.5645ZM84.2943 123.352V114.782H87.0489C88.0446 114.782 88.8648 114.962 89.5096 115.321C90.1625 115.672 90.6441 116.17 90.9542 116.814C91.2725 117.451 91.4317 118.202 91.4317 119.067C91.4317 119.932 91.2725 120.687 90.9542 121.332C90.6441 121.969 90.1625 122.466 89.5096 122.826C88.8648 123.176 88.0446 123.352 87.0489 123.352H84.2943ZM85.947 121.932H86.9632C87.6651 121.932 88.216 121.818 88.6159 121.589C89.024 121.36 89.3137 121.034 89.4851 120.61C89.6565 120.177 89.7422 119.663 89.7422 119.067C89.7422 118.463 89.6565 117.949 89.4851 117.524C89.3137 117.092 89.024 116.761 88.6159 116.533C88.216 116.304 87.6651 116.19 86.9632 116.19H85.947V121.932ZM94.7477 123.499C94.2498 123.499 93.8214 123.401 93.4622 123.205C93.1113 123.001 92.842 122.703 92.6542 122.311C92.4665 121.92 92.3727 121.434 92.3727 120.854V117.096H94.0132V120.671C94.0132 121.144 94.1193 121.503 94.3315 121.748C94.5518 121.985 94.8742 122.103 95.2986 122.103C95.5598 122.103 95.7965 122.046 96.0087 121.932C96.2209 121.809 96.3882 121.634 96.5106 121.405C96.6331 121.177 96.6943 120.891 96.6943 120.548V117.096H98.347V123.352H96.9024L96.7677 122.36C96.5882 122.711 96.327 122.989 95.9842 123.193C95.6414 123.397 95.2292 123.499 94.7477 123.499ZM99.5811 123.352V117.096H101.05L101.197 118.222C101.36 117.945 101.556 117.712 101.785 117.524C102.013 117.337 102.279 117.194 102.581 117.096C102.883 116.998 103.217 116.949 103.584 116.949V118.688H102.899C102.662 118.688 102.442 118.716 102.238 118.773C102.034 118.822 101.854 118.912 101.699 119.043C101.552 119.165 101.438 119.336 101.356 119.557C101.275 119.769 101.234 120.038 101.234 120.365V123.352H99.5811ZM106.347 123.499C105.841 123.499 105.421 123.413 105.086 123.242C104.76 123.07 104.515 122.842 104.352 122.556C104.188 122.262 104.107 121.944 104.107 121.601C104.107 121.226 104.201 120.895 104.388 120.61C104.584 120.316 104.878 120.087 105.27 119.924C105.661 119.761 106.147 119.679 106.727 119.679H108.232C108.232 119.361 108.196 119.1 108.122 118.896C108.057 118.692 107.939 118.541 107.767 118.443C107.596 118.337 107.363 118.284 107.069 118.284C106.767 118.284 106.51 118.349 106.298 118.479C106.094 118.61 105.968 118.81 105.919 119.079H104.315C104.356 118.639 104.494 118.263 104.731 117.953C104.976 117.635 105.298 117.39 105.698 117.218C106.106 117.039 106.563 116.949 107.069 116.949C107.657 116.949 108.163 117.047 108.587 117.243C109.012 117.431 109.334 117.708 109.555 118.075C109.775 118.443 109.885 118.896 109.885 119.434V123.352H108.502L108.318 122.409C108.228 122.564 108.118 122.711 107.988 122.85C107.865 122.981 107.722 123.095 107.559 123.193C107.404 123.291 107.224 123.364 107.02 123.413C106.816 123.47 106.592 123.499 106.347 123.499ZM106.739 122.226C106.943 122.226 107.127 122.189 107.29 122.115C107.461 122.034 107.608 121.924 107.73 121.785C107.853 121.646 107.951 121.487 108.024 121.307C108.098 121.12 108.147 120.924 108.171 120.72V120.695H106.922C106.669 120.695 106.465 120.728 106.31 120.793C106.155 120.859 106.041 120.948 105.968 121.063C105.894 121.177 105.857 121.312 105.857 121.467C105.857 121.63 105.894 121.769 105.968 121.883C106.041 121.989 106.143 122.075 106.274 122.14C106.412 122.197 106.567 122.226 106.739 122.226ZM111.079 123.352V117.096H112.536L112.658 118.075C112.838 117.733 113.099 117.459 113.442 117.255C113.793 117.051 114.209 116.949 114.691 116.949C115.197 116.949 115.625 117.051 115.976 117.255C116.327 117.459 116.596 117.761 116.784 118.161C116.972 118.561 117.066 119.051 117.066 119.63V123.352H115.413V119.777C115.413 119.32 115.307 118.965 115.095 118.712C114.883 118.459 114.564 118.333 114.14 118.333C113.879 118.333 113.638 118.394 113.418 118.516C113.205 118.639 113.038 118.818 112.916 119.055C112.793 119.283 112.732 119.565 112.732 119.9V123.352H111.079ZM120.956 123.499C120.401 123.499 119.903 123.36 119.463 123.083C119.03 122.797 118.687 122.409 118.434 121.92C118.189 121.43 118.067 120.871 118.067 120.242C118.067 119.606 118.194 119.038 118.447 118.541C118.7 118.043 119.051 117.655 119.499 117.378C119.948 117.092 120.458 116.949 121.03 116.949C121.462 116.949 121.842 117.031 122.168 117.194C122.503 117.349 122.768 117.573 122.964 117.867V114.537H124.617V123.352H123.148L122.964 122.495C122.842 122.675 122.691 122.842 122.511 122.997C122.332 123.152 122.115 123.274 121.862 123.364C121.609 123.454 121.307 123.499 120.956 123.499ZM121.373 122.054C121.699 122.054 121.985 121.981 122.229 121.834C122.474 121.679 122.666 121.463 122.805 121.185C122.944 120.908 123.013 120.585 123.013 120.218C123.013 119.851 122.944 119.528 122.805 119.251C122.666 118.973 122.474 118.761 122.229 118.614C121.985 118.459 121.699 118.381 121.373 118.381C121.062 118.381 120.781 118.459 120.528 118.614C120.283 118.761 120.091 118.973 119.952 119.251C119.814 119.528 119.744 119.851 119.744 120.218C119.744 120.577 119.814 120.899 119.952 121.185C120.091 121.463 120.283 121.679 120.528 121.834C120.781 121.981 121.062 122.054 121.373 122.054Z" fill="#18048F"/>
<rect x="362.217" y="99.8337" width="51.6323" height="14.6323" rx="1.63233" fill="#3A9918" stroke="white" stroke-width="1.63233"/>
<rect x="413.033" y="100.65" width="26" height="13" rx="0.816167" fill="#A0CF1C"/>
<rect x="439.033" y="100.621" width="27.7497" height="13.0587" fill="#D3D715"/>
<rect x="466.782" y="100.65" width="48" height="13" fill="#C2B113"/>
<rect x="514.782" y="100.65" width="106" height="13" fill="#C27C13"/>
<line x1="494.844" y1="91.6427" x2="494.027" y2="122.657" stroke="#0A004C" stroke-width="1.63233" stroke-linecap="square" stroke-dasharray="3.26 4.08"/>
<rect x="463" y="127.877" width="62" height="20" rx="1.63233" fill="#C2B113"/>
<path d="M471.504 141.877V133.879H474.486C475.134 133.879 475.671 133.989 476.097 134.21C476.532 134.431 476.852 134.732 477.057 135.113C477.27 135.494 477.377 135.924 477.377 136.404C477.377 136.854 477.274 137.269 477.069 137.65C476.871 138.031 476.558 138.339 476.132 138.575C475.705 138.811 475.157 138.929 474.486 138.929H473.047V141.877H471.504ZM473.047 137.673H474.395C474.898 137.673 475.256 137.558 475.469 137.33C475.69 137.101 475.8 136.793 475.8 136.404C475.8 136.008 475.69 135.7 475.469 135.479C475.256 135.25 474.898 135.136 474.395 135.136H473.047V137.673ZM479.676 142.015C479.212 142.015 478.823 141.935 478.511 141.775C478.206 141.615 477.978 141.398 477.825 141.123C477.673 140.849 477.597 140.552 477.597 140.232C477.597 139.874 477.684 139.562 477.86 139.295C478.042 139.028 478.313 138.819 478.671 138.667C479.037 138.507 479.494 138.427 480.042 138.427H481.436C481.436 138.13 481.406 137.886 481.345 137.695C481.284 137.497 481.173 137.353 481.013 137.261C480.853 137.162 480.632 137.113 480.351 137.113C480.069 137.113 479.833 137.174 479.642 137.295C479.459 137.41 479.341 137.589 479.288 137.833H477.791C477.837 137.429 477.97 137.082 478.191 136.793C478.412 136.496 478.709 136.267 479.082 136.107C479.463 135.94 479.89 135.856 480.362 135.856C480.91 135.856 481.379 135.947 481.767 136.13C482.164 136.305 482.464 136.568 482.67 136.918C482.876 137.261 482.979 137.68 482.979 138.175V141.877H481.687L481.516 140.998C481.432 141.142 481.329 141.279 481.208 141.409C481.093 141.531 480.96 141.637 480.808 141.729C480.663 141.82 480.495 141.889 480.305 141.935C480.114 141.988 479.905 142.015 479.676 142.015ZM480.042 140.826C480.232 140.826 480.404 140.792 480.556 140.723C480.716 140.647 480.853 140.544 480.968 140.415C481.082 140.278 481.173 140.125 481.242 139.958C481.31 139.783 481.356 139.6 481.379 139.409V139.375H480.213C479.985 139.375 479.794 139.406 479.642 139.466C479.497 139.527 479.391 139.615 479.322 139.729C479.254 139.836 479.219 139.962 479.219 140.106C479.219 140.259 479.254 140.388 479.322 140.495C479.391 140.602 479.486 140.685 479.608 140.746C479.737 140.8 479.882 140.826 480.042 140.826ZM486.431 142.015C485.874 142.015 485.402 141.931 485.014 141.763C484.633 141.588 484.34 141.352 484.134 141.055C483.928 140.758 483.81 140.422 483.78 140.049H485.322C485.345 140.194 485.398 140.327 485.482 140.449C485.574 140.563 485.695 140.659 485.848 140.735C486 140.803 486.187 140.838 486.408 140.838C486.613 140.838 486.785 140.811 486.922 140.758C487.059 140.697 487.162 140.617 487.23 140.518C487.299 140.411 487.333 140.297 487.333 140.175C487.333 140.007 487.288 139.878 487.196 139.786C487.105 139.687 486.968 139.611 486.785 139.558C486.61 139.497 486.396 139.447 486.145 139.409C485.833 139.348 485.539 139.28 485.265 139.204C484.998 139.12 484.762 139.013 484.557 138.884C484.359 138.747 484.202 138.579 484.088 138.381C483.982 138.183 483.928 137.939 483.928 137.65C483.928 137.307 484.02 137.002 484.202 136.736C484.393 136.461 484.663 136.248 485.014 136.096C485.372 135.936 485.798 135.856 486.293 135.856C487.009 135.856 487.569 136.012 487.973 136.324C488.377 136.637 488.617 137.063 488.693 137.604H487.242C487.196 137.421 487.089 137.284 486.922 137.193C486.762 137.094 486.549 137.044 486.282 137.044C486 137.044 485.783 137.094 485.631 137.193C485.486 137.292 485.414 137.425 485.414 137.593C485.414 137.707 485.452 137.81 485.528 137.901C485.612 137.985 485.741 138.061 485.916 138.13C486.092 138.198 486.32 138.255 486.602 138.301C487.097 138.385 487.512 138.488 487.847 138.61C488.19 138.731 488.449 138.907 488.624 139.135C488.8 139.356 488.883 139.676 488.876 140.095C488.883 140.483 488.784 140.822 488.579 141.112C488.381 141.394 488.099 141.615 487.733 141.775C487.368 141.935 486.933 142.015 486.431 142.015ZM492.149 142.015C491.592 142.015 491.12 141.931 490.732 141.763C490.351 141.588 490.057 141.352 489.852 141.055C489.646 140.758 489.528 140.422 489.498 140.049H491.04C491.063 140.194 491.116 140.327 491.2 140.449C491.292 140.563 491.413 140.659 491.566 140.735C491.718 140.803 491.905 140.838 492.126 140.838C492.331 140.838 492.503 140.811 492.64 140.758C492.777 140.697 492.88 140.617 492.948 140.518C493.017 140.411 493.051 140.297 493.051 140.175C493.051 140.007 493.005 139.878 492.914 139.786C492.823 139.687 492.686 139.611 492.503 139.558C492.328 139.497 492.114 139.447 491.863 139.409C491.551 139.348 491.257 139.28 490.983 139.204C490.716 139.12 490.48 139.013 490.275 138.884C490.077 138.747 489.92 138.579 489.806 138.381C489.699 138.183 489.646 137.939 489.646 137.65C489.646 137.307 489.738 137.002 489.92 136.736C490.111 136.461 490.381 136.248 490.732 136.096C491.09 135.936 491.516 135.856 492.011 135.856C492.727 135.856 493.287 136.012 493.691 136.324C494.095 136.637 494.335 137.063 494.411 137.604H492.96C492.914 137.421 492.807 137.284 492.64 137.193C492.48 137.094 492.267 137.044 492 137.044C491.718 137.044 491.501 137.094 491.349 137.193C491.204 137.292 491.132 137.425 491.132 137.593C491.132 137.707 491.17 137.81 491.246 137.901C491.33 137.985 491.459 138.061 491.634 138.13C491.81 138.198 492.038 138.255 492.32 138.301C492.815 138.385 493.23 138.488 493.565 138.61C493.908 138.731 494.167 138.907 494.342 139.135C494.518 139.356 494.601 139.676 494.594 140.095C494.601 140.483 494.502 140.822 494.297 141.112C494.099 141.394 493.817 141.615 493.451 141.775C493.085 141.935 492.651 142.015 492.149 142.015ZM497.455 142.015C496.99 142.015 496.602 141.935 496.29 141.775C495.985 141.615 495.756 141.398 495.604 141.123C495.452 140.849 495.376 140.552 495.376 140.232C495.376 139.874 495.463 139.562 495.638 139.295C495.821 139.028 496.092 138.819 496.45 138.667C496.815 138.507 497.272 138.427 497.821 138.427H499.215C499.215 138.13 499.184 137.886 499.123 137.695C499.062 137.497 498.952 137.353 498.792 137.261C498.632 137.162 498.411 137.113 498.129 137.113C497.847 137.113 497.611 137.174 497.421 137.295C497.238 137.41 497.12 137.589 497.067 137.833H495.57C495.615 137.429 495.749 137.082 495.97 136.793C496.191 136.496 496.488 136.267 496.861 136.107C497.242 135.94 497.668 135.856 498.141 135.856C498.689 135.856 499.158 135.947 499.546 136.13C499.942 136.305 500.243 136.568 500.449 136.918C500.654 137.261 500.757 137.68 500.757 138.175V141.877H499.466L499.295 140.998C499.211 141.142 499.108 141.279 498.986 141.409C498.872 141.531 498.739 141.637 498.586 141.729C498.442 141.82 498.274 141.889 498.084 141.935C497.893 141.988 497.684 142.015 497.455 142.015ZM497.821 140.826C498.011 140.826 498.183 140.792 498.335 140.723C498.495 140.647 498.632 140.544 498.746 140.415C498.861 140.278 498.952 140.125 499.021 139.958C499.089 139.783 499.135 139.6 499.158 139.409V139.375H497.992C497.764 139.375 497.573 139.406 497.421 139.466C497.276 139.527 497.169 139.615 497.101 139.729C497.032 139.836 496.998 139.962 496.998 140.106C496.998 140.259 497.032 140.388 497.101 140.495C497.169 140.602 497.265 140.685 497.387 140.746C497.516 140.8 497.661 140.826 497.821 140.826ZM505.272 142.015C504.952 142.015 504.674 141.973 504.438 141.889C504.202 141.813 504 141.706 503.832 141.569C503.665 141.432 503.524 141.291 503.409 141.146L503.249 141.877H501.878V133.65H503.421V136.793C503.604 136.496 503.851 136.267 504.164 136.107C504.476 135.94 504.834 135.856 505.238 135.856C505.778 135.856 506.251 135.989 506.655 136.256C507.066 136.522 507.39 136.884 507.626 137.341C507.862 137.798 507.98 138.328 507.98 138.929C507.98 139.516 507.862 140.042 507.626 140.506C507.397 140.971 507.081 141.34 506.677 141.615C506.274 141.881 505.805 142.015 505.272 142.015ZM504.895 140.666C505.184 140.666 505.443 140.598 505.672 140.461C505.9 140.316 506.079 140.114 506.209 139.855C506.338 139.596 506.403 139.291 506.403 138.941C506.403 138.59 506.338 138.286 506.209 138.027C506.079 137.76 505.9 137.554 505.672 137.41C505.443 137.265 505.184 137.193 504.895 137.193C504.598 137.193 504.335 137.265 504.106 137.41C503.878 137.554 503.699 137.76 503.569 138.027C503.44 138.286 503.375 138.59 503.375 138.941C503.375 139.284 503.44 139.588 503.569 139.855C503.699 140.114 503.878 140.316 504.106 140.461C504.335 140.598 504.598 140.666 504.895 140.666ZM508.946 141.877V133.65H510.489V141.877H508.946ZM514.349 142.015C513.77 142.015 513.26 141.889 512.818 141.637C512.384 141.378 512.041 141.024 511.79 140.575C511.546 140.118 511.424 139.588 511.424 138.987C511.424 138.377 511.546 137.836 511.79 137.364C512.033 136.892 512.372 136.522 512.806 136.256C513.248 135.989 513.762 135.856 514.349 135.856C514.936 135.856 515.438 135.985 515.857 136.244C516.276 136.496 516.6 136.842 516.829 137.284C517.065 137.718 517.183 138.213 517.183 138.769C517.183 138.846 517.179 138.929 517.171 139.021C517.171 139.112 517.167 139.211 517.16 139.318H512.532V138.37H515.629C515.614 137.973 515.484 137.665 515.24 137.444C515.004 137.215 514.707 137.101 514.349 137.101C514.09 137.101 513.854 137.166 513.641 137.295C513.427 137.417 513.256 137.604 513.126 137.855C513.005 138.107 512.944 138.427 512.944 138.815V139.147C512.944 139.474 513.001 139.76 513.115 140.004C513.229 140.24 513.389 140.426 513.595 140.563C513.808 140.693 514.056 140.758 514.338 140.758C514.635 140.758 514.871 140.704 515.046 140.598C515.221 140.483 515.355 140.331 515.446 140.141H517.011C516.912 140.491 516.737 140.811 516.486 141.1C516.234 141.382 515.926 141.607 515.56 141.775C515.202 141.935 514.798 142.015 514.349 142.015Z" fill="white"/>
<path d="M491.443 128.796C491.152 128.504 491.124 128.042 491.377 127.717L493.175 125.41C493.502 124.99 494.136 124.99 494.463 125.41L496.261 127.717C496.514 128.042 496.486 128.504 496.195 128.796L494.396 130.594C494.077 130.913 493.561 130.913 493.242 130.594L491.443 128.796Z" fill="#C2B113"/>
</g>
<defs>
<filter id="filter0_d_2885_8983" x="0" y="18.9596" width="658" height="152.918" filterUnits="userSpaceOnUse" color-interpolation-filters="sRGB">
<feFlood flood-opacity="0" result="BackgroundImageFix"/>
<feColorMatrix in="SourceAlpha" type="matrix" values="0 0 0 0 0 0 0 0 0 0 0 0 0 0 0 0 0 0 127 0" result="hardAlpha"/>
<feOffset dx="8" dy="8"/>
<feGaussianBlur stdDeviation="8"/>
<feComposite in2="hardAlpha" operator="out"/>
<feColorMatrix type="matrix" values="0 0 0 0 0 0 0 0 0 0 0 0 0 0 0 0 0 0 0.04 0"/>
<feBlend mode="normal" in2="BackgroundImageFix" result="effect1_dropShadow_2885_8983"/>
<feBlend mode="normal" in="SourceGraphic" in2="effect1_dropShadow_2885_8983" result="shape"/>
</filter>
<clipPath id="clip0_2885_8983">
<rect width="19.588" height="19.588" fill="white" transform="translate(17.7939 45.3234)"/>
</clipPath>
<clipPath id="clip1_2885_8983">
<rect width="19.588" height="19.588" fill="white" transform="translate(17.7939 109.558)"/>
</clipPath>
</defs>
</svg>
