<svg width="186" height="83" viewBox="0 0 186 83" fill="none" xmlns="http://www.w3.org/2000/svg">
<path fill-rule="evenodd" clip-rule="evenodd" d="M61.8626 54.1606L61.8626 80.8132H70.3006V45.7383L61.8626 54.1606ZM0.112442 66.2251L0.112443 80.8132H8.93391V74.8751L0.112442 66.2251Z" fill="#FF3E37"/>
<path fill-rule="evenodd" clip-rule="evenodd" d="M70.4329 23.7319V36.0483L24.8158 81.1618L9.1959e-05 56.6201L9.15527e-05 44.3037L24.8158 68.8454L70.4329 23.7319Z" fill="#2400FD"/>
<path fill-rule="evenodd" clip-rule="evenodd" d="M70.4329 1.49609V13.8125L24.8154 58.9262L4.61827e-05 34.3848L4.57764e-05 22.0685L24.8154 46.6098L70.4329 1.49609Z" fill="#2400FD"/>
<mask id="path-4-outside-1_101_2734" maskUnits="userSpaceOnUse" x="85.8176" y="22.4497" width="101" height="59" fill="black">
<rect fill="white" x="85.8176" y="22.4497" width="101" height="59"/>
<path d="M91.0768 49.8007V30.9838L98.6009 49.8007H102.185L109.596 30.9838V49.8007H113.668V23.4497H108.639L100.458 44.049L92.0338 23.4497H86.8176V49.8007H91.0768Z"/>
<path d="M122.967 28.2826V23.4497H118.389V28.2826H122.967ZM122.836 49.8007V30.9838H118.539V49.8007H122.836Z"/>
<path d="M135.231 50.2233C137.483 50.2233 139.34 49.6353 140.823 48.4409C142.286 47.2648 143.168 45.7396 143.487 43.8469H139.659C138.965 45.7764 137.483 46.7503 135.231 46.7503C133.693 46.7503 132.473 46.3093 131.572 45.4089C130.653 44.5268 130.203 43.314 130.203 41.7888V41.7521H143.806C144.031 38.573 143.356 35.9453 141.798 33.8688C140.241 31.7923 138.008 30.7633 135.119 30.7633C132.398 30.7633 130.203 31.6637 128.514 33.4645C126.807 35.2654 125.962 37.6175 125.962 40.5393C125.962 43.5529 126.807 45.9234 128.495 47.6323C130.165 49.3597 132.417 50.2233 135.231 50.2233ZM130.315 38.2423C130.39 37.0662 130.878 36.0923 131.76 35.3389C132.642 34.5855 133.711 34.218 135.006 34.218C136.282 34.218 137.333 34.5855 138.177 35.3389C139.003 36.0923 139.434 37.0662 139.491 38.2423H130.315Z"/>
<path d="M154.119 50.2968C155.507 50.2968 156.689 50.0028 157.665 49.378C158.622 48.7716 159.372 48.1285 159.879 47.4302V49.8007H163.951V30.9838H159.879V40.4657C159.879 42.3585 159.41 43.8653 158.472 45.0046C157.534 46.1439 156.408 46.7135 155.076 46.7135C152.768 46.7135 151.267 45.2435 151.267 42.0828V30.9838H146.857V42.5422C146.857 44.9495 147.589 46.934 148.621 48.0366C149.128 48.5879 149.728 49.0289 150.422 49.378C151.773 50.0947 152.937 50.2968 154.119 50.2968Z"/>
<path d="M171.242 49.8007L175.877 43.5529L180.493 49.8007H185.334L178.222 40.3922L185.334 30.9838H180.493L175.914 37.2316L171.242 30.9838H166.383L173.532 40.3922L166.383 49.8007H171.242Z"/>
<path d="M101.083 80.2661L111.159 53.9151H106.843L99.1316 74.6982L91.4012 53.9151H87.0481L97.124 80.2661H101.083Z"/>
<path d="M120.008 80.4499C122.616 80.4499 124.83 79.5494 126.613 77.7302C128.395 75.9294 129.277 73.6324 129.277 70.8577C129.277 68.0462 128.395 65.7308 126.613 63.9116C124.83 62.0924 122.616 61.192 120.008 61.192C117.362 61.192 115.167 62.0924 113.385 63.9116C111.602 65.7308 110.701 68.0462 110.701 70.8577C110.701 73.6324 111.602 75.9294 113.385 77.7302C115.167 79.5494 117.362 80.4499 120.008 80.4499ZM119.97 76.7196C118.357 76.7196 117.1 76.1683 116.199 75.0657C115.28 73.9632 114.829 72.5666 114.829 70.8577C114.829 69.1303 115.298 67.7154 116.218 66.5945C117.137 65.4919 118.394 64.9406 120.008 64.9406C121.64 64.9406 122.935 65.4919 123.854 66.5945C124.774 67.7154 125.243 69.1487 125.243 70.8944C125.243 72.6034 124.774 73.9999 123.836 75.0841C122.898 76.1683 121.603 76.7196 119.97 76.7196Z"/>
<path d="M141.485 80.2661L141.522 76.7196H138.914C137.995 76.7196 137.376 76.5358 137.057 76.1867C136.738 75.8375 136.569 75.1944 136.569 74.2388V64.8304H141.485V61.4492H136.569V55.4219H132.572V61.4492H129.589V64.8304H132.572V75.2679C132.572 76.7196 133.06 77.914 134.055 78.8512C135.049 79.7883 136.306 80.2661 137.845 80.2661H141.485Z"/>
<path d="M151.478 80.6887C153.73 80.6887 155.588 80.1007 157.07 78.9063C158.533 77.7302 159.415 76.205 159.734 74.3123H155.907C155.212 76.2418 153.73 77.2157 151.478 77.2157C149.94 77.2157 148.72 76.7747 147.82 75.8743C146.9 74.9922 146.45 73.7794 146.45 72.2542V72.2175H160.053C160.278 69.0385 159.603 66.4107 158.046 64.3342C156.488 62.2578 154.255 61.2287 151.366 61.2287C148.645 61.2287 146.45 62.1291 144.761 63.93C143.054 65.7308 142.209 68.0829 142.209 71.0047C142.209 74.0183 143.054 76.3888 144.742 78.0978C146.412 79.8251 148.664 80.6887 151.478 80.6887ZM146.562 68.7077C146.638 67.5316 147.125 66.5577 148.007 65.8043C148.889 65.0509 149.959 64.6834 151.253 64.6834C152.529 64.6834 153.58 65.0509 154.424 65.8043C155.25 66.5577 155.681 67.5316 155.738 68.7077H146.562Z"/>
<path d="M167.251 80.2661V70.7474C167.251 67.0906 169.128 65.2714 172.861 65.3265H173.518V61.1552H172.636C171.529 61.1552 170.572 61.339 169.728 61.6881C168.884 62.0556 168.302 62.4048 167.983 62.7172C167.664 63.0479 167.42 63.3971 167.251 63.7462V61.4492H163.292V80.2661H167.251Z"/>
</mask>
<path d="M91.0768 49.8007V30.9838L98.6009 49.8007H102.185L109.596 30.9838V49.8007H113.668V23.4497H108.639L100.458 44.049L92.0338 23.4497H86.8176V49.8007H91.0768Z" fill="#0A004C"/>
<path d="M122.967 28.2826V23.4497H118.389V28.2826H122.967ZM122.836 49.8007V30.9838H118.539V49.8007H122.836Z" fill="#0A004C"/>
<path d="M135.231 50.2233C137.483 50.2233 139.34 49.6353 140.823 48.4409C142.286 47.2648 143.168 45.7396 143.487 43.8469H139.659C138.965 45.7764 137.483 46.7503 135.231 46.7503C133.693 46.7503 132.473 46.3093 131.572 45.4089C130.653 44.5268 130.203 43.314 130.203 41.7888V41.7521H143.806C144.031 38.573 143.356 35.9453 141.798 33.8688C140.241 31.7923 138.008 30.7633 135.119 30.7633C132.398 30.7633 130.203 31.6637 128.514 33.4645C126.807 35.2654 125.962 37.6175 125.962 40.5393C125.962 43.5529 126.807 45.9234 128.495 47.6323C130.165 49.3597 132.417 50.2233 135.231 50.2233ZM130.315 38.2423C130.39 37.0662 130.878 36.0923 131.76 35.3389C132.642 34.5855 133.711 34.218 135.006 34.218C136.282 34.218 137.333 34.5855 138.177 35.3389C139.003 36.0923 139.434 37.0662 139.491 38.2423H130.315Z" fill="#0A004C"/>
<path d="M154.119 50.2968C155.507 50.2968 156.689 50.0028 157.665 49.378C158.622 48.7716 159.372 48.1285 159.879 47.4302V49.8007H163.951V30.9838H159.879V40.4657C159.879 42.3585 159.41 43.8653 158.472 45.0046C157.534 46.1439 156.408 46.7135 155.076 46.7135C152.768 46.7135 151.267 45.2435 151.267 42.0828V30.9838H146.857V42.5422C146.857 44.9495 147.589 46.934 148.621 48.0366C149.128 48.5879 149.728 49.0289 150.422 49.378C151.773 50.0947 152.937 50.2968 154.119 50.2968Z" fill="#0A004C"/>
<path d="M171.242 49.8007L175.877 43.5529L180.493 49.8007H185.334L178.222 40.3922L185.334 30.9838H180.493L175.914 37.2316L171.242 30.9838H166.383L173.532 40.3922L166.383 49.8007H171.242Z" fill="#0A004C"/>
<path d="M101.083 80.2661L111.159 53.9151H106.843L99.1316 74.6982L91.4012 53.9151H87.0481L97.124 80.2661H101.083Z" fill="#0A004C"/>
<path d="M120.008 80.4499C122.616 80.4499 124.83 79.5494 126.613 77.7302C128.395 75.9294 129.277 73.6324 129.277 70.8577C129.277 68.0462 128.395 65.7308 126.613 63.9116C124.83 62.0924 122.616 61.192 120.008 61.192C117.362 61.192 115.167 62.0924 113.385 63.9116C111.602 65.7308 110.701 68.0462 110.701 70.8577C110.701 73.6324 111.602 75.9294 113.385 77.7302C115.167 79.5494 117.362 80.4499 120.008 80.4499ZM119.97 76.7196C118.357 76.7196 117.1 76.1683 116.199 75.0657C115.28 73.9632 114.829 72.5666 114.829 70.8577C114.829 69.1303 115.298 67.7154 116.218 66.5945C117.137 65.4919 118.394 64.9406 120.008 64.9406C121.64 64.9406 122.935 65.4919 123.854 66.5945C124.774 67.7154 125.243 69.1487 125.243 70.8944C125.243 72.6034 124.774 73.9999 123.836 75.0841C122.898 76.1683 121.603 76.7196 119.97 76.7196Z" fill="#0A004C"/>
<path d="M141.485 80.2661L141.522 76.7196H138.914C137.995 76.7196 137.376 76.5358 137.057 76.1867C136.738 75.8375 136.569 75.1944 136.569 74.2388V64.8304H141.485V61.4492H136.569V55.4219H132.572V61.4492H129.589V64.8304H132.572V75.2679C132.572 76.7196 133.06 77.914 134.055 78.8512C135.049 79.7883 136.306 80.2661 137.845 80.2661H141.485Z" fill="#0A004C"/>
<path d="M151.478 80.6887C153.73 80.6887 155.588 80.1007 157.07 78.9063C158.533 77.7302 159.415 76.205 159.734 74.3123H155.907C155.212 76.2418 153.73 77.2157 151.478 77.2157C149.94 77.2157 148.72 76.7747 147.82 75.8743C146.9 74.9922 146.45 73.7794 146.45 72.2542V72.2175H160.053C160.278 69.0385 159.603 66.4107 158.046 64.3342C156.488 62.2578 154.255 61.2287 151.366 61.2287C148.645 61.2287 146.45 62.1291 144.761 63.93C143.054 65.7308 142.209 68.0829 142.209 71.0047C142.209 74.0183 143.054 76.3888 144.742 78.0978C146.412 79.8251 148.664 80.6887 151.478 80.6887ZM146.562 68.7077C146.638 67.5316 147.125 66.5577 148.007 65.8043C148.889 65.0509 149.959 64.6834 151.253 64.6834C152.529 64.6834 153.58 65.0509 154.424 65.8043C155.25 66.5577 155.681 67.5316 155.738 68.7077H146.562Z" fill="#0A004C"/>
<path d="M167.251 80.2661V70.7474C167.251 67.0906 169.128 65.2714 172.861 65.3265H173.518V61.1552H172.636C171.529 61.1552 170.572 61.339 169.728 61.6881C168.884 62.0556 168.302 62.4048 167.983 62.7172C167.664 63.0479 167.42 63.3971 167.251 63.7462V61.4492H163.292V80.2661H167.251Z" fill="#0A004C"/>
<path d="M91.0768 49.8007V30.9838L98.6009 49.8007H102.185L109.596 30.9838V49.8007H113.668V23.4497H108.639L100.458 44.049L92.0338 23.4497H86.8176V49.8007H91.0768Z" stroke="#0A004C" stroke-width="0.509302" mask="url(#path-4-outside-1_101_2734)"/>
<path d="M122.967 28.2826V23.4497H118.389V28.2826H122.967ZM122.836 49.8007V30.9838H118.539V49.8007H122.836Z" stroke="#0A004C" stroke-width="0.509302" mask="url(#path-4-outside-1_101_2734)"/>
<path d="M135.231 50.2233C137.483 50.2233 139.34 49.6353 140.823 48.4409C142.286 47.2648 143.168 45.7396 143.487 43.8469H139.659C138.965 45.7764 137.483 46.7503 135.231 46.7503C133.693 46.7503 132.473 46.3093 131.572 45.4089C130.653 44.5268 130.203 43.314 130.203 41.7888V41.7521H143.806C144.031 38.573 143.356 35.9453 141.798 33.8688C140.241 31.7923 138.008 30.7633 135.119 30.7633C132.398 30.7633 130.203 31.6637 128.514 33.4645C126.807 35.2654 125.962 37.6175 125.962 40.5393C125.962 43.5529 126.807 45.9234 128.495 47.6323C130.165 49.3597 132.417 50.2233 135.231 50.2233ZM130.315 38.2423C130.39 37.0662 130.878 36.0923 131.76 35.3389C132.642 34.5855 133.711 34.218 135.006 34.218C136.282 34.218 137.333 34.5855 138.177 35.3389C139.003 36.0923 139.434 37.0662 139.491 38.2423H130.315Z" stroke="#0A004C" stroke-width="0.509302" mask="url(#path-4-outside-1_101_2734)"/>
<path d="M154.119 50.2968C155.507 50.2968 156.689 50.0028 157.665 49.378C158.622 48.7716 159.372 48.1285 159.879 47.4302V49.8007H163.951V30.9838H159.879V40.4657C159.879 42.3585 159.41 43.8653 158.472 45.0046C157.534 46.1439 156.408 46.7135 155.076 46.7135C152.768 46.7135 151.267 45.2435 151.267 42.0828V30.9838H146.857V42.5422C146.857 44.9495 147.589 46.934 148.621 48.0366C149.128 48.5879 149.728 49.0289 150.422 49.378C151.773 50.0947 152.937 50.2968 154.119 50.2968Z" stroke="#0A004C" stroke-width="0.509302" mask="url(#path-4-outside-1_101_2734)"/>
<path d="M171.242 49.8007L175.877 43.5529L180.493 49.8007H185.334L178.222 40.3922L185.334 30.9838H180.493L175.914 37.2316L171.242 30.9838H166.383L173.532 40.3922L166.383 49.8007H171.242Z" stroke="#0A004C" stroke-width="0.509302" mask="url(#path-4-outside-1_101_2734)"/>
<path d="M101.083 80.2661L111.159 53.9151H106.843L99.1316 74.6982L91.4012 53.9151H87.0481L97.124 80.2661H101.083Z" stroke="#0A004C" stroke-width="0.509302" mask="url(#path-4-outside-1_101_2734)"/>
<path d="M120.008 80.4499C122.616 80.4499 124.83 79.5494 126.613 77.7302C128.395 75.9294 129.277 73.6324 129.277 70.8577C129.277 68.0462 128.395 65.7308 126.613 63.9116C124.83 62.0924 122.616 61.192 120.008 61.192C117.362 61.192 115.167 62.0924 113.385 63.9116C111.602 65.7308 110.701 68.0462 110.701 70.8577C110.701 73.6324 111.602 75.9294 113.385 77.7302C115.167 79.5494 117.362 80.4499 120.008 80.4499ZM119.97 76.7196C118.357 76.7196 117.1 76.1683 116.199 75.0657C115.28 73.9632 114.829 72.5666 114.829 70.8577C114.829 69.1303 115.298 67.7154 116.218 66.5945C117.137 65.4919 118.394 64.9406 120.008 64.9406C121.64 64.9406 122.935 65.4919 123.854 66.5945C124.774 67.7154 125.243 69.1487 125.243 70.8944C125.243 72.6034 124.774 73.9999 123.836 75.0841C122.898 76.1683 121.603 76.7196 119.97 76.7196Z" stroke="#0A004C" stroke-width="0.509302" mask="url(#path-4-outside-1_101_2734)"/>
<path d="M141.485 80.2661L141.522 76.7196H138.914C137.995 76.7196 137.376 76.5358 137.057 76.1867C136.738 75.8375 136.569 75.1944 136.569 74.2388V64.8304H141.485V61.4492H136.569V55.4219H132.572V61.4492H129.589V64.8304H132.572V75.2679C132.572 76.7196 133.06 77.914 134.055 78.8512C135.049 79.7883 136.306 80.2661 137.845 80.2661H141.485Z" stroke="#0A004C" stroke-width="0.509302" mask="url(#path-4-outside-1_101_2734)"/>
<path d="M151.478 80.6887C153.73 80.6887 155.588 80.1007 157.07 78.9063C158.533 77.7302 159.415 76.205 159.734 74.3123H155.907C155.212 76.2418 153.73 77.2157 151.478 77.2157C149.94 77.2157 148.72 76.7747 147.82 75.8743C146.9 74.9922 146.45 73.7794 146.45 72.2542V72.2175H160.053C160.278 69.0385 159.603 66.4107 158.046 64.3342C156.488 62.2578 154.255 61.2287 151.366 61.2287C148.645 61.2287 146.45 62.1291 144.761 63.93C143.054 65.7308 142.209 68.0829 142.209 71.0047C142.209 74.0183 143.054 76.3888 144.742 78.0978C146.412 79.8251 148.664 80.6887 151.478 80.6887ZM146.562 68.7077C146.638 67.5316 147.125 66.5577 148.007 65.8043C148.889 65.0509 149.959 64.6834 151.253 64.6834C152.529 64.6834 153.58 65.0509 154.424 65.8043C155.25 66.5577 155.681 67.5316 155.738 68.7077H146.562Z" stroke="#0A004C" stroke-width="0.509302" mask="url(#path-4-outside-1_101_2734)"/>
<path d="M167.251 80.2661V70.7474C167.251 67.0906 169.128 65.2714 172.861 65.3265H173.518V61.1552H172.636C171.529 61.1552 170.572 61.339 169.728 61.6881C168.884 62.0556 168.302 62.4048 167.983 62.7172C167.664 63.0479 167.42 63.3971 167.251 63.7462V61.4492H163.292V80.2661H167.251Z" stroke="#0A004C" stroke-width="0.509302" mask="url(#path-4-outside-1_101_2734)"/>
</svg>
