<svg width="78" height="46" viewBox="0 0 78 46" fill="none" xmlns="http://www.w3.org/2000/svg">
<mask id="path-1-outside-1_403_5369" maskUnits="userSpaceOnUse" x="-0.319336" y="-0.635742" width="79" height="47" fill="black">
<rect fill="white" x="-0.319336" y="-0.635742" width="79" height="47"/>
<path d="M4.00106 21.0006V6.26446L9.86659 21.0006H12.6604L18.4382 6.26446V21.0006H21.6123V0.364258H17.6922L11.3147 16.4963L4.74705 0.364258H0.680664V21.0006H4.00106Z"/>
<path d="M28.8619 4.14902V0.364258H25.2928V4.14902H28.8619ZM28.7595 21.0006V6.26446H25.4098V21.0006H28.7595Z"/>
<path d="M38.4225 21.3315C40.1778 21.3315 41.6259 20.871 42.7815 19.9356C43.9224 19.0146 44.6099 17.8202 44.8585 16.338H41.8746C41.3334 17.849 40.1778 18.6117 38.4225 18.6117C37.2231 18.6117 36.2723 18.2663 35.5702 17.5612C34.8535 16.8704 34.5024 15.9206 34.5024 14.7262V14.6974H45.1072C45.2827 12.2078 44.7561 10.15 43.5421 8.5238C42.328 6.89765 40.5874 6.09177 38.3348 6.09177C36.2138 6.09177 34.5024 6.79691 33.186 8.2072C31.8549 9.6175 31.1966 11.4595 31.1966 13.7476C31.1966 16.1077 31.8549 17.9641 33.1713 19.3025C34.4732 20.6552 36.2284 21.3315 38.4225 21.3315ZM34.5902 11.9488C34.6487 11.0278 35.029 10.2651 35.7165 9.67506C36.404 9.08504 37.2377 8.79722 38.247 8.79722C39.2417 8.79722 40.0608 9.08504 40.719 9.67506C41.3626 10.2651 41.699 11.0278 41.7429 11.9488H34.5902Z"/>
<path d="M53.1466 21.3891C54.229 21.3891 55.1506 21.1589 55.9112 20.6696C56.6572 20.1947 57.2423 19.691 57.6372 19.1442V21.0006H60.8113V6.26446H57.6372V13.6901C57.6372 15.1723 57.2715 16.3524 56.5401 17.2446C55.8088 18.1368 54.9311 18.5829 53.8926 18.5829C52.0935 18.5829 50.9233 17.4317 50.9233 14.9565V6.26446H47.4859V15.3162C47.4859 17.2014 48.0563 18.7556 48.8608 19.6191C49.2558 20.0508 49.7238 20.3962 50.265 20.6696C51.3182 21.2308 52.2251 21.3891 53.1466 21.3891Z"/>
<path d="M66.4958 21.0006L70.1087 16.1077L73.707 21.0006H77.4808L71.9371 13.6325L77.4808 6.26446H73.707L70.1379 11.1573L66.4958 6.26446H62.7073L68.2803 13.6325L62.7073 21.0006H66.4958Z"/>
<path d="M11.8016 44.859L19.6564 24.2227H16.2921L10.2803 40.4986L4.2539 24.2227H0.860371L8.71522 44.859H11.8016Z"/>
<path d="M26.5549 45.0029C28.5881 45.0029 30.3141 44.2978 31.7037 42.8731C33.0933 41.4628 33.7808 39.664 33.7808 37.491C33.7808 35.2892 33.0933 33.476 31.7037 32.0513C30.3141 30.6266 28.5881 29.9214 26.5549 29.9214C24.4925 29.9214 22.7811 30.6266 21.3915 32.0513C20.0019 33.476 19.2998 35.2892 19.2998 37.491C19.2998 39.664 20.0019 41.4628 21.3915 42.8731C22.7811 44.2978 24.4925 45.0029 26.5549 45.0029ZM26.5257 42.0816C25.2677 42.0816 24.2877 41.6499 23.5856 40.7864C22.8689 39.923 22.5178 38.8293 22.5178 37.491C22.5178 36.1382 22.8835 35.0302 23.6002 34.1523C24.317 33.2889 25.297 32.8572 26.5549 32.8572C27.8275 32.8572 28.8368 33.2889 29.5535 34.1523C30.2703 35.0302 30.6359 36.1526 30.6359 37.5197C30.6359 38.8581 30.2703 39.9518 29.5389 40.8008C28.8075 41.6499 27.7982 42.0816 26.5257 42.0816Z"/>
<path d="M43.2976 44.859L43.3268 42.0816H41.2936C40.5769 42.0816 40.0942 41.9377 39.8455 41.6643C39.5969 41.3909 39.4652 40.8872 39.4652 40.1389V32.7708H43.2976V30.1229H39.4652V25.4028H36.3496V30.1229H34.0239V32.7708H36.3496V40.9447C36.3496 42.0816 36.7299 43.017 37.5052 43.7509C38.2804 44.4849 39.2605 44.859 40.4599 44.859H43.2976Z"/>
<path d="M51.0884 45.19C52.8436 45.19 54.2917 44.7295 55.4473 43.7941C56.5882 42.8731 57.2757 41.6787 57.5244 40.1964H54.5404C53.9992 41.7075 52.8436 42.4702 51.0884 42.4702C49.8889 42.4702 48.9381 42.1248 48.236 41.4196C47.5193 40.7289 47.1682 39.7791 47.1682 38.5847V38.5559H57.773C57.9485 36.0663 57.422 34.0084 56.2079 32.3823C54.9938 30.7561 53.2532 29.9502 51.0006 29.9502C48.8796 29.9502 47.1682 30.6554 45.8518 32.0657C44.5207 33.476 43.8625 35.318 43.8625 37.6061C43.8625 39.9662 44.5207 41.8226 45.8372 43.1609C47.139 44.5136 48.8943 45.19 51.0884 45.19ZM47.256 35.8073C47.3145 34.8862 47.6948 34.1235 48.3823 33.5335C49.0698 32.9435 49.9035 32.6557 50.9128 32.6557C51.9075 32.6557 52.7266 32.9435 53.3848 33.5335C54.0284 34.1235 54.3649 34.8862 54.4087 35.8073H47.256Z"/>
<path d="M63.3843 44.859V37.4046C63.3843 34.5409 64.847 33.1162 67.7579 33.1594H68.2698V29.8927H67.5823C66.7193 29.8927 65.9733 30.0366 65.3151 30.31C64.6569 30.5978 64.2034 30.8712 63.9548 31.1159C63.7061 31.3749 63.516 31.6483 63.3843 31.9218V30.1229H60.298V44.859H63.3843Z"/>
</mask>
<path d="M4.00106 21.0006V6.26446L9.86659 21.0006H12.6604L18.4382 6.26446V21.0006H21.6123V0.364258H17.6922L11.3147 16.4963L4.74705 0.364258H0.680664V21.0006H4.00106Z" fill="#0A004C"/>
<path d="M28.8619 4.14902V0.364258H25.2928V4.14902H28.8619ZM28.7595 21.0006V6.26446H25.4098V21.0006H28.7595Z" fill="#0A004C"/>
<path d="M38.4225 21.3315C40.1778 21.3315 41.6259 20.871 42.7815 19.9356C43.9224 19.0146 44.6099 17.8202 44.8585 16.338H41.8746C41.3334 17.849 40.1778 18.6117 38.4225 18.6117C37.2231 18.6117 36.2723 18.2663 35.5702 17.5612C34.8535 16.8704 34.5024 15.9206 34.5024 14.7262V14.6974H45.1072C45.2827 12.2078 44.7561 10.15 43.5421 8.5238C42.328 6.89765 40.5874 6.09177 38.3348 6.09177C36.2138 6.09177 34.5024 6.79691 33.186 8.2072C31.8549 9.6175 31.1966 11.4595 31.1966 13.7476C31.1966 16.1077 31.8549 17.9641 33.1713 19.3025C34.4732 20.6552 36.2284 21.3315 38.4225 21.3315ZM34.5902 11.9488C34.6487 11.0278 35.029 10.2651 35.7165 9.67506C36.404 9.08504 37.2377 8.79722 38.247 8.79722C39.2417 8.79722 40.0608 9.08504 40.719 9.67506C41.3626 10.2651 41.699 11.0278 41.7429 11.9488H34.5902Z" fill="#0A004C"/>
<path d="M53.1466 21.3891C54.229 21.3891 55.1506 21.1589 55.9112 20.6696C56.6572 20.1947 57.2423 19.691 57.6372 19.1442V21.0006H60.8113V6.26446H57.6372V13.6901C57.6372 15.1723 57.2715 16.3524 56.5401 17.2446C55.8088 18.1368 54.9311 18.5829 53.8926 18.5829C52.0935 18.5829 50.9233 17.4317 50.9233 14.9565V6.26446H47.4859V15.3162C47.4859 17.2014 48.0563 18.7556 48.8608 19.6191C49.2558 20.0508 49.7238 20.3962 50.265 20.6696C51.3182 21.2308 52.2251 21.3891 53.1466 21.3891Z" fill="#0A004C"/>
<path d="M66.4958 21.0006L70.1087 16.1077L73.707 21.0006H77.4808L71.9371 13.6325L77.4808 6.26446H73.707L70.1379 11.1573L66.4958 6.26446H62.7073L68.2803 13.6325L62.7073 21.0006H66.4958Z" fill="#0A004C"/>
<path d="M11.8016 44.859L19.6564 24.2227H16.2921L10.2803 40.4986L4.2539 24.2227H0.860371L8.71522 44.859H11.8016Z" fill="#0A004C"/>
<path d="M26.5549 45.0029C28.5881 45.0029 30.3141 44.2978 31.7037 42.8731C33.0933 41.4628 33.7808 39.664 33.7808 37.491C33.7808 35.2892 33.0933 33.476 31.7037 32.0513C30.3141 30.6266 28.5881 29.9214 26.5549 29.9214C24.4925 29.9214 22.7811 30.6266 21.3915 32.0513C20.0019 33.476 19.2998 35.2892 19.2998 37.491C19.2998 39.664 20.0019 41.4628 21.3915 42.8731C22.7811 44.2978 24.4925 45.0029 26.5549 45.0029ZM26.5257 42.0816C25.2677 42.0816 24.2877 41.6499 23.5856 40.7864C22.8689 39.923 22.5178 38.8293 22.5178 37.491C22.5178 36.1382 22.8835 35.0302 23.6002 34.1523C24.317 33.2889 25.297 32.8572 26.5549 32.8572C27.8275 32.8572 28.8368 33.2889 29.5535 34.1523C30.2703 35.0302 30.6359 36.1526 30.6359 37.5197C30.6359 38.8581 30.2703 39.9518 29.5389 40.8008C28.8075 41.6499 27.7982 42.0816 26.5257 42.0816Z" fill="#0A004C"/>
<path d="M43.2976 44.859L43.3268 42.0816H41.2936C40.5769 42.0816 40.0942 41.9377 39.8455 41.6643C39.5969 41.3909 39.4652 40.8872 39.4652 40.1389V32.7708H43.2976V30.1229H39.4652V25.4028H36.3496V30.1229H34.0239V32.7708H36.3496V40.9447C36.3496 42.0816 36.7299 43.017 37.5052 43.7509C38.2804 44.4849 39.2605 44.859 40.4599 44.859H43.2976Z" fill="#0A004C"/>
<path d="M51.0884 45.19C52.8436 45.19 54.2917 44.7295 55.4473 43.7941C56.5882 42.8731 57.2757 41.6787 57.5244 40.1964H54.5404C53.9992 41.7075 52.8436 42.4702 51.0884 42.4702C49.8889 42.4702 48.9381 42.1248 48.236 41.4196C47.5193 40.7289 47.1682 39.7791 47.1682 38.5847V38.5559H57.773C57.9485 36.0663 57.422 34.0084 56.2079 32.3823C54.9938 30.7561 53.2532 29.9502 51.0006 29.9502C48.8796 29.9502 47.1682 30.6554 45.8518 32.0657C44.5207 33.476 43.8625 35.318 43.8625 37.6061C43.8625 39.9662 44.5207 41.8226 45.8372 43.1609C47.139 44.5136 48.8943 45.19 51.0884 45.19ZM47.256 35.8073C47.3145 34.8862 47.6948 34.1235 48.3823 33.5335C49.0698 32.9435 49.9035 32.6557 50.9128 32.6557C51.9075 32.6557 52.7266 32.9435 53.3848 33.5335C54.0284 34.1235 54.3649 34.8862 54.4087 35.8073H47.256Z" fill="#0A004C"/>
<path d="M63.3843 44.859V37.4046C63.3843 34.5409 64.847 33.1162 67.7579 33.1594H68.2698V29.8927H67.5823C66.7193 29.8927 65.9733 30.0366 65.3151 30.31C64.6569 30.5978 64.2034 30.8712 63.9548 31.1159C63.7061 31.3749 63.516 31.6483 63.3843 31.9218V30.1229H60.298V44.859H63.3843Z" fill="#0A004C"/>
<path d="M4.00106 21.0006V6.26446L9.86659 21.0006H12.6604L18.4382 6.26446V21.0006H21.6123V0.364258H17.6922L11.3147 16.4963L4.74705 0.364258H0.680664V21.0006H4.00106Z" stroke="#0A004C" stroke-width="0.509302" mask="url(#path-1-outside-1_403_5369)"/>
<path d="M28.8619 4.14902V0.364258H25.2928V4.14902H28.8619ZM28.7595 21.0006V6.26446H25.4098V21.0006H28.7595Z" stroke="#0A004C" stroke-width="0.509302" mask="url(#path-1-outside-1_403_5369)"/>
<path d="M38.4225 21.3315C40.1778 21.3315 41.6259 20.871 42.7815 19.9356C43.9224 19.0146 44.6099 17.8202 44.8585 16.338H41.8746C41.3334 17.849 40.1778 18.6117 38.4225 18.6117C37.2231 18.6117 36.2723 18.2663 35.5702 17.5612C34.8535 16.8704 34.5024 15.9206 34.5024 14.7262V14.6974H45.1072C45.2827 12.2078 44.7561 10.15 43.5421 8.5238C42.328 6.89765 40.5874 6.09177 38.3348 6.09177C36.2138 6.09177 34.5024 6.79691 33.186 8.2072C31.8549 9.6175 31.1966 11.4595 31.1966 13.7476C31.1966 16.1077 31.8549 17.9641 33.1713 19.3025C34.4732 20.6552 36.2284 21.3315 38.4225 21.3315ZM34.5902 11.9488C34.6487 11.0278 35.029 10.2651 35.7165 9.67506C36.404 9.08504 37.2377 8.79722 38.247 8.79722C39.2417 8.79722 40.0608 9.08504 40.719 9.67506C41.3626 10.2651 41.699 11.0278 41.7429 11.9488H34.5902Z" stroke="#0A004C" stroke-width="0.509302" mask="url(#path-1-outside-1_403_5369)"/>
<path d="M53.1466 21.3891C54.229 21.3891 55.1506 21.1589 55.9112 20.6696C56.6572 20.1947 57.2423 19.691 57.6372 19.1442V21.0006H60.8113V6.26446H57.6372V13.6901C57.6372 15.1723 57.2715 16.3524 56.5401 17.2446C55.8088 18.1368 54.9311 18.5829 53.8926 18.5829C52.0935 18.5829 50.9233 17.4317 50.9233 14.9565V6.26446H47.4859V15.3162C47.4859 17.2014 48.0563 18.7556 48.8608 19.6191C49.2558 20.0508 49.7238 20.3962 50.265 20.6696C51.3182 21.2308 52.2251 21.3891 53.1466 21.3891Z" stroke="#0A004C" stroke-width="0.509302" mask="url(#path-1-outside-1_403_5369)"/>
<path d="M66.4958 21.0006L70.1087 16.1077L73.707 21.0006H77.4808L71.9371 13.6325L77.4808 6.26446H73.707L70.1379 11.1573L66.4958 6.26446H62.7073L68.2803 13.6325L62.7073 21.0006H66.4958Z" stroke="#0A004C" stroke-width="0.509302" mask="url(#path-1-outside-1_403_5369)"/>
<path d="M11.8016 44.859L19.6564 24.2227H16.2921L10.2803 40.4986L4.2539 24.2227H0.860371L8.71522 44.859H11.8016Z" stroke="#0A004C" stroke-width="0.509302" mask="url(#path-1-outside-1_403_5369)"/>
<path d="M26.5549 45.0029C28.5881 45.0029 30.3141 44.2978 31.7037 42.8731C33.0933 41.4628 33.7808 39.664 33.7808 37.491C33.7808 35.2892 33.0933 33.476 31.7037 32.0513C30.3141 30.6266 28.5881 29.9214 26.5549 29.9214C24.4925 29.9214 22.7811 30.6266 21.3915 32.0513C20.0019 33.476 19.2998 35.2892 19.2998 37.491C19.2998 39.664 20.0019 41.4628 21.3915 42.8731C22.7811 44.2978 24.4925 45.0029 26.5549 45.0029ZM26.5257 42.0816C25.2677 42.0816 24.2877 41.6499 23.5856 40.7864C22.8689 39.923 22.5178 38.8293 22.5178 37.491C22.5178 36.1382 22.8835 35.0302 23.6002 34.1523C24.317 33.2889 25.297 32.8572 26.5549 32.8572C27.8275 32.8572 28.8368 33.2889 29.5535 34.1523C30.2703 35.0302 30.6359 36.1526 30.6359 37.5197C30.6359 38.8581 30.2703 39.9518 29.5389 40.8008C28.8075 41.6499 27.7982 42.0816 26.5257 42.0816Z" stroke="#0A004C" stroke-width="0.509302" mask="url(#path-1-outside-1_403_5369)"/>
<path d="M43.2976 44.859L43.3268 42.0816H41.2936C40.5769 42.0816 40.0942 41.9377 39.8455 41.6643C39.5969 41.3909 39.4652 40.8872 39.4652 40.1389V32.7708H43.2976V30.1229H39.4652V25.4028H36.3496V30.1229H34.0239V32.7708H36.3496V40.9447C36.3496 42.0816 36.7299 43.017 37.5052 43.7509C38.2804 44.4849 39.2605 44.859 40.4599 44.859H43.2976Z" stroke="#0A004C" stroke-width="0.509302" mask="url(#path-1-outside-1_403_5369)"/>
<path d="M51.0884 45.19C52.8436 45.19 54.2917 44.7295 55.4473 43.7941C56.5882 42.8731 57.2757 41.6787 57.5244 40.1964H54.5404C53.9992 41.7075 52.8436 42.4702 51.0884 42.4702C49.8889 42.4702 48.9381 42.1248 48.236 41.4196C47.5193 40.7289 47.1682 39.7791 47.1682 38.5847V38.5559H57.773C57.9485 36.0663 57.422 34.0084 56.2079 32.3823C54.9938 30.7561 53.2532 29.9502 51.0006 29.9502C48.8796 29.9502 47.1682 30.6554 45.8518 32.0657C44.5207 33.476 43.8625 35.318 43.8625 37.6061C43.8625 39.9662 44.5207 41.8226 45.8372 43.1609C47.139 44.5136 48.8943 45.19 51.0884 45.19ZM47.256 35.8073C47.3145 34.8862 47.6948 34.1235 48.3823 33.5335C49.0698 32.9435 49.9035 32.6557 50.9128 32.6557C51.9075 32.6557 52.7266 32.9435 53.3848 33.5335C54.0284 34.1235 54.3649 34.8862 54.4087 35.8073H47.256Z" stroke="#0A004C" stroke-width="0.509302" mask="url(#path-1-outside-1_403_5369)"/>
<path d="M63.3843 44.859V37.4046C63.3843 34.5409 64.847 33.1162 67.7579 33.1594H68.2698V29.8927H67.5823C66.7193 29.8927 65.9733 30.0366 65.3151 30.31C64.6569 30.5978 64.2034 30.8712 63.9548 31.1159C63.7061 31.3749 63.516 31.6483 63.3843 31.9218V30.1229H60.298V44.859H63.3843Z" stroke="#0A004C" stroke-width="0.509302" mask="url(#path-1-outside-1_403_5369)"/>
</svg>
