<svg width="86" height="51" viewBox="0 0 86 51" fill="none" xmlns="http://www.w3.org/2000/svg">
<mask id="path-1-outside-1_403_1599" maskUnits="userSpaceOnUse" x="-0.318359" y="-0.65802" width="87" height="51" fill="black">
<rect fill="white" x="-0.318359" y="-0.65802" width="87" height="51"/>
<path d="M4.34552 23.2007V6.87758L10.8178 23.2007H13.9007L20.2761 6.87758V23.2007H23.7786V0.34198H19.453L12.4157 18.2113L5.16868 0.34198H0.681641V23.2007H4.34552Z"/>
<path d="M31.7781 4.53433V0.34198H27.8399V4.53433H31.7781ZM31.6651 23.2007V6.87758H27.969V23.2007H31.6651Z"/>
<path d="M42.3278 23.5673C44.2647 23.5673 45.8626 23.0572 47.1377 22.0211C48.3966 21.0009 49.1552 19.6778 49.4296 18.0359H46.137C45.5398 19.7097 44.2647 20.5545 42.3278 20.5545C41.0043 20.5545 39.9552 20.172 39.1804 19.3909C38.3896 18.6257 38.0022 17.5737 38.0022 16.2506V16.2187H49.704C49.8977 13.461 49.3166 11.1815 47.977 9.38024C46.6373 7.57897 44.7166 6.6863 42.231 6.6863C39.8906 6.6863 38.0022 7.46738 36.5495 9.02955C35.0808 10.5917 34.3544 12.6321 34.3544 15.1666C34.3544 17.7809 35.0808 19.8372 36.5334 21.3197C37.9699 22.8181 39.9068 23.5673 42.3278 23.5673ZM38.099 13.1741C38.1636 12.1539 38.5832 11.309 39.3418 10.6555C40.1004 10.0019 41.0204 9.68311 42.1341 9.68311C43.2317 9.68311 44.1356 10.0019 44.8619 10.6555C45.5721 11.309 45.9433 12.1539 45.9917 13.1741H38.099Z"/>
<path d="M58.5751 23.631C59.7695 23.631 60.7863 23.376 61.6256 22.834C62.4488 22.308 63.0944 21.7501 63.5302 21.1443V23.2007H67.0327V6.87758H63.5302V15.1029C63.5302 16.7448 63.1267 18.0519 62.3197 19.0402C61.5127 20.0285 60.5442 20.5227 59.3983 20.5227C57.413 20.5227 56.1218 19.2474 56.1218 16.5056V6.87758H52.3287V16.9042C52.3287 18.9924 52.9582 20.7139 53.846 21.6704C54.2817 22.1486 54.7982 22.5312 55.3954 22.834C56.5575 23.4557 57.5583 23.631 58.5751 23.631Z"/>
<path d="M73.3052 23.2007L77.2919 17.7809L81.2624 23.2007H85.4266L79.3094 15.0391L85.4266 6.87758H81.2624L77.3241 12.2974L73.3052 6.87758H69.1248L75.2743 15.0391L69.1248 23.2007H73.3052Z"/>
<path d="M12.953 49.6285L21.6204 26.7698H17.9081L11.2744 44.7985L4.62452 26.7698H0.879937L9.54735 49.6285H12.953Z"/>
<path d="M29.2325 49.7879C31.4761 49.7879 33.3806 49.0068 34.914 47.4287C36.4473 45.8665 37.2059 43.874 37.2059 41.4669C37.2059 39.0281 36.4473 37.0196 34.914 35.4414C33.3806 33.8633 31.4761 33.0822 29.2325 33.0822C26.9567 33.0822 25.0683 33.8633 23.535 35.4414C22.0016 37.0196 21.2269 39.0281 21.2269 41.4669C21.2269 43.874 22.0016 45.8665 23.535 47.4287C25.0683 49.0068 26.9567 49.7879 29.2325 49.7879ZM29.2003 46.552C27.8122 46.552 26.7308 46.0738 25.956 45.1173C25.1652 44.1609 24.7778 42.9494 24.7778 41.4669C24.7778 39.9685 25.1813 38.7411 25.9722 37.7688C26.7631 36.8123 27.8445 36.3341 29.2325 36.3341C30.6368 36.3341 31.7505 36.8123 32.5413 37.7688C33.3322 38.7411 33.7357 39.9845 33.7357 41.4988C33.7357 42.9813 33.3322 44.1928 32.5252 45.1333C31.7182 46.0738 30.6045 46.552 29.2003 46.552Z"/>
<path d="M47.7072 49.6285L47.7395 46.552H45.496C44.7051 46.552 44.1724 46.3926 43.8981 46.0897C43.6237 45.7868 43.4784 45.2289 43.4784 44.4V36.2385H47.7072V33.3054H43.4784V28.0769H40.0405V33.3054H37.4742V36.2385H40.0405V45.2927C40.0405 46.552 40.4601 47.5881 41.3156 48.4011C42.171 49.214 43.2524 49.6285 44.576 49.6285H47.7072Z"/>
<path d="M56.3039 49.9951C58.2408 49.9951 59.8387 49.485 61.1138 48.4489C62.3727 47.4287 63.1313 46.1056 63.4057 44.4638H60.1131C59.5159 46.1375 58.2408 46.9824 56.3039 46.9824C54.9804 46.9824 53.9313 46.5998 53.1565 45.8187C52.3656 45.0536 51.9783 44.0015 51.9783 42.6784V42.6465H63.6801C63.8738 39.8888 63.2927 37.6093 61.9531 35.8081C60.6134 34.0068 58.6927 33.1141 56.2071 33.1141C53.8667 33.1141 51.9783 33.8952 50.5256 35.4574C49.0569 37.0196 48.3305 39.0599 48.3305 41.5945C48.3305 44.2087 49.0569 46.265 50.5095 47.7475C51.946 49.2459 53.8828 49.9951 56.3039 49.9951ZM52.0751 39.6019C52.1397 38.5817 52.5593 37.7369 53.3179 37.0833C54.0765 36.4298 54.9965 36.1109 56.1102 36.1109C57.2078 36.1109 58.1116 36.4298 58.838 37.0833C59.5481 37.7369 59.9194 38.5817 59.9678 39.6019H52.0751Z"/>
<path d="M69.8719 49.6285V41.3713C69.8719 38.1991 71.4859 36.621 74.6979 36.6689H75.2628V33.0504H74.5042C73.5519 33.0504 72.7287 33.2098 72.0024 33.5126C71.2761 33.8315 70.7757 34.1343 70.5014 34.4053C70.227 34.6922 70.0171 34.9951 69.8719 35.298V33.3054H66.4662V49.6285H69.8719Z"/>
</mask>
<path d="M4.34552 23.2007V6.87758L10.8178 23.2007H13.9007L20.2761 6.87758V23.2007H23.7786V0.34198H19.453L12.4157 18.2113L5.16868 0.34198H0.681641V23.2007H4.34552Z" fill="black"/>
<path d="M31.7781 4.53433V0.34198H27.8399V4.53433H31.7781ZM31.6651 23.2007V6.87758H27.969V23.2007H31.6651Z" fill="black"/>
<path d="M42.3278 23.5673C44.2647 23.5673 45.8626 23.0572 47.1377 22.0211C48.3966 21.0009 49.1552 19.6778 49.4296 18.0359H46.137C45.5398 19.7097 44.2647 20.5545 42.3278 20.5545C41.0043 20.5545 39.9552 20.172 39.1804 19.3909C38.3896 18.6257 38.0022 17.5737 38.0022 16.2506V16.2187H49.704C49.8977 13.461 49.3166 11.1815 47.977 9.38024C46.6373 7.57897 44.7166 6.6863 42.231 6.6863C39.8906 6.6863 38.0022 7.46738 36.5495 9.02955C35.0808 10.5917 34.3544 12.6321 34.3544 15.1666C34.3544 17.7809 35.0808 19.8372 36.5334 21.3197C37.9699 22.8181 39.9068 23.5673 42.3278 23.5673ZM38.099 13.1741C38.1636 12.1539 38.5832 11.309 39.3418 10.6555C40.1004 10.0019 41.0204 9.68311 42.1341 9.68311C43.2317 9.68311 44.1356 10.0019 44.8619 10.6555C45.5721 11.309 45.9433 12.1539 45.9917 13.1741H38.099Z" fill="black"/>
<path d="M58.5751 23.631C59.7695 23.631 60.7863 23.376 61.6256 22.834C62.4488 22.308 63.0944 21.7501 63.5302 21.1443V23.2007H67.0327V6.87758H63.5302V15.1029C63.5302 16.7448 63.1267 18.0519 62.3197 19.0402C61.5127 20.0285 60.5442 20.5227 59.3983 20.5227C57.413 20.5227 56.1218 19.2474 56.1218 16.5056V6.87758H52.3287V16.9042C52.3287 18.9924 52.9582 20.7139 53.846 21.6704C54.2817 22.1486 54.7982 22.5312 55.3954 22.834C56.5575 23.4557 57.5583 23.631 58.5751 23.631Z" fill="black"/>
<path d="M73.3052 23.2007L77.2919 17.7809L81.2624 23.2007H85.4266L79.3094 15.0391L85.4266 6.87758H81.2624L77.3241 12.2974L73.3052 6.87758H69.1248L75.2743 15.0391L69.1248 23.2007H73.3052Z" fill="black"/>
<path d="M12.953 49.6285L21.6204 26.7698H17.9081L11.2744 44.7985L4.62452 26.7698H0.879937L9.54735 49.6285H12.953Z" fill="black"/>
<path d="M29.2325 49.7879C31.4761 49.7879 33.3806 49.0068 34.914 47.4287C36.4473 45.8665 37.2059 43.874 37.2059 41.4669C37.2059 39.0281 36.4473 37.0196 34.914 35.4414C33.3806 33.8633 31.4761 33.0822 29.2325 33.0822C26.9567 33.0822 25.0683 33.8633 23.535 35.4414C22.0016 37.0196 21.2269 39.0281 21.2269 41.4669C21.2269 43.874 22.0016 45.8665 23.535 47.4287C25.0683 49.0068 26.9567 49.7879 29.2325 49.7879ZM29.2003 46.552C27.8122 46.552 26.7308 46.0738 25.956 45.1173C25.1652 44.1609 24.7778 42.9494 24.7778 41.4669C24.7778 39.9685 25.1813 38.7411 25.9722 37.7688C26.7631 36.8123 27.8445 36.3341 29.2325 36.3341C30.6368 36.3341 31.7505 36.8123 32.5413 37.7688C33.3322 38.7411 33.7357 39.9845 33.7357 41.4988C33.7357 42.9813 33.3322 44.1928 32.5252 45.1333C31.7182 46.0738 30.6045 46.552 29.2003 46.552Z" fill="black"/>
<path d="M47.7072 49.6285L47.7395 46.552H45.496C44.7051 46.552 44.1724 46.3926 43.8981 46.0897C43.6237 45.7868 43.4784 45.2289 43.4784 44.4V36.2385H47.7072V33.3054H43.4784V28.0769H40.0405V33.3054H37.4742V36.2385H40.0405V45.2927C40.0405 46.552 40.4601 47.5881 41.3156 48.4011C42.171 49.214 43.2524 49.6285 44.576 49.6285H47.7072Z" fill="black"/>
<path d="M56.3039 49.9951C58.2408 49.9951 59.8387 49.485 61.1138 48.4489C62.3727 47.4287 63.1313 46.1056 63.4057 44.4638H60.1131C59.5159 46.1375 58.2408 46.9824 56.3039 46.9824C54.9804 46.9824 53.9313 46.5998 53.1565 45.8187C52.3656 45.0536 51.9783 44.0015 51.9783 42.6784V42.6465H63.6801C63.8738 39.8888 63.2927 37.6093 61.9531 35.8081C60.6134 34.0068 58.6927 33.1141 56.2071 33.1141C53.8667 33.1141 51.9783 33.8952 50.5256 35.4574C49.0569 37.0196 48.3305 39.0599 48.3305 41.5945C48.3305 44.2087 49.0569 46.265 50.5095 47.7475C51.946 49.2459 53.8828 49.9951 56.3039 49.9951ZM52.0751 39.6019C52.1397 38.5817 52.5593 37.7369 53.3179 37.0833C54.0765 36.4298 54.9965 36.1109 56.1102 36.1109C57.2078 36.1109 58.1116 36.4298 58.838 37.0833C59.5481 37.7369 59.9194 38.5817 59.9678 39.6019H52.0751Z" fill="black"/>
<path d="M69.8719 49.6285V41.3713C69.8719 38.1991 71.4859 36.621 74.6979 36.6689H75.2628V33.0504H74.5042C73.5519 33.0504 72.7287 33.2098 72.0024 33.5126C71.2761 33.8315 70.7757 34.1343 70.5014 34.4053C70.227 34.6922 70.0171 34.9951 69.8719 35.298V33.3054H66.4662V49.6285H69.8719Z" fill="black"/>
<path d="M4.34552 23.2007V6.87758L10.8178 23.2007H13.9007L20.2761 6.87758V23.2007H23.7786V0.34198H19.453L12.4157 18.2113L5.16868 0.34198H0.681641V23.2007H4.34552Z" stroke="black" stroke-width="0.509302" mask="url(#path-1-outside-1_403_1599)"/>
<path d="M31.7781 4.53433V0.34198H27.8399V4.53433H31.7781ZM31.6651 23.2007V6.87758H27.969V23.2007H31.6651Z" stroke="black" stroke-width="0.509302" mask="url(#path-1-outside-1_403_1599)"/>
<path d="M42.3278 23.5673C44.2647 23.5673 45.8626 23.0572 47.1377 22.0211C48.3966 21.0009 49.1552 19.6778 49.4296 18.0359H46.137C45.5398 19.7097 44.2647 20.5545 42.3278 20.5545C41.0043 20.5545 39.9552 20.172 39.1804 19.3909C38.3896 18.6257 38.0022 17.5737 38.0022 16.2506V16.2187H49.704C49.8977 13.461 49.3166 11.1815 47.977 9.38024C46.6373 7.57897 44.7166 6.6863 42.231 6.6863C39.8906 6.6863 38.0022 7.46738 36.5495 9.02955C35.0808 10.5917 34.3544 12.6321 34.3544 15.1666C34.3544 17.7809 35.0808 19.8372 36.5334 21.3197C37.9699 22.8181 39.9068 23.5673 42.3278 23.5673ZM38.099 13.1741C38.1636 12.1539 38.5832 11.309 39.3418 10.6555C40.1004 10.0019 41.0204 9.68311 42.1341 9.68311C43.2317 9.68311 44.1356 10.0019 44.8619 10.6555C45.5721 11.309 45.9433 12.1539 45.9917 13.1741H38.099Z" stroke="black" stroke-width="0.509302" mask="url(#path-1-outside-1_403_1599)"/>
<path d="M58.5751 23.631C59.7695 23.631 60.7863 23.376 61.6256 22.834C62.4488 22.308 63.0944 21.7501 63.5302 21.1443V23.2007H67.0327V6.87758H63.5302V15.1029C63.5302 16.7448 63.1267 18.0519 62.3197 19.0402C61.5127 20.0285 60.5442 20.5227 59.3983 20.5227C57.413 20.5227 56.1218 19.2474 56.1218 16.5056V6.87758H52.3287V16.9042C52.3287 18.9924 52.9582 20.7139 53.846 21.6704C54.2817 22.1486 54.7982 22.5312 55.3954 22.834C56.5575 23.4557 57.5583 23.631 58.5751 23.631Z" stroke="black" stroke-width="0.509302" mask="url(#path-1-outside-1_403_1599)"/>
<path d="M73.3052 23.2007L77.2919 17.7809L81.2624 23.2007H85.4266L79.3094 15.0391L85.4266 6.87758H81.2624L77.3241 12.2974L73.3052 6.87758H69.1248L75.2743 15.0391L69.1248 23.2007H73.3052Z" stroke="black" stroke-width="0.509302" mask="url(#path-1-outside-1_403_1599)"/>
<path d="M12.953 49.6285L21.6204 26.7698H17.9081L11.2744 44.7985L4.62452 26.7698H0.879937L9.54735 49.6285H12.953Z" stroke="black" stroke-width="0.509302" mask="url(#path-1-outside-1_403_1599)"/>
<path d="M29.2325 49.7879C31.4761 49.7879 33.3806 49.0068 34.914 47.4287C36.4473 45.8665 37.2059 43.874 37.2059 41.4669C37.2059 39.0281 36.4473 37.0196 34.914 35.4414C33.3806 33.8633 31.4761 33.0822 29.2325 33.0822C26.9567 33.0822 25.0683 33.8633 23.535 35.4414C22.0016 37.0196 21.2269 39.0281 21.2269 41.4669C21.2269 43.874 22.0016 45.8665 23.535 47.4287C25.0683 49.0068 26.9567 49.7879 29.2325 49.7879ZM29.2003 46.552C27.8122 46.552 26.7308 46.0738 25.956 45.1173C25.1652 44.1609 24.7778 42.9494 24.7778 41.4669C24.7778 39.9685 25.1813 38.7411 25.9722 37.7688C26.7631 36.8123 27.8445 36.3341 29.2325 36.3341C30.6368 36.3341 31.7505 36.8123 32.5413 37.7688C33.3322 38.7411 33.7357 39.9845 33.7357 41.4988C33.7357 42.9813 33.3322 44.1928 32.5252 45.1333C31.7182 46.0738 30.6045 46.552 29.2003 46.552Z" stroke="black" stroke-width="0.509302" mask="url(#path-1-outside-1_403_1599)"/>
<path d="M47.7072 49.6285L47.7395 46.552H45.496C44.7051 46.552 44.1724 46.3926 43.8981 46.0897C43.6237 45.7868 43.4784 45.2289 43.4784 44.4V36.2385H47.7072V33.3054H43.4784V28.0769H40.0405V33.3054H37.4742V36.2385H40.0405V45.2927C40.0405 46.552 40.4601 47.5881 41.3156 48.4011C42.171 49.214 43.2524 49.6285 44.576 49.6285H47.7072Z" stroke="black" stroke-width="0.509302" mask="url(#path-1-outside-1_403_1599)"/>
<path d="M56.3039 49.9951C58.2408 49.9951 59.8387 49.485 61.1138 48.4489C62.3727 47.4287 63.1313 46.1056 63.4057 44.4638H60.1131C59.5159 46.1375 58.2408 46.9824 56.3039 46.9824C54.9804 46.9824 53.9313 46.5998 53.1565 45.8187C52.3656 45.0536 51.9783 44.0015 51.9783 42.6784V42.6465H63.6801C63.8738 39.8888 63.2927 37.6093 61.9531 35.8081C60.6134 34.0068 58.6927 33.1141 56.2071 33.1141C53.8667 33.1141 51.9783 33.8952 50.5256 35.4574C49.0569 37.0196 48.3305 39.0599 48.3305 41.5945C48.3305 44.2087 49.0569 46.265 50.5095 47.7475C51.946 49.2459 53.8828 49.9951 56.3039 49.9951ZM52.0751 39.6019C52.1397 38.5817 52.5593 37.7369 53.3179 37.0833C54.0765 36.4298 54.9965 36.1109 56.1102 36.1109C57.2078 36.1109 58.1116 36.4298 58.838 37.0833C59.5481 37.7369 59.9194 38.5817 59.9678 39.6019H52.0751Z" stroke="black" stroke-width="0.509302" mask="url(#path-1-outside-1_403_1599)"/>
<path d="M69.8719 49.6285V41.3713C69.8719 38.1991 71.4859 36.621 74.6979 36.6689H75.2628V33.0504H74.5042C73.5519 33.0504 72.7287 33.2098 72.0024 33.5126C71.2761 33.8315 70.7757 34.1343 70.5014 34.4053C70.227 34.6922 70.0171 34.9951 69.8719 35.298V33.3054H66.4662V49.6285H69.8719Z" stroke="black" stroke-width="0.509302" mask="url(#path-1-outside-1_403_1599)"/>
</svg>
