<svg width="78" height="46" viewBox="0 0 78 46" fill="none" xmlns="http://www.w3.org/2000/svg">
<mask id="path-1-outside-1_403_23169" maskUnits="userSpaceOnUse" x="-0.319824" y="-0.635742" width="79" height="47" fill="black">
<rect fill="white" x="-0.319824" y="-0.635742" width="79" height="47"/>
<path d="M4.00057 21.0006V6.26446L9.86611 21.0006H12.6599L18.4377 6.26446V21.0006H21.6118V0.364258H17.6917L11.3142 16.4963L4.74656 0.364258H0.680176V21.0006H4.00057Z"/>
<path d="M28.8614 4.14902V0.364258H25.2923V4.14902H28.8614ZM28.759 21.0006V6.26446H25.4093V21.0006H28.759Z"/>
<path d="M38.422 21.3315C40.1773 21.3315 41.6254 20.871 42.781 19.9356C43.9219 19.0146 44.6094 17.8202 44.858 16.338H41.8741C41.3329 17.849 40.1773 18.6117 38.422 18.6117C37.2226 18.6117 36.2718 18.2663 35.5697 17.5612C34.853 16.8704 34.5019 15.9206 34.5019 14.7262V14.6974H45.1067C45.2822 12.2078 44.7556 10.15 43.5416 8.5238C42.3275 6.89765 40.5869 6.09177 38.3343 6.09177C36.2133 6.09177 34.5019 6.79691 33.1855 8.2072C31.8544 9.6175 31.1962 11.4595 31.1962 13.7476C31.1962 16.1077 31.8544 17.9641 33.1708 19.3025C34.4727 20.6552 36.2279 21.3315 38.422 21.3315ZM34.5897 11.9488C34.6482 11.0278 35.0285 10.2651 35.716 9.67506C36.4035 9.08504 37.2372 8.79722 38.2465 8.79722C39.2412 8.79722 40.0603 9.08504 40.7185 9.67506C41.3621 10.2651 41.6985 11.0278 41.7424 11.9488H34.5897Z"/>
<path d="M53.1461 21.3891C54.2285 21.3891 55.1501 21.1589 55.9107 20.6696C56.6567 20.1947 57.2418 19.691 57.6367 19.1442V21.0006H60.8108V6.26446H57.6367V13.6901C57.6367 15.1723 57.271 16.3524 56.5397 17.2446C55.8083 18.1368 54.9307 18.5829 53.8921 18.5829C52.093 18.5829 50.9228 17.4317 50.9228 14.9565V6.26446H47.4854V15.3162C47.4854 17.2014 48.0558 18.7556 48.8603 19.6191C49.2553 20.0508 49.7233 20.3962 50.2646 20.6696C51.3177 21.2308 52.2246 21.3891 53.1461 21.3891Z"/>
<path d="M66.4953 21.0006L70.1082 16.1077L73.7065 21.0006H77.4803L71.9366 13.6325L77.4803 6.26446H73.7065L70.1375 11.1573L66.4953 6.26446H62.7068L68.2798 13.6325L62.7068 21.0006H66.4953Z"/>
<path d="M11.8011 44.859L19.6559 24.2227H16.2917L10.2798 40.4986L4.25341 24.2227H0.859882L8.71473 44.859H11.8011Z"/>
<path d="M26.5544 45.0029C28.5876 45.0029 30.3136 44.2978 31.7032 42.8731C33.0928 41.4628 33.7803 39.664 33.7803 37.491C33.7803 35.2892 33.0928 33.476 31.7032 32.0513C30.3136 30.6266 28.5876 29.9214 26.5544 29.9214C24.492 29.9214 22.7806 30.6266 21.391 32.0513C20.0014 33.476 19.2993 35.2892 19.2993 37.491C19.2993 39.664 20.0014 41.4628 21.391 42.8731C22.7806 44.2978 24.492 45.0029 26.5544 45.0029ZM26.5252 42.0816C25.2672 42.0816 24.2872 41.6499 23.5851 40.7864C22.8684 39.923 22.5173 38.8293 22.5173 37.491C22.5173 36.1382 22.883 35.0302 23.5997 34.1523C24.3165 33.2889 25.2965 32.8572 26.5544 32.8572C27.827 32.8572 28.8363 33.2889 29.553 34.1523C30.2698 35.0302 30.6354 36.1526 30.6354 37.5197C30.6354 38.8581 30.2698 39.9518 29.5384 40.8008C28.807 41.6499 27.7978 42.0816 26.5252 42.0816Z"/>
<path d="M43.2971 44.859L43.3264 42.0816H41.2932C40.5764 42.0816 40.0937 41.9377 39.8451 41.6643C39.5964 41.3909 39.4648 40.8872 39.4648 40.1389V32.7708H43.2971V30.1229H39.4648V25.4028H36.3491V30.1229H34.0234V32.7708H36.3491V40.9447C36.3491 42.0816 36.7294 43.017 37.5047 43.7509C38.2799 44.4849 39.26 44.859 40.4594 44.859H43.2971Z"/>
<path d="M51.0879 45.19C52.8431 45.19 54.2912 44.7295 55.4468 43.7941C56.5877 42.8731 57.2752 41.6787 57.5239 40.1964H54.5399C53.9987 41.7075 52.8431 42.4702 51.0879 42.4702C49.8884 42.4702 48.9377 42.1248 48.2355 41.4196C47.5188 40.7289 47.1678 39.7791 47.1678 38.5847V38.5559H57.7725C57.9481 36.0663 57.4215 34.0084 56.2074 32.3823C54.9933 30.7561 53.2527 29.9502 51.0001 29.9502C48.8791 29.9502 47.1678 30.6554 45.8513 32.0657C44.5202 33.476 43.862 35.318 43.862 37.6061C43.862 39.9662 44.5202 41.8226 45.8367 43.1609C47.1385 44.5136 48.8938 45.19 51.0879 45.19ZM47.2555 35.8073C47.314 34.8862 47.6943 34.1235 48.3818 33.5335C49.0693 32.9435 49.9031 32.6557 50.9123 32.6557C51.907 32.6557 52.7261 32.9435 53.3843 33.5335C54.0279 34.1235 54.3644 34.8862 54.4083 35.8073H47.2555Z"/>
<path d="M63.3838 44.859V37.4046C63.3838 34.5409 64.8466 33.1162 67.7574 33.1594H68.2693V29.8927H67.5819C66.7189 29.8927 65.9729 30.0366 65.3146 30.31C64.6564 30.5978 64.203 30.8712 63.9543 31.1159C63.7056 31.3749 63.5155 31.6483 63.3838 31.9218V30.1229H60.2975V44.859H63.3838Z"/>
</mask>
<path d="M4.00057 21.0006V6.26446L9.86611 21.0006H12.6599L18.4377 6.26446V21.0006H21.6118V0.364258H17.6917L11.3142 16.4963L4.74656 0.364258H0.680176V21.0006H4.00057Z" fill="#0A004C"/>
<path d="M28.8614 4.14902V0.364258H25.2923V4.14902H28.8614ZM28.759 21.0006V6.26446H25.4093V21.0006H28.759Z" fill="#0A004C"/>
<path d="M38.422 21.3315C40.1773 21.3315 41.6254 20.871 42.781 19.9356C43.9219 19.0146 44.6094 17.8202 44.858 16.338H41.8741C41.3329 17.849 40.1773 18.6117 38.422 18.6117C37.2226 18.6117 36.2718 18.2663 35.5697 17.5612C34.853 16.8704 34.5019 15.9206 34.5019 14.7262V14.6974H45.1067C45.2822 12.2078 44.7556 10.15 43.5416 8.5238C42.3275 6.89765 40.5869 6.09177 38.3343 6.09177C36.2133 6.09177 34.5019 6.79691 33.1855 8.2072C31.8544 9.6175 31.1962 11.4595 31.1962 13.7476C31.1962 16.1077 31.8544 17.9641 33.1708 19.3025C34.4727 20.6552 36.2279 21.3315 38.422 21.3315ZM34.5897 11.9488C34.6482 11.0278 35.0285 10.2651 35.716 9.67506C36.4035 9.08504 37.2372 8.79722 38.2465 8.79722C39.2412 8.79722 40.0603 9.08504 40.7185 9.67506C41.3621 10.2651 41.6985 11.0278 41.7424 11.9488H34.5897Z" fill="#0A004C"/>
<path d="M53.1461 21.3891C54.2285 21.3891 55.1501 21.1589 55.9107 20.6696C56.6567 20.1947 57.2418 19.691 57.6367 19.1442V21.0006H60.8108V6.26446H57.6367V13.6901C57.6367 15.1723 57.271 16.3524 56.5397 17.2446C55.8083 18.1368 54.9307 18.5829 53.8921 18.5829C52.093 18.5829 50.9228 17.4317 50.9228 14.9565V6.26446H47.4854V15.3162C47.4854 17.2014 48.0558 18.7556 48.8603 19.6191C49.2553 20.0508 49.7233 20.3962 50.2646 20.6696C51.3177 21.2308 52.2246 21.3891 53.1461 21.3891Z" fill="#0A004C"/>
<path d="M66.4953 21.0006L70.1082 16.1077L73.7065 21.0006H77.4803L71.9366 13.6325L77.4803 6.26446H73.7065L70.1375 11.1573L66.4953 6.26446H62.7068L68.2798 13.6325L62.7068 21.0006H66.4953Z" fill="#0A004C"/>
<path d="M11.8011 44.859L19.6559 24.2227H16.2917L10.2798 40.4986L4.25341 24.2227H0.859882L8.71473 44.859H11.8011Z" fill="#0A004C"/>
<path d="M26.5544 45.0029C28.5876 45.0029 30.3136 44.2978 31.7032 42.8731C33.0928 41.4628 33.7803 39.664 33.7803 37.491C33.7803 35.2892 33.0928 33.476 31.7032 32.0513C30.3136 30.6266 28.5876 29.9214 26.5544 29.9214C24.492 29.9214 22.7806 30.6266 21.391 32.0513C20.0014 33.476 19.2993 35.2892 19.2993 37.491C19.2993 39.664 20.0014 41.4628 21.391 42.8731C22.7806 44.2978 24.492 45.0029 26.5544 45.0029ZM26.5252 42.0816C25.2672 42.0816 24.2872 41.6499 23.5851 40.7864C22.8684 39.923 22.5173 38.8293 22.5173 37.491C22.5173 36.1382 22.883 35.0302 23.5997 34.1523C24.3165 33.2889 25.2965 32.8572 26.5544 32.8572C27.827 32.8572 28.8363 33.2889 29.553 34.1523C30.2698 35.0302 30.6354 36.1526 30.6354 37.5197C30.6354 38.8581 30.2698 39.9518 29.5384 40.8008C28.807 41.6499 27.7978 42.0816 26.5252 42.0816Z" fill="#0A004C"/>
<path d="M43.2971 44.859L43.3264 42.0816H41.2932C40.5764 42.0816 40.0937 41.9377 39.8451 41.6643C39.5964 41.3909 39.4648 40.8872 39.4648 40.1389V32.7708H43.2971V30.1229H39.4648V25.4028H36.3491V30.1229H34.0234V32.7708H36.3491V40.9447C36.3491 42.0816 36.7294 43.017 37.5047 43.7509C38.2799 44.4849 39.26 44.859 40.4594 44.859H43.2971Z" fill="#0A004C"/>
<path d="M51.0879 45.19C52.8431 45.19 54.2912 44.7295 55.4468 43.7941C56.5877 42.8731 57.2752 41.6787 57.5239 40.1964H54.5399C53.9987 41.7075 52.8431 42.4702 51.0879 42.4702C49.8884 42.4702 48.9377 42.1248 48.2355 41.4196C47.5188 40.7289 47.1678 39.7791 47.1678 38.5847V38.5559H57.7725C57.9481 36.0663 57.4215 34.0084 56.2074 32.3823C54.9933 30.7561 53.2527 29.9502 51.0001 29.9502C48.8791 29.9502 47.1678 30.6554 45.8513 32.0657C44.5202 33.476 43.862 35.318 43.862 37.6061C43.862 39.9662 44.5202 41.8226 45.8367 43.1609C47.1385 44.5136 48.8938 45.19 51.0879 45.19ZM47.2555 35.8073C47.314 34.8862 47.6943 34.1235 48.3818 33.5335C49.0693 32.9435 49.9031 32.6557 50.9123 32.6557C51.907 32.6557 52.7261 32.9435 53.3843 33.5335C54.0279 34.1235 54.3644 34.8862 54.4083 35.8073H47.2555Z" fill="#0A004C"/>
<path d="M63.3838 44.859V37.4046C63.3838 34.5409 64.8466 33.1162 67.7574 33.1594H68.2693V29.8927H67.5819C66.7189 29.8927 65.9729 30.0366 65.3146 30.31C64.6564 30.5978 64.203 30.8712 63.9543 31.1159C63.7056 31.3749 63.5155 31.6483 63.3838 31.9218V30.1229H60.2975V44.859H63.3838Z" fill="#0A004C"/>
<path d="M4.00057 21.0006V6.26446L9.86611 21.0006H12.6599L18.4377 6.26446V21.0006H21.6118V0.364258H17.6917L11.3142 16.4963L4.74656 0.364258H0.680176V21.0006H4.00057Z" stroke="#0A004C" stroke-width="0.509302" mask="url(#path-1-outside-1_403_23169)"/>
<path d="M28.8614 4.14902V0.364258H25.2923V4.14902H28.8614ZM28.759 21.0006V6.26446H25.4093V21.0006H28.759Z" stroke="#0A004C" stroke-width="0.509302" mask="url(#path-1-outside-1_403_23169)"/>
<path d="M38.422 21.3315C40.1773 21.3315 41.6254 20.871 42.781 19.9356C43.9219 19.0146 44.6094 17.8202 44.858 16.338H41.8741C41.3329 17.849 40.1773 18.6117 38.422 18.6117C37.2226 18.6117 36.2718 18.2663 35.5697 17.5612C34.853 16.8704 34.5019 15.9206 34.5019 14.7262V14.6974H45.1067C45.2822 12.2078 44.7556 10.15 43.5416 8.5238C42.3275 6.89765 40.5869 6.09177 38.3343 6.09177C36.2133 6.09177 34.5019 6.79691 33.1855 8.2072C31.8544 9.6175 31.1962 11.4595 31.1962 13.7476C31.1962 16.1077 31.8544 17.9641 33.1708 19.3025C34.4727 20.6552 36.2279 21.3315 38.422 21.3315ZM34.5897 11.9488C34.6482 11.0278 35.0285 10.2651 35.716 9.67506C36.4035 9.08504 37.2372 8.79722 38.2465 8.79722C39.2412 8.79722 40.0603 9.08504 40.7185 9.67506C41.3621 10.2651 41.6985 11.0278 41.7424 11.9488H34.5897Z" stroke="#0A004C" stroke-width="0.509302" mask="url(#path-1-outside-1_403_23169)"/>
<path d="M53.1461 21.3891C54.2285 21.3891 55.1501 21.1589 55.9107 20.6696C56.6567 20.1947 57.2418 19.691 57.6367 19.1442V21.0006H60.8108V6.26446H57.6367V13.6901C57.6367 15.1723 57.271 16.3524 56.5397 17.2446C55.8083 18.1368 54.9307 18.5829 53.8921 18.5829C52.093 18.5829 50.9228 17.4317 50.9228 14.9565V6.26446H47.4854V15.3162C47.4854 17.2014 48.0558 18.7556 48.8603 19.6191C49.2553 20.0508 49.7233 20.3962 50.2646 20.6696C51.3177 21.2308 52.2246 21.3891 53.1461 21.3891Z" stroke="#0A004C" stroke-width="0.509302" mask="url(#path-1-outside-1_403_23169)"/>
<path d="M66.4953 21.0006L70.1082 16.1077L73.7065 21.0006H77.4803L71.9366 13.6325L77.4803 6.26446H73.7065L70.1375 11.1573L66.4953 6.26446H62.7068L68.2798 13.6325L62.7068 21.0006H66.4953Z" stroke="#0A004C" stroke-width="0.509302" mask="url(#path-1-outside-1_403_23169)"/>
<path d="M11.8011 44.859L19.6559 24.2227H16.2917L10.2798 40.4986L4.25341 24.2227H0.859882L8.71473 44.859H11.8011Z" stroke="#0A004C" stroke-width="0.509302" mask="url(#path-1-outside-1_403_23169)"/>
<path d="M26.5544 45.0029C28.5876 45.0029 30.3136 44.2978 31.7032 42.8731C33.0928 41.4628 33.7803 39.664 33.7803 37.491C33.7803 35.2892 33.0928 33.476 31.7032 32.0513C30.3136 30.6266 28.5876 29.9214 26.5544 29.9214C24.492 29.9214 22.7806 30.6266 21.391 32.0513C20.0014 33.476 19.2993 35.2892 19.2993 37.491C19.2993 39.664 20.0014 41.4628 21.391 42.8731C22.7806 44.2978 24.492 45.0029 26.5544 45.0029ZM26.5252 42.0816C25.2672 42.0816 24.2872 41.6499 23.5851 40.7864C22.8684 39.923 22.5173 38.8293 22.5173 37.491C22.5173 36.1382 22.883 35.0302 23.5997 34.1523C24.3165 33.2889 25.2965 32.8572 26.5544 32.8572C27.827 32.8572 28.8363 33.2889 29.553 34.1523C30.2698 35.0302 30.6354 36.1526 30.6354 37.5197C30.6354 38.8581 30.2698 39.9518 29.5384 40.8008C28.807 41.6499 27.7978 42.0816 26.5252 42.0816Z" stroke="#0A004C" stroke-width="0.509302" mask="url(#path-1-outside-1_403_23169)"/>
<path d="M43.2971 44.859L43.3264 42.0816H41.2932C40.5764 42.0816 40.0937 41.9377 39.8451 41.6643C39.5964 41.3909 39.4648 40.8872 39.4648 40.1389V32.7708H43.2971V30.1229H39.4648V25.4028H36.3491V30.1229H34.0234V32.7708H36.3491V40.9447C36.3491 42.0816 36.7294 43.017 37.5047 43.7509C38.2799 44.4849 39.26 44.859 40.4594 44.859H43.2971Z" stroke="#0A004C" stroke-width="0.509302" mask="url(#path-1-outside-1_403_23169)"/>
<path d="M51.0879 45.19C52.8431 45.19 54.2912 44.7295 55.4468 43.7941C56.5877 42.8731 57.2752 41.6787 57.5239 40.1964H54.5399C53.9987 41.7075 52.8431 42.4702 51.0879 42.4702C49.8884 42.4702 48.9377 42.1248 48.2355 41.4196C47.5188 40.7289 47.1678 39.7791 47.1678 38.5847V38.5559H57.7725C57.9481 36.0663 57.4215 34.0084 56.2074 32.3823C54.9933 30.7561 53.2527 29.9502 51.0001 29.9502C48.8791 29.9502 47.1678 30.6554 45.8513 32.0657C44.5202 33.476 43.862 35.318 43.862 37.6061C43.862 39.9662 44.5202 41.8226 45.8367 43.1609C47.1385 44.5136 48.8938 45.19 51.0879 45.19ZM47.2555 35.8073C47.314 34.8862 47.6943 34.1235 48.3818 33.5335C49.0693 32.9435 49.9031 32.6557 50.9123 32.6557C51.907 32.6557 52.7261 32.9435 53.3843 33.5335C54.0279 34.1235 54.3644 34.8862 54.4083 35.8073H47.2555Z" stroke="#0A004C" stroke-width="0.509302" mask="url(#path-1-outside-1_403_23169)"/>
<path d="M63.3838 44.859V37.4046C63.3838 34.5409 64.8466 33.1162 67.7574 33.1594H68.2693V29.8927H67.5819C66.7189 29.8927 65.9729 30.0366 65.3146 30.31C64.6564 30.5978 64.203 30.8712 63.9543 31.1159C63.7056 31.3749 63.5155 31.6483 63.3838 31.9218V30.1229H60.2975V44.859H63.3838Z" stroke="#0A004C" stroke-width="0.509302" mask="url(#path-1-outside-1_403_23169)"/>
</svg>
