<svg width="86" height="51" viewBox="0 0 86 51" fill="none" xmlns="http://www.w3.org/2000/svg">
<mask id="path-1-outside-1_403_819" maskUnits="userSpaceOnUse" x="-0.318207" y="-0.65802" width="87" height="51" fill="black">
<rect fill="white" x="-0.318207" y="-0.65802" width="87" height="51"/>
<path d="M4.34567 23.2007V6.87758L10.818 23.2007H13.9008L20.2763 6.87758V23.2007H23.7788V0.34198H19.4531L12.4159 18.2113L5.16884 0.34198H0.681793V23.2007H4.34567Z"/>
<path d="M31.7783 4.53433V0.34198H27.84V4.53433H31.7783ZM31.6653 23.2007V6.87758H27.9691V23.2007H31.6653Z"/>
<path d="M42.328 23.5673C44.2648 23.5673 45.8627 23.0572 47.1378 22.0211C48.3968 21.0009 49.1554 19.6778 49.4298 18.0359H46.1371C45.5399 19.7097 44.2648 20.5545 42.328 20.5545C41.0045 20.5545 39.9553 20.172 39.1806 19.3909C38.3897 18.6257 38.0023 17.5737 38.0023 16.2506V16.2187H49.7042C49.8978 13.461 49.3168 11.1815 47.9771 9.38024C46.6375 7.57897 44.7168 6.6863 42.2311 6.6863C39.8908 6.6863 38.0023 7.46738 36.5497 9.02955C35.0809 10.5917 34.3546 12.6321 34.3546 15.1666C34.3546 17.7809 35.0809 19.8372 36.5336 21.3197C37.9701 22.8181 39.9069 23.5673 42.328 23.5673ZM38.0992 13.1741C38.1637 12.1539 38.5834 11.309 39.342 10.6555C40.1006 10.0019 41.0206 9.68311 42.1343 9.68311C43.2318 9.68311 44.1357 10.0019 44.862 10.6555C45.5722 11.309 45.9434 12.1539 45.9919 13.1741H38.0992Z"/>
<path d="M58.5753 23.631C59.7696 23.631 60.7865 23.376 61.6258 22.834C62.449 22.308 63.0946 21.7501 63.5304 21.1443V23.2007H67.0328V6.87758H63.5304V15.1029C63.5304 16.7448 63.1269 18.0519 62.3198 19.0402C61.5128 20.0285 60.5444 20.5227 59.3984 20.5227C57.4131 20.5227 56.1219 19.2474 56.1219 16.5056V6.87758H52.3289V16.9042C52.3289 18.9924 52.9584 20.7139 53.8461 21.6704C54.2819 22.1486 54.7984 22.5312 55.3956 22.834C56.5577 23.4557 57.5584 23.631 58.5753 23.631Z"/>
<path d="M73.3053 23.2007L77.292 17.7809L81.2626 23.2007H85.4268L79.3096 15.0391L85.4268 6.87758H81.2626L77.3243 12.2974L73.3053 6.87758H69.125L75.2745 15.0391L69.125 23.2007H73.3053Z"/>
<path d="M12.9531 49.6285L21.6206 26.7698H17.9083L11.2745 44.7985L4.62467 26.7698H0.88009L9.54751 49.6285H12.9531Z"/>
<path d="M29.2327 49.7879C31.4762 49.7879 33.3808 49.0068 34.9141 47.4287C36.4475 45.8665 37.2061 43.874 37.2061 41.4669C37.2061 39.0281 36.4475 37.0195 34.9141 35.4414C33.3808 33.8633 31.4762 33.0822 29.2327 33.0822C26.9569 33.0822 25.0685 33.8633 23.5351 35.4414C22.0018 37.0195 21.227 39.0281 21.227 41.4669C21.227 43.874 22.0018 45.8665 23.5351 47.4287C25.0685 49.0068 26.9569 49.7879 29.2327 49.7879ZM29.2004 46.552C27.8123 46.552 26.7309 46.0738 25.9562 45.1173C25.1653 44.1609 24.7779 42.9494 24.7779 41.4669C24.7779 39.9685 25.1814 38.7411 25.9723 37.7688C26.7632 36.8123 27.8446 36.3341 29.2327 36.3341C30.6369 36.3341 31.7506 36.8123 32.5415 37.7688C33.3324 38.7411 33.7359 39.9845 33.7359 41.4988C33.7359 42.9813 33.3324 44.1928 32.5253 45.1333C31.7183 46.0738 30.6046 46.552 29.2004 46.552Z"/>
<path d="M47.7074 49.6285L47.7396 46.552H45.4961C44.7052 46.552 44.1726 46.3926 43.8982 46.0897C43.6238 45.7868 43.4786 45.2289 43.4786 44.4V36.2385H47.7074V33.3054H43.4786V28.0769H40.0406V33.3054H37.4743V36.2385H40.0406V45.2927C40.0406 46.552 40.4603 47.5881 41.3157 48.4011C42.1712 49.214 43.2526 49.6285 44.5761 49.6285H47.7074Z"/>
<path d="M56.3041 49.9951C58.2409 49.9951 59.8388 49.485 61.1139 48.4489C62.3729 47.4287 63.1315 46.1056 63.4059 44.4638H60.1132C59.516 46.1375 58.2409 46.9824 56.3041 46.9824C54.9805 46.9824 53.9314 46.5998 53.1567 45.8187C52.3658 45.0536 51.9784 44.0015 51.9784 42.6784V42.6465H63.6802C63.8739 39.8888 63.2929 37.6093 61.9532 35.8081C60.6136 34.0068 58.6928 33.1141 56.2072 33.1141C53.8669 33.1141 51.9784 33.8952 50.5258 35.4574C49.057 37.0195 48.3307 39.0599 48.3307 41.5945C48.3307 44.2087 49.057 46.265 50.5096 47.7475C51.9461 49.2459 53.883 49.9951 56.3041 49.9951ZM52.0753 39.6019C52.1398 38.5817 52.5595 37.7369 53.3181 37.0833C54.0767 36.4298 54.9967 36.1109 56.1104 36.1109C57.2079 36.1109 58.1118 36.4298 58.8381 37.0833C59.5483 37.7369 59.9195 38.5817 59.9679 39.6019H52.0753Z"/>
<path d="M69.872 49.6285V41.3713C69.872 38.1991 71.4861 36.621 74.698 36.6689H75.2629V33.0504H74.5043C73.552 33.0504 72.7289 33.2098 72.0026 33.5126C71.2762 33.8315 70.7759 34.1343 70.5015 34.4053C70.2271 34.6922 70.0173 34.9951 69.872 35.298V33.3054H66.4664V49.6285H69.872Z"/>
</mask>
<path d="M4.34567 23.2007V6.87758L10.818 23.2007H13.9008L20.2763 6.87758V23.2007H23.7788V0.34198H19.4531L12.4159 18.2113L5.16884 0.34198H0.681793V23.2007H4.34567Z" fill="black"/>
<path d="M31.7783 4.53433V0.34198H27.84V4.53433H31.7783ZM31.6653 23.2007V6.87758H27.9691V23.2007H31.6653Z" fill="black"/>
<path d="M42.328 23.5673C44.2648 23.5673 45.8627 23.0572 47.1378 22.0211C48.3968 21.0009 49.1554 19.6778 49.4298 18.0359H46.1371C45.5399 19.7097 44.2648 20.5545 42.328 20.5545C41.0045 20.5545 39.9553 20.172 39.1806 19.3909C38.3897 18.6257 38.0023 17.5737 38.0023 16.2506V16.2187H49.7042C49.8978 13.461 49.3168 11.1815 47.9771 9.38024C46.6375 7.57897 44.7168 6.6863 42.2311 6.6863C39.8908 6.6863 38.0023 7.46738 36.5497 9.02955C35.0809 10.5917 34.3546 12.6321 34.3546 15.1666C34.3546 17.7809 35.0809 19.8372 36.5336 21.3197C37.9701 22.8181 39.9069 23.5673 42.328 23.5673ZM38.0992 13.1741C38.1637 12.1539 38.5834 11.309 39.342 10.6555C40.1006 10.0019 41.0206 9.68311 42.1343 9.68311C43.2318 9.68311 44.1357 10.0019 44.862 10.6555C45.5722 11.309 45.9434 12.1539 45.9919 13.1741H38.0992Z" fill="black"/>
<path d="M58.5753 23.631C59.7696 23.631 60.7865 23.376 61.6258 22.834C62.449 22.308 63.0946 21.7501 63.5304 21.1443V23.2007H67.0328V6.87758H63.5304V15.1029C63.5304 16.7448 63.1269 18.0519 62.3198 19.0402C61.5128 20.0285 60.5444 20.5227 59.3984 20.5227C57.4131 20.5227 56.1219 19.2474 56.1219 16.5056V6.87758H52.3289V16.9042C52.3289 18.9924 52.9584 20.7139 53.8461 21.6704C54.2819 22.1486 54.7984 22.5312 55.3956 22.834C56.5577 23.4557 57.5584 23.631 58.5753 23.631Z" fill="black"/>
<path d="M73.3053 23.2007L77.292 17.7809L81.2626 23.2007H85.4268L79.3096 15.0391L85.4268 6.87758H81.2626L77.3243 12.2974L73.3053 6.87758H69.125L75.2745 15.0391L69.125 23.2007H73.3053Z" fill="black"/>
<path d="M12.9531 49.6285L21.6206 26.7698H17.9083L11.2745 44.7985L4.62467 26.7698H0.88009L9.54751 49.6285H12.9531Z" fill="black"/>
<path d="M29.2327 49.7879C31.4762 49.7879 33.3808 49.0068 34.9141 47.4287C36.4475 45.8665 37.2061 43.874 37.2061 41.4669C37.2061 39.0281 36.4475 37.0195 34.9141 35.4414C33.3808 33.8633 31.4762 33.0822 29.2327 33.0822C26.9569 33.0822 25.0685 33.8633 23.5351 35.4414C22.0018 37.0195 21.227 39.0281 21.227 41.4669C21.227 43.874 22.0018 45.8665 23.5351 47.4287C25.0685 49.0068 26.9569 49.7879 29.2327 49.7879ZM29.2004 46.552C27.8123 46.552 26.7309 46.0738 25.9562 45.1173C25.1653 44.1609 24.7779 42.9494 24.7779 41.4669C24.7779 39.9685 25.1814 38.7411 25.9723 37.7688C26.7632 36.8123 27.8446 36.3341 29.2327 36.3341C30.6369 36.3341 31.7506 36.8123 32.5415 37.7688C33.3324 38.7411 33.7359 39.9845 33.7359 41.4988C33.7359 42.9813 33.3324 44.1928 32.5253 45.1333C31.7183 46.0738 30.6046 46.552 29.2004 46.552Z" fill="black"/>
<path d="M47.7074 49.6285L47.7396 46.552H45.4961C44.7052 46.552 44.1726 46.3926 43.8982 46.0897C43.6238 45.7868 43.4786 45.2289 43.4786 44.4V36.2385H47.7074V33.3054H43.4786V28.0769H40.0406V33.3054H37.4743V36.2385H40.0406V45.2927C40.0406 46.552 40.4603 47.5881 41.3157 48.4011C42.1712 49.214 43.2526 49.6285 44.5761 49.6285H47.7074Z" fill="black"/>
<path d="M56.3041 49.9951C58.2409 49.9951 59.8388 49.485 61.1139 48.4489C62.3729 47.4287 63.1315 46.1056 63.4059 44.4638H60.1132C59.516 46.1375 58.2409 46.9824 56.3041 46.9824C54.9805 46.9824 53.9314 46.5998 53.1567 45.8187C52.3658 45.0536 51.9784 44.0015 51.9784 42.6784V42.6465H63.6802C63.8739 39.8888 63.2929 37.6093 61.9532 35.8081C60.6136 34.0068 58.6928 33.1141 56.2072 33.1141C53.8669 33.1141 51.9784 33.8952 50.5258 35.4574C49.057 37.0195 48.3307 39.0599 48.3307 41.5945C48.3307 44.2087 49.057 46.265 50.5096 47.7475C51.9461 49.2459 53.883 49.9951 56.3041 49.9951ZM52.0753 39.6019C52.1398 38.5817 52.5595 37.7369 53.3181 37.0833C54.0767 36.4298 54.9967 36.1109 56.1104 36.1109C57.2079 36.1109 58.1118 36.4298 58.8381 37.0833C59.5483 37.7369 59.9195 38.5817 59.9679 39.6019H52.0753Z" fill="black"/>
<path d="M69.872 49.6285V41.3713C69.872 38.1991 71.4861 36.621 74.698 36.6689H75.2629V33.0504H74.5043C73.552 33.0504 72.7289 33.2098 72.0026 33.5126C71.2762 33.8315 70.7759 34.1343 70.5015 34.4053C70.2271 34.6922 70.0173 34.9951 69.872 35.298V33.3054H66.4664V49.6285H69.872Z" fill="black"/>
<path d="M4.34567 23.2007V6.87758L10.818 23.2007H13.9008L20.2763 6.87758V23.2007H23.7788V0.34198H19.4531L12.4159 18.2113L5.16884 0.34198H0.681793V23.2007H4.34567Z" stroke="black" stroke-width="0.509302" mask="url(#path-1-outside-1_403_819)"/>
<path d="M31.7783 4.53433V0.34198H27.84V4.53433H31.7783ZM31.6653 23.2007V6.87758H27.9691V23.2007H31.6653Z" stroke="black" stroke-width="0.509302" mask="url(#path-1-outside-1_403_819)"/>
<path d="M42.328 23.5673C44.2648 23.5673 45.8627 23.0572 47.1378 22.0211C48.3968 21.0009 49.1554 19.6778 49.4298 18.0359H46.1371C45.5399 19.7097 44.2648 20.5545 42.328 20.5545C41.0045 20.5545 39.9553 20.172 39.1806 19.3909C38.3897 18.6257 38.0023 17.5737 38.0023 16.2506V16.2187H49.7042C49.8978 13.461 49.3168 11.1815 47.9771 9.38024C46.6375 7.57897 44.7168 6.6863 42.2311 6.6863C39.8908 6.6863 38.0023 7.46738 36.5497 9.02955C35.0809 10.5917 34.3546 12.6321 34.3546 15.1666C34.3546 17.7809 35.0809 19.8372 36.5336 21.3197C37.9701 22.8181 39.9069 23.5673 42.328 23.5673ZM38.0992 13.1741C38.1637 12.1539 38.5834 11.309 39.342 10.6555C40.1006 10.0019 41.0206 9.68311 42.1343 9.68311C43.2318 9.68311 44.1357 10.0019 44.862 10.6555C45.5722 11.309 45.9434 12.1539 45.9919 13.1741H38.0992Z" stroke="black" stroke-width="0.509302" mask="url(#path-1-outside-1_403_819)"/>
<path d="M58.5753 23.631C59.7696 23.631 60.7865 23.376 61.6258 22.834C62.449 22.308 63.0946 21.7501 63.5304 21.1443V23.2007H67.0328V6.87758H63.5304V15.1029C63.5304 16.7448 63.1269 18.0519 62.3198 19.0402C61.5128 20.0285 60.5444 20.5227 59.3984 20.5227C57.4131 20.5227 56.1219 19.2474 56.1219 16.5056V6.87758H52.3289V16.9042C52.3289 18.9924 52.9584 20.7139 53.8461 21.6704C54.2819 22.1486 54.7984 22.5312 55.3956 22.834C56.5577 23.4557 57.5584 23.631 58.5753 23.631Z" stroke="black" stroke-width="0.509302" mask="url(#path-1-outside-1_403_819)"/>
<path d="M73.3053 23.2007L77.292 17.7809L81.2626 23.2007H85.4268L79.3096 15.0391L85.4268 6.87758H81.2626L77.3243 12.2974L73.3053 6.87758H69.125L75.2745 15.0391L69.125 23.2007H73.3053Z" stroke="black" stroke-width="0.509302" mask="url(#path-1-outside-1_403_819)"/>
<path d="M12.9531 49.6285L21.6206 26.7698H17.9083L11.2745 44.7985L4.62467 26.7698H0.88009L9.54751 49.6285H12.9531Z" stroke="black" stroke-width="0.509302" mask="url(#path-1-outside-1_403_819)"/>
<path d="M29.2327 49.7879C31.4762 49.7879 33.3808 49.0068 34.9141 47.4287C36.4475 45.8665 37.2061 43.874 37.2061 41.4669C37.2061 39.0281 36.4475 37.0195 34.9141 35.4414C33.3808 33.8633 31.4762 33.0822 29.2327 33.0822C26.9569 33.0822 25.0685 33.8633 23.5351 35.4414C22.0018 37.0195 21.227 39.0281 21.227 41.4669C21.227 43.874 22.0018 45.8665 23.5351 47.4287C25.0685 49.0068 26.9569 49.7879 29.2327 49.7879ZM29.2004 46.552C27.8123 46.552 26.7309 46.0738 25.9562 45.1173C25.1653 44.1609 24.7779 42.9494 24.7779 41.4669C24.7779 39.9685 25.1814 38.7411 25.9723 37.7688C26.7632 36.8123 27.8446 36.3341 29.2327 36.3341C30.6369 36.3341 31.7506 36.8123 32.5415 37.7688C33.3324 38.7411 33.7359 39.9845 33.7359 41.4988C33.7359 42.9813 33.3324 44.1928 32.5253 45.1333C31.7183 46.0738 30.6046 46.552 29.2004 46.552Z" stroke="black" stroke-width="0.509302" mask="url(#path-1-outside-1_403_819)"/>
<path d="M47.7074 49.6285L47.7396 46.552H45.4961C44.7052 46.552 44.1726 46.3926 43.8982 46.0897C43.6238 45.7868 43.4786 45.2289 43.4786 44.4V36.2385H47.7074V33.3054H43.4786V28.0769H40.0406V33.3054H37.4743V36.2385H40.0406V45.2927C40.0406 46.552 40.4603 47.5881 41.3157 48.4011C42.1712 49.214 43.2526 49.6285 44.5761 49.6285H47.7074Z" stroke="black" stroke-width="0.509302" mask="url(#path-1-outside-1_403_819)"/>
<path d="M56.3041 49.9951C58.2409 49.9951 59.8388 49.485 61.1139 48.4489C62.3729 47.4287 63.1315 46.1056 63.4059 44.4638H60.1132C59.516 46.1375 58.2409 46.9824 56.3041 46.9824C54.9805 46.9824 53.9314 46.5998 53.1567 45.8187C52.3658 45.0536 51.9784 44.0015 51.9784 42.6784V42.6465H63.6802C63.8739 39.8888 63.2929 37.6093 61.9532 35.8081C60.6136 34.0068 58.6928 33.1141 56.2072 33.1141C53.8669 33.1141 51.9784 33.8952 50.5258 35.4574C49.057 37.0195 48.3307 39.0599 48.3307 41.5945C48.3307 44.2087 49.057 46.265 50.5096 47.7475C51.9461 49.2459 53.883 49.9951 56.3041 49.9951ZM52.0753 39.6019C52.1398 38.5817 52.5595 37.7369 53.3181 37.0833C54.0767 36.4298 54.9967 36.1109 56.1104 36.1109C57.2079 36.1109 58.1118 36.4298 58.8381 37.0833C59.5483 37.7369 59.9195 38.5817 59.9679 39.6019H52.0753Z" stroke="black" stroke-width="0.509302" mask="url(#path-1-outside-1_403_819)"/>
<path d="M69.872 49.6285V41.3713C69.872 38.1991 71.4861 36.621 74.698 36.6689H75.2629V33.0504H74.5043C73.552 33.0504 72.7289 33.2098 72.0026 33.5126C71.2762 33.8315 70.7759 34.1343 70.5015 34.4053C70.2271 34.6922 70.0173 34.9951 69.872 35.298V33.3054H66.4664V49.6285H69.872Z" stroke="black" stroke-width="0.509302" mask="url(#path-1-outside-1_403_819)"/>
</svg>
