<svg width="61" height="36" viewBox="0 0 61 36" fill="none" xmlns="http://www.w3.org/2000/svg">
<mask id="path-1-outside-1_403_5279" maskUnits="userSpaceOnUse" x="-0.722656" y="0.126343" width="61" height="36" fill="black">
<rect fill="white" x="-0.722656" y="0.126343" width="61" height="36"/>
<path d="M2.84206 17.0004V5.66496L7.37268 17.0004H9.53066L13.9935 5.66496V17.0004H16.4452V1.12634H13.4173L8.49121 13.5356L3.41827 1.12634H0.277344V17.0004H2.84206Z"/>
<path d="M22.0449 4.0377V1.12634H19.2881V4.0377H22.0449ZM21.9658 17.0004V5.66496H19.3785V17.0004H21.9658Z"/>
<path d="M29.4297 17.255C30.7855 17.255 31.904 16.9008 32.7966 16.1813C33.6778 15.4728 34.2089 14.554 34.4009 13.4138H32.0961C31.678 14.5761 30.7855 15.1628 29.4297 15.1628C28.5032 15.1628 27.7688 14.8972 27.2265 14.3547C26.6729 13.8234 26.4017 13.0928 26.4017 12.174V12.1519H34.593C34.7286 10.2368 34.3218 8.6538 33.3841 7.40291C32.4463 6.15203 31.1018 5.53212 29.3619 5.53212C27.7236 5.53212 26.4017 6.07454 25.3849 7.15938C24.3567 8.24422 23.8483 9.66115 23.8483 11.4212C23.8483 13.2367 24.3567 14.6647 25.3736 15.6942C26.3791 16.7347 27.7349 17.255 29.4297 17.255ZM26.4695 10.0375C26.5147 9.32906 26.8085 8.74236 27.3395 8.2885C27.8705 7.83464 28.5145 7.61324 29.2941 7.61324C30.0624 7.61324 30.6951 7.83464 31.2035 8.2885C31.7006 8.74236 31.9605 9.32906 31.9944 10.0375H26.4695Z"/>
<path d="M40.8028 17.2993C41.6388 17.2993 42.3506 17.1222 42.9381 16.7458C43.5144 16.3805 43.9663 15.9931 44.2713 15.5724V17.0004H46.7231V5.66496H44.2713V11.377C44.2713 12.5172 43.9889 13.4249 43.424 14.1112C42.8591 14.7975 42.1812 15.1407 41.379 15.1407C39.9893 15.1407 39.0854 14.2551 39.0854 12.3511V5.66496H36.4303V12.6279C36.4303 14.078 36.871 15.2735 37.4924 15.9377C37.7974 16.2698 38.159 16.5355 38.577 16.7458C39.3905 17.1775 40.091 17.2993 40.8028 17.2993Z"/>
<path d="M51.1138 17.0004L53.9045 13.2367L56.6839 17.0004H59.5989L55.3168 11.3327L59.5989 5.66496H56.6839L53.9271 9.42869L51.1138 5.66496H48.1876L52.4922 11.3327L48.1876 17.0004H51.1138Z"/>
<path d="M8.86729 35.3531L14.9345 19.479H12.3359L7.69226 31.9989L3.03736 19.479H0.416152L6.48334 35.3531H8.86729Z"/>
<path d="M20.263 35.4638C21.8334 35.4638 23.1666 34.9214 24.24 33.8255C25.3133 32.7406 25.8443 31.3569 25.8443 29.6854C25.8443 27.9917 25.3133 26.5969 24.24 25.501C23.1666 24.4051 21.8334 23.8626 20.263 23.8626C18.6699 23.8626 17.348 24.4051 16.2747 25.501C15.2013 26.5969 14.659 27.9917 14.659 29.6854C14.659 31.3569 15.2013 32.7406 16.2747 33.8255C17.348 34.9214 18.6699 35.4638 20.263 35.4638ZM20.2404 33.2166C19.2687 33.2166 18.5117 32.8845 17.9694 32.2203C17.4158 31.5561 17.1446 30.7148 17.1446 29.6854C17.1446 28.6448 17.4271 27.7924 17.9807 27.1172C18.5343 26.453 19.2913 26.1209 20.263 26.1209C21.2459 26.1209 22.0255 26.453 22.5791 27.1172C23.1327 27.7924 23.4152 28.6559 23.4152 29.7075C23.4152 30.737 23.1327 31.5783 22.5678 32.2314C22.0029 32.8845 21.2233 33.2166 20.2404 33.2166Z"/>
<path d="M33.1952 35.3531L33.2178 33.2166H31.6474C31.0938 33.2166 30.7209 33.1059 30.5288 32.8956C30.3368 32.6853 30.2351 32.2978 30.2351 31.7222V26.0545H33.1952V24.0176H30.2351V20.3867H27.8285V24.0176H26.0321V26.0545H27.8285V32.3421C27.8285 33.2166 28.1223 33.9361 28.7211 34.5007C29.3199 35.0653 30.0769 35.3531 31.0034 35.3531H33.1952Z"/>
<path d="M39.2129 35.6077C40.5687 35.6077 41.6873 35.2535 42.5798 34.5339C43.4611 33.8255 43.9921 32.9067 44.1842 31.7665H41.8793C41.4613 32.9288 40.5687 33.5155 39.2129 33.5155C38.2865 33.5155 37.5521 33.2498 37.0098 32.7074C36.4561 32.1761 36.185 31.4454 36.185 30.5267V30.5045H44.3763C44.5118 28.5894 44.1051 27.0065 43.1673 25.7556C42.2296 24.5047 40.8851 23.8848 39.1451 23.8848C37.5069 23.8848 36.185 24.4272 35.1681 25.512C34.14 26.5969 33.6316 28.0138 33.6316 29.7739C33.6316 31.5894 34.14 33.0174 35.1568 34.0468C36.1624 35.0874 37.5182 35.6077 39.2129 35.6077ZM36.2528 28.3902C36.298 27.6817 36.5917 27.095 37.1227 26.6412C37.6538 26.1873 38.2978 25.9659 39.0774 25.9659C39.8456 25.9659 40.4783 26.1873 40.9868 26.6412C41.4839 27.095 41.7438 27.6817 41.7776 28.3902H36.2528Z"/>
<path d="M48.7105 35.3531V29.6189C48.7105 27.416 49.8403 26.3201 52.0887 26.3533H52.4841V23.8405H51.9531C51.2865 23.8405 50.7103 23.9512 50.2019 24.1615C49.6935 24.3829 49.3432 24.5932 49.1511 24.7814C48.9591 24.9807 48.8122 25.191 48.7105 25.4013V24.0176H46.3266V35.3531H48.7105Z"/>
</mask>
<path d="M2.84206 17.0004V5.66496L7.37268 17.0004H9.53066L13.9935 5.66496V17.0004H16.4452V1.12634H13.4173L8.49121 13.5356L3.41827 1.12634H0.277344V17.0004H2.84206Z" fill="black"/>
<path d="M22.0449 4.0377V1.12634H19.2881V4.0377H22.0449ZM21.9658 17.0004V5.66496H19.3785V17.0004H21.9658Z" fill="black"/>
<path d="M29.4297 17.255C30.7855 17.255 31.904 16.9008 32.7966 16.1813C33.6778 15.4728 34.2089 14.554 34.4009 13.4138H32.0961C31.678 14.5761 30.7855 15.1628 29.4297 15.1628C28.5032 15.1628 27.7688 14.8972 27.2265 14.3547C26.6729 13.8234 26.4017 13.0928 26.4017 12.174V12.1519H34.593C34.7286 10.2368 34.3218 8.6538 33.3841 7.40291C32.4463 6.15203 31.1018 5.53212 29.3619 5.53212C27.7236 5.53212 26.4017 6.07454 25.3849 7.15938C24.3567 8.24422 23.8483 9.66115 23.8483 11.4212C23.8483 13.2367 24.3567 14.6647 25.3736 15.6942C26.3791 16.7347 27.7349 17.255 29.4297 17.255ZM26.4695 10.0375C26.5147 9.32906 26.8085 8.74236 27.3395 8.2885C27.8705 7.83464 28.5145 7.61324 29.2941 7.61324C30.0624 7.61324 30.6951 7.83464 31.2035 8.2885C31.7006 8.74236 31.9605 9.32906 31.9944 10.0375H26.4695Z" fill="black"/>
<path d="M40.8028 17.2993C41.6388 17.2993 42.3506 17.1222 42.9381 16.7458C43.5144 16.3805 43.9663 15.9931 44.2713 15.5724V17.0004H46.7231V5.66496H44.2713V11.377C44.2713 12.5172 43.9889 13.4249 43.424 14.1112C42.8591 14.7975 42.1812 15.1407 41.379 15.1407C39.9893 15.1407 39.0854 14.2551 39.0854 12.3511V5.66496H36.4303V12.6279C36.4303 14.078 36.871 15.2735 37.4924 15.9377C37.7974 16.2698 38.159 16.5355 38.577 16.7458C39.3905 17.1775 40.091 17.2993 40.8028 17.2993Z" fill="black"/>
<path d="M51.1138 17.0004L53.9045 13.2367L56.6839 17.0004H59.5989L55.3168 11.3327L59.5989 5.66496H56.6839L53.9271 9.42869L51.1138 5.66496H48.1876L52.4922 11.3327L48.1876 17.0004H51.1138Z" fill="black"/>
<path d="M8.86729 35.3531L14.9345 19.479H12.3359L7.69226 31.9989L3.03736 19.479H0.416152L6.48334 35.3531H8.86729Z" fill="black"/>
<path d="M20.263 35.4638C21.8334 35.4638 23.1666 34.9214 24.24 33.8255C25.3133 32.7406 25.8443 31.3569 25.8443 29.6854C25.8443 27.9917 25.3133 26.5969 24.24 25.501C23.1666 24.4051 21.8334 23.8626 20.263 23.8626C18.6699 23.8626 17.348 24.4051 16.2747 25.501C15.2013 26.5969 14.659 27.9917 14.659 29.6854C14.659 31.3569 15.2013 32.7406 16.2747 33.8255C17.348 34.9214 18.6699 35.4638 20.263 35.4638ZM20.2404 33.2166C19.2687 33.2166 18.5117 32.8845 17.9694 32.2203C17.4158 31.5561 17.1446 30.7148 17.1446 29.6854C17.1446 28.6448 17.4271 27.7924 17.9807 27.1172C18.5343 26.453 19.2913 26.1209 20.263 26.1209C21.2459 26.1209 22.0255 26.453 22.5791 27.1172C23.1327 27.7924 23.4152 28.6559 23.4152 29.7075C23.4152 30.737 23.1327 31.5783 22.5678 32.2314C22.0029 32.8845 21.2233 33.2166 20.2404 33.2166Z" fill="black"/>
<path d="M33.1952 35.3531L33.2178 33.2166H31.6474C31.0938 33.2166 30.7209 33.1059 30.5288 32.8956C30.3368 32.6853 30.2351 32.2978 30.2351 31.7222V26.0545H33.1952V24.0176H30.2351V20.3867H27.8285V24.0176H26.0321V26.0545H27.8285V32.3421C27.8285 33.2166 28.1223 33.9361 28.7211 34.5007C29.3199 35.0653 30.0769 35.3531 31.0034 35.3531H33.1952Z" fill="black"/>
<path d="M39.2129 35.6077C40.5687 35.6077 41.6873 35.2535 42.5798 34.5339C43.4611 33.8255 43.9921 32.9067 44.1842 31.7665H41.8793C41.4613 32.9288 40.5687 33.5155 39.2129 33.5155C38.2865 33.5155 37.5521 33.2498 37.0098 32.7074C36.4561 32.1761 36.185 31.4454 36.185 30.5267V30.5045H44.3763C44.5118 28.5894 44.1051 27.0065 43.1673 25.7556C42.2296 24.5047 40.8851 23.8848 39.1451 23.8848C37.5069 23.8848 36.185 24.4272 35.1681 25.512C34.14 26.5969 33.6316 28.0138 33.6316 29.7739C33.6316 31.5894 34.14 33.0174 35.1568 34.0468C36.1624 35.0874 37.5182 35.6077 39.2129 35.6077ZM36.2528 28.3902C36.298 27.6817 36.5917 27.095 37.1227 26.6412C37.6538 26.1873 38.2978 25.9659 39.0774 25.9659C39.8456 25.9659 40.4783 26.1873 40.9868 26.6412C41.4839 27.095 41.7438 27.6817 41.7776 28.3902H36.2528Z" fill="black"/>
<path d="M48.7105 35.3531V29.6189C48.7105 27.416 49.8403 26.3201 52.0887 26.3533H52.4841V23.8405H51.9531C51.2865 23.8405 50.7103 23.9512 50.2019 24.1615C49.6935 24.3829 49.3432 24.5932 49.1511 24.7814C48.9591 24.9807 48.8122 25.191 48.7105 25.4013V24.0176H46.3266V35.3531H48.7105Z" fill="black"/>
<path d="M2.84206 17.0004V5.66496L7.37268 17.0004H9.53066L13.9935 5.66496V17.0004H16.4452V1.12634H13.4173L8.49121 13.5356L3.41827 1.12634H0.277344V17.0004H2.84206Z" stroke="black" stroke-width="0.509302" mask="url(#path-1-outside-1_403_5279)"/>
<path d="M22.0449 4.0377V1.12634H19.2881V4.0377H22.0449ZM21.9658 17.0004V5.66496H19.3785V17.0004H21.9658Z" stroke="black" stroke-width="0.509302" mask="url(#path-1-outside-1_403_5279)"/>
<path d="M29.4297 17.255C30.7855 17.255 31.904 16.9008 32.7966 16.1813C33.6778 15.4728 34.2089 14.554 34.4009 13.4138H32.0961C31.678 14.5761 30.7855 15.1628 29.4297 15.1628C28.5032 15.1628 27.7688 14.8972 27.2265 14.3547C26.6729 13.8234 26.4017 13.0928 26.4017 12.174V12.1519H34.593C34.7286 10.2368 34.3218 8.6538 33.3841 7.40291C32.4463 6.15203 31.1018 5.53212 29.3619 5.53212C27.7236 5.53212 26.4017 6.07454 25.3849 7.15938C24.3567 8.24422 23.8483 9.66115 23.8483 11.4212C23.8483 13.2367 24.3567 14.6647 25.3736 15.6942C26.3791 16.7347 27.7349 17.255 29.4297 17.255ZM26.4695 10.0375C26.5147 9.32906 26.8085 8.74236 27.3395 8.2885C27.8705 7.83464 28.5145 7.61324 29.2941 7.61324C30.0624 7.61324 30.6951 7.83464 31.2035 8.2885C31.7006 8.74236 31.9605 9.32906 31.9944 10.0375H26.4695Z" stroke="black" stroke-width="0.509302" mask="url(#path-1-outside-1_403_5279)"/>
<path d="M40.8028 17.2993C41.6388 17.2993 42.3506 17.1222 42.9381 16.7458C43.5144 16.3805 43.9663 15.9931 44.2713 15.5724V17.0004H46.7231V5.66496H44.2713V11.377C44.2713 12.5172 43.9889 13.4249 43.424 14.1112C42.8591 14.7975 42.1812 15.1407 41.379 15.1407C39.9893 15.1407 39.0854 14.2551 39.0854 12.3511V5.66496H36.4303V12.6279C36.4303 14.078 36.871 15.2735 37.4924 15.9377C37.7974 16.2698 38.159 16.5355 38.577 16.7458C39.3905 17.1775 40.091 17.2993 40.8028 17.2993Z" stroke="black" stroke-width="0.509302" mask="url(#path-1-outside-1_403_5279)"/>
<path d="M51.1138 17.0004L53.9045 13.2367L56.6839 17.0004H59.5989L55.3168 11.3327L59.5989 5.66496H56.6839L53.9271 9.42869L51.1138 5.66496H48.1876L52.4922 11.3327L48.1876 17.0004H51.1138Z" stroke="black" stroke-width="0.509302" mask="url(#path-1-outside-1_403_5279)"/>
<path d="M8.86729 35.3531L14.9345 19.479H12.3359L7.69226 31.9989L3.03736 19.479H0.416152L6.48334 35.3531H8.86729Z" stroke="black" stroke-width="0.509302" mask="url(#path-1-outside-1_403_5279)"/>
<path d="M20.263 35.4638C21.8334 35.4638 23.1666 34.9214 24.24 33.8255C25.3133 32.7406 25.8443 31.3569 25.8443 29.6854C25.8443 27.9917 25.3133 26.5969 24.24 25.501C23.1666 24.4051 21.8334 23.8626 20.263 23.8626C18.6699 23.8626 17.348 24.4051 16.2747 25.501C15.2013 26.5969 14.659 27.9917 14.659 29.6854C14.659 31.3569 15.2013 32.7406 16.2747 33.8255C17.348 34.9214 18.6699 35.4638 20.263 35.4638ZM20.2404 33.2166C19.2687 33.2166 18.5117 32.8845 17.9694 32.2203C17.4158 31.5561 17.1446 30.7148 17.1446 29.6854C17.1446 28.6448 17.4271 27.7924 17.9807 27.1172C18.5343 26.453 19.2913 26.1209 20.263 26.1209C21.2459 26.1209 22.0255 26.453 22.5791 27.1172C23.1327 27.7924 23.4152 28.6559 23.4152 29.7075C23.4152 30.737 23.1327 31.5783 22.5678 32.2314C22.0029 32.8845 21.2233 33.2166 20.2404 33.2166Z" stroke="black" stroke-width="0.509302" mask="url(#path-1-outside-1_403_5279)"/>
<path d="M33.1952 35.3531L33.2178 33.2166H31.6474C31.0938 33.2166 30.7209 33.1059 30.5288 32.8956C30.3368 32.6853 30.2351 32.2978 30.2351 31.7222V26.0545H33.1952V24.0176H30.2351V20.3867H27.8285V24.0176H26.0321V26.0545H27.8285V32.3421C27.8285 33.2166 28.1223 33.9361 28.7211 34.5007C29.3199 35.0653 30.0769 35.3531 31.0034 35.3531H33.1952Z" stroke="black" stroke-width="0.509302" mask="url(#path-1-outside-1_403_5279)"/>
<path d="M39.2129 35.6077C40.5687 35.6077 41.6873 35.2535 42.5798 34.5339C43.4611 33.8255 43.9921 32.9067 44.1842 31.7665H41.8793C41.4613 32.9288 40.5687 33.5155 39.2129 33.5155C38.2865 33.5155 37.5521 33.2498 37.0098 32.7074C36.4561 32.1761 36.185 31.4454 36.185 30.5267V30.5045H44.3763C44.5118 28.5894 44.1051 27.0065 43.1673 25.7556C42.2296 24.5047 40.8851 23.8848 39.1451 23.8848C37.5069 23.8848 36.185 24.4272 35.1681 25.512C34.14 26.5969 33.6316 28.0138 33.6316 29.7739C33.6316 31.5894 34.14 33.0174 35.1568 34.0468C36.1624 35.0874 37.5182 35.6077 39.2129 35.6077ZM36.2528 28.3902C36.298 27.6817 36.5917 27.095 37.1227 26.6412C37.6538 26.1873 38.2978 25.9659 39.0774 25.9659C39.8456 25.9659 40.4783 26.1873 40.9868 26.6412C41.4839 27.095 41.7438 27.6817 41.7776 28.3902H36.2528Z" stroke="black" stroke-width="0.509302" mask="url(#path-1-outside-1_403_5279)"/>
<path d="M48.7105 35.3531V29.6189C48.7105 27.416 49.8403 26.3201 52.0887 26.3533H52.4841V23.8405H51.9531C51.2865 23.8405 50.7103 23.9512 50.2019 24.1615C49.6935 24.3829 49.3432 24.5932 49.1511 24.7814C48.9591 24.9807 48.8122 25.191 48.7105 25.4013V24.0176H46.3266V35.3531H48.7105Z" stroke="black" stroke-width="0.509302" mask="url(#path-1-outside-1_403_5279)"/>
</svg>
