<svg width="100" height="58" viewBox="0 0 100 58" fill="none" xmlns="http://www.w3.org/2000/svg">
<mask id="path-1-outside-1_403_842" maskUnits="userSpaceOnUse" x="-0.182434" y="-0.550293" width="101" height="59" fill="black">
<rect fill="white" x="-0.182434" y="-0.550293" width="101" height="59"/>
<path d="M5.07683 26.8007V7.98381L12.6009 26.8007H16.1847L23.5962 7.98381V26.8007H27.6678V0.449707H22.6392L14.4585 21.049L6.03375 0.449707H0.817566V26.8007H5.07683Z"/>
<path d="M36.9672 5.28256V0.449707H32.389V5.28256H36.9672ZM36.8359 26.8007V7.98381H32.5391V26.8007H36.8359Z"/>
<path d="M49.2313 27.2233C51.4828 27.2233 53.3404 26.6353 54.8227 25.4409C56.2862 24.2648 57.1681 22.7396 57.4871 20.8469H53.6594C52.9651 22.7764 51.4828 23.7503 49.2313 23.7503C47.6927 23.7503 46.4731 23.3093 45.5724 22.4089C44.653 21.5268 44.2027 20.314 44.2027 18.7888V18.7521H57.8061C58.0312 15.573 57.3558 12.9453 55.7984 10.8688C54.241 8.79234 52.0082 7.7633 49.1187 7.7633C46.398 7.7633 44.2027 8.66371 42.514 10.4645C40.8066 12.2654 39.9622 14.6175 39.9622 17.5392C39.9622 20.5529 40.8066 22.9234 42.4952 24.6323C44.1652 26.3597 46.4168 27.2233 49.2313 27.2233ZM44.3153 15.2423C44.3903 14.0662 44.8782 13.0923 45.7601 12.3389C46.6419 11.5855 47.7114 11.218 49.0061 11.218C50.282 11.218 51.3327 11.5855 52.1771 12.3389C53.0027 13.0923 53.4342 14.0662 53.4905 15.2423H44.3153Z"/>
<path d="M68.1187 27.2968C69.5072 27.2968 70.6893 27.0028 71.665 26.378C72.6219 25.7716 73.3724 25.1285 73.879 24.4302V26.8007H77.9507V7.98381H73.879V17.4657C73.879 19.3585 73.41 20.8653 72.4718 22.0046C71.5336 23.1439 70.4078 23.7135 69.0756 23.7135C66.7678 23.7135 65.2667 22.2435 65.2667 19.0828V7.98381H60.8573V19.5422C60.8573 21.9495 61.5891 23.934 62.6211 25.0366C63.1277 25.5879 63.7281 26.0289 64.4224 26.378C65.7733 27.0947 66.9366 27.2968 68.1187 27.2968Z"/>
<path d="M85.2424 26.8007L89.877 20.5529L94.4927 26.8007H99.3336L92.2224 17.3922L99.3336 7.98381H94.4927L89.9145 14.2316L85.2424 7.98381H80.3827L87.5315 17.3922L80.3827 26.8007H85.2424Z"/>
<path d="M15.083 57.2661L25.1589 30.9151H20.8433L13.1316 51.6982L5.40116 30.9151H1.04809L11.124 57.2661H15.083Z"/>
<path d="M34.008 57.4499C36.6161 57.4499 38.8302 56.5494 40.6127 54.7302C42.3952 52.9294 43.277 50.6324 43.277 47.8577C43.277 45.0462 42.3952 42.7308 40.6127 40.9116C38.8302 39.0924 36.6161 38.192 34.008 38.192C31.3624 38.192 29.1671 39.0924 27.3846 40.9116C25.6021 42.7308 24.7014 45.0462 24.7014 47.8577C24.7014 50.6324 25.6021 52.9294 27.3846 54.7302C29.1671 56.5494 31.3624 57.4499 34.008 57.4499ZM33.9705 53.7196C32.3568 53.7196 31.0997 53.1683 30.1991 52.0657C29.2797 50.9632 28.8293 49.5666 28.8293 47.8577C28.8293 46.1303 29.2984 44.7154 30.2178 43.5945C31.1372 42.4919 32.3944 41.9406 34.008 41.9406C35.6404 41.9406 36.9351 42.4919 37.8545 43.5945C38.7739 44.7154 39.2429 46.1487 39.2429 47.8944C39.2429 49.6034 38.7739 50.9999 37.8357 52.0841C36.8975 53.1683 35.6029 53.7196 33.9705 53.7196Z"/>
<path d="M55.4848 57.2661L55.5223 53.7196H52.9142C51.9948 53.7196 51.3756 53.5358 51.0567 53.1867C50.7377 52.8375 50.5688 52.1944 50.5688 51.2388V41.8304H55.4848V38.4492H50.5688V32.4219H46.5722V38.4492H43.5889V41.8304H46.5722V52.2679C46.5722 53.7196 47.0601 54.914 48.0545 55.8512C49.049 56.7883 50.3061 57.2661 51.8447 57.2661H55.4848Z"/>
<path d="M65.4785 57.6887C67.73 57.6887 69.5876 57.1007 71.0699 55.9063C72.5334 54.7302 73.4153 53.205 73.7343 51.3123H69.9066C69.2123 53.2418 67.73 54.2157 65.4785 54.2157C63.9399 54.2157 62.7203 53.7747 61.8196 52.8743C60.9002 51.9922 60.4499 50.7794 60.4499 49.2542V49.2175H74.0533C74.2784 46.0384 73.603 43.4107 72.0456 41.3342C70.4882 39.2578 68.2554 38.2287 65.3659 38.2287C62.6452 38.2287 60.4499 39.1291 58.7612 40.93C57.0538 42.7308 56.2094 45.0829 56.2094 48.0047C56.2094 51.0183 57.0538 53.3888 58.7424 55.0977C60.4124 56.8251 62.664 57.6887 65.4785 57.6887ZM60.5625 45.7077C60.6375 44.5316 61.1254 43.5577 62.0073 42.8043C62.8891 42.0509 63.9586 41.6834 65.2533 41.6834C66.5292 41.6834 67.5799 42.0509 68.4243 42.8043C69.2499 43.5577 69.6814 44.5316 69.7377 45.7077H60.5625Z"/>
<path d="M81.2512 57.2661V47.7474C81.2512 44.0906 83.1275 42.2714 86.8614 42.3265H87.5181V38.1552H86.6363C85.5292 38.1552 84.5723 38.339 83.728 38.6881C82.8836 39.0556 82.302 39.4048 81.983 39.7172C81.664 40.0479 81.4201 40.3971 81.2512 40.7462V38.4492H77.2922V57.2661H81.2512Z"/>
</mask>
<path d="M5.07683 26.8007V7.98381L12.6009 26.8007H16.1847L23.5962 7.98381V26.8007H27.6678V0.449707H22.6392L14.4585 21.049L6.03375 0.449707H0.817566V26.8007H5.07683Z" fill="#0A004C"/>
<path d="M36.9672 5.28256V0.449707H32.389V5.28256H36.9672ZM36.8359 26.8007V7.98381H32.5391V26.8007H36.8359Z" fill="#0A004C"/>
<path d="M49.2313 27.2233C51.4828 27.2233 53.3404 26.6353 54.8227 25.4409C56.2862 24.2648 57.1681 22.7396 57.4871 20.8469H53.6594C52.9651 22.7764 51.4828 23.7503 49.2313 23.7503C47.6927 23.7503 46.4731 23.3093 45.5724 22.4089C44.653 21.5268 44.2027 20.314 44.2027 18.7888V18.7521H57.8061C58.0312 15.573 57.3558 12.9453 55.7984 10.8688C54.241 8.79234 52.0082 7.7633 49.1187 7.7633C46.398 7.7633 44.2027 8.66371 42.514 10.4645C40.8066 12.2654 39.9622 14.6175 39.9622 17.5392C39.9622 20.5529 40.8066 22.9234 42.4952 24.6323C44.1652 26.3597 46.4168 27.2233 49.2313 27.2233ZM44.3153 15.2423C44.3903 14.0662 44.8782 13.0923 45.7601 12.3389C46.6419 11.5855 47.7114 11.218 49.0061 11.218C50.282 11.218 51.3327 11.5855 52.1771 12.3389C53.0027 13.0923 53.4342 14.0662 53.4905 15.2423H44.3153Z" fill="#0A004C"/>
<path d="M68.1187 27.2968C69.5072 27.2968 70.6893 27.0028 71.665 26.378C72.6219 25.7716 73.3724 25.1285 73.879 24.4302V26.8007H77.9507V7.98381H73.879V17.4657C73.879 19.3585 73.41 20.8653 72.4718 22.0046C71.5336 23.1439 70.4078 23.7135 69.0756 23.7135C66.7678 23.7135 65.2667 22.2435 65.2667 19.0828V7.98381H60.8573V19.5422C60.8573 21.9495 61.5891 23.934 62.6211 25.0366C63.1277 25.5879 63.7281 26.0289 64.4224 26.378C65.7733 27.0947 66.9366 27.2968 68.1187 27.2968Z" fill="#0A004C"/>
<path d="M85.2424 26.8007L89.877 20.5529L94.4927 26.8007H99.3336L92.2224 17.3922L99.3336 7.98381H94.4927L89.9145 14.2316L85.2424 7.98381H80.3827L87.5315 17.3922L80.3827 26.8007H85.2424Z" fill="#0A004C"/>
<path d="M15.083 57.2661L25.1589 30.9151H20.8433L13.1316 51.6982L5.40116 30.9151H1.04809L11.124 57.2661H15.083Z" fill="#0A004C"/>
<path d="M34.008 57.4499C36.6161 57.4499 38.8302 56.5494 40.6127 54.7302C42.3952 52.9294 43.277 50.6324 43.277 47.8577C43.277 45.0462 42.3952 42.7308 40.6127 40.9116C38.8302 39.0924 36.6161 38.192 34.008 38.192C31.3624 38.192 29.1671 39.0924 27.3846 40.9116C25.6021 42.7308 24.7014 45.0462 24.7014 47.8577C24.7014 50.6324 25.6021 52.9294 27.3846 54.7302C29.1671 56.5494 31.3624 57.4499 34.008 57.4499ZM33.9705 53.7196C32.3568 53.7196 31.0997 53.1683 30.1991 52.0657C29.2797 50.9632 28.8293 49.5666 28.8293 47.8577C28.8293 46.1303 29.2984 44.7154 30.2178 43.5945C31.1372 42.4919 32.3944 41.9406 34.008 41.9406C35.6404 41.9406 36.9351 42.4919 37.8545 43.5945C38.7739 44.7154 39.2429 46.1487 39.2429 47.8944C39.2429 49.6034 38.7739 50.9999 37.8357 52.0841C36.8975 53.1683 35.6029 53.7196 33.9705 53.7196Z" fill="#0A004C"/>
<path d="M55.4848 57.2661L55.5223 53.7196H52.9142C51.9948 53.7196 51.3756 53.5358 51.0567 53.1867C50.7377 52.8375 50.5688 52.1944 50.5688 51.2388V41.8304H55.4848V38.4492H50.5688V32.4219H46.5722V38.4492H43.5889V41.8304H46.5722V52.2679C46.5722 53.7196 47.0601 54.914 48.0545 55.8512C49.049 56.7883 50.3061 57.2661 51.8447 57.2661H55.4848Z" fill="#0A004C"/>
<path d="M65.4785 57.6887C67.73 57.6887 69.5876 57.1007 71.0699 55.9063C72.5334 54.7302 73.4153 53.205 73.7343 51.3123H69.9066C69.2123 53.2418 67.73 54.2157 65.4785 54.2157C63.9399 54.2157 62.7203 53.7747 61.8196 52.8743C60.9002 51.9922 60.4499 50.7794 60.4499 49.2542V49.2175H74.0533C74.2784 46.0384 73.603 43.4107 72.0456 41.3342C70.4882 39.2578 68.2554 38.2287 65.3659 38.2287C62.6452 38.2287 60.4499 39.1291 58.7612 40.93C57.0538 42.7308 56.2094 45.0829 56.2094 48.0047C56.2094 51.0183 57.0538 53.3888 58.7424 55.0977C60.4124 56.8251 62.664 57.6887 65.4785 57.6887ZM60.5625 45.7077C60.6375 44.5316 61.1254 43.5577 62.0073 42.8043C62.8891 42.0509 63.9586 41.6834 65.2533 41.6834C66.5292 41.6834 67.5799 42.0509 68.4243 42.8043C69.2499 43.5577 69.6814 44.5316 69.7377 45.7077H60.5625Z" fill="#0A004C"/>
<path d="M81.2512 57.2661V47.7474C81.2512 44.0906 83.1275 42.2714 86.8614 42.3265H87.5181V38.1552H86.6363C85.5292 38.1552 84.5723 38.339 83.728 38.6881C82.8836 39.0556 82.302 39.4048 81.983 39.7172C81.664 40.0479 81.4201 40.3971 81.2512 40.7462V38.4492H77.2922V57.2661H81.2512Z" fill="#0A004C"/>
<path d="M5.07683 26.8007V7.98381L12.6009 26.8007H16.1847L23.5962 7.98381V26.8007H27.6678V0.449707H22.6392L14.4585 21.049L6.03375 0.449707H0.817566V26.8007H5.07683Z" stroke="#0A004C" stroke-width="0.509302" mask="url(#path-1-outside-1_403_842)"/>
<path d="M36.9672 5.28256V0.449707H32.389V5.28256H36.9672ZM36.8359 26.8007V7.98381H32.5391V26.8007H36.8359Z" stroke="#0A004C" stroke-width="0.509302" mask="url(#path-1-outside-1_403_842)"/>
<path d="M49.2313 27.2233C51.4828 27.2233 53.3404 26.6353 54.8227 25.4409C56.2862 24.2648 57.1681 22.7396 57.4871 20.8469H53.6594C52.9651 22.7764 51.4828 23.7503 49.2313 23.7503C47.6927 23.7503 46.4731 23.3093 45.5724 22.4089C44.653 21.5268 44.2027 20.314 44.2027 18.7888V18.7521H57.8061C58.0312 15.573 57.3558 12.9453 55.7984 10.8688C54.241 8.79234 52.0082 7.7633 49.1187 7.7633C46.398 7.7633 44.2027 8.66371 42.514 10.4645C40.8066 12.2654 39.9622 14.6175 39.9622 17.5392C39.9622 20.5529 40.8066 22.9234 42.4952 24.6323C44.1652 26.3597 46.4168 27.2233 49.2313 27.2233ZM44.3153 15.2423C44.3903 14.0662 44.8782 13.0923 45.7601 12.3389C46.6419 11.5855 47.7114 11.218 49.0061 11.218C50.282 11.218 51.3327 11.5855 52.1771 12.3389C53.0027 13.0923 53.4342 14.0662 53.4905 15.2423H44.3153Z" stroke="#0A004C" stroke-width="0.509302" mask="url(#path-1-outside-1_403_842)"/>
<path d="M68.1187 27.2968C69.5072 27.2968 70.6893 27.0028 71.665 26.378C72.6219 25.7716 73.3724 25.1285 73.879 24.4302V26.8007H77.9507V7.98381H73.879V17.4657C73.879 19.3585 73.41 20.8653 72.4718 22.0046C71.5336 23.1439 70.4078 23.7135 69.0756 23.7135C66.7678 23.7135 65.2667 22.2435 65.2667 19.0828V7.98381H60.8573V19.5422C60.8573 21.9495 61.5891 23.934 62.6211 25.0366C63.1277 25.5879 63.7281 26.0289 64.4224 26.378C65.7733 27.0947 66.9366 27.2968 68.1187 27.2968Z" stroke="#0A004C" stroke-width="0.509302" mask="url(#path-1-outside-1_403_842)"/>
<path d="M85.2424 26.8007L89.877 20.5529L94.4927 26.8007H99.3336L92.2224 17.3922L99.3336 7.98381H94.4927L89.9145 14.2316L85.2424 7.98381H80.3827L87.5315 17.3922L80.3827 26.8007H85.2424Z" stroke="#0A004C" stroke-width="0.509302" mask="url(#path-1-outside-1_403_842)"/>
<path d="M15.083 57.2661L25.1589 30.9151H20.8433L13.1316 51.6982L5.40116 30.9151H1.04809L11.124 57.2661H15.083Z" stroke="#0A004C" stroke-width="0.509302" mask="url(#path-1-outside-1_403_842)"/>
<path d="M34.008 57.4499C36.6161 57.4499 38.8302 56.5494 40.6127 54.7302C42.3952 52.9294 43.277 50.6324 43.277 47.8577C43.277 45.0462 42.3952 42.7308 40.6127 40.9116C38.8302 39.0924 36.6161 38.192 34.008 38.192C31.3624 38.192 29.1671 39.0924 27.3846 40.9116C25.6021 42.7308 24.7014 45.0462 24.7014 47.8577C24.7014 50.6324 25.6021 52.9294 27.3846 54.7302C29.1671 56.5494 31.3624 57.4499 34.008 57.4499ZM33.9705 53.7196C32.3568 53.7196 31.0997 53.1683 30.1991 52.0657C29.2797 50.9632 28.8293 49.5666 28.8293 47.8577C28.8293 46.1303 29.2984 44.7154 30.2178 43.5945C31.1372 42.4919 32.3944 41.9406 34.008 41.9406C35.6404 41.9406 36.9351 42.4919 37.8545 43.5945C38.7739 44.7154 39.2429 46.1487 39.2429 47.8944C39.2429 49.6034 38.7739 50.9999 37.8357 52.0841C36.8975 53.1683 35.6029 53.7196 33.9705 53.7196Z" stroke="#0A004C" stroke-width="0.509302" mask="url(#path-1-outside-1_403_842)"/>
<path d="M55.4848 57.2661L55.5223 53.7196H52.9142C51.9948 53.7196 51.3756 53.5358 51.0567 53.1867C50.7377 52.8375 50.5688 52.1944 50.5688 51.2388V41.8304H55.4848V38.4492H50.5688V32.4219H46.5722V38.4492H43.5889V41.8304H46.5722V52.2679C46.5722 53.7196 47.0601 54.914 48.0545 55.8512C49.049 56.7883 50.3061 57.2661 51.8447 57.2661H55.4848Z" stroke="#0A004C" stroke-width="0.509302" mask="url(#path-1-outside-1_403_842)"/>
<path d="M65.4785 57.6887C67.73 57.6887 69.5876 57.1007 71.0699 55.9063C72.5334 54.7302 73.4153 53.205 73.7343 51.3123H69.9066C69.2123 53.2418 67.73 54.2157 65.4785 54.2157C63.9399 54.2157 62.7203 53.7747 61.8196 52.8743C60.9002 51.9922 60.4499 50.7794 60.4499 49.2542V49.2175H74.0533C74.2784 46.0384 73.603 43.4107 72.0456 41.3342C70.4882 39.2578 68.2554 38.2287 65.3659 38.2287C62.6452 38.2287 60.4499 39.1291 58.7612 40.93C57.0538 42.7308 56.2094 45.0829 56.2094 48.0047C56.2094 51.0183 57.0538 53.3888 58.7424 55.0977C60.4124 56.8251 62.664 57.6887 65.4785 57.6887ZM60.5625 45.7077C60.6375 44.5316 61.1254 43.5577 62.0073 42.8043C62.8891 42.0509 63.9586 41.6834 65.2533 41.6834C66.5292 41.6834 67.5799 42.0509 68.4243 42.8043C69.2499 43.5577 69.6814 44.5316 69.7377 45.7077H60.5625Z" stroke="#0A004C" stroke-width="0.509302" mask="url(#path-1-outside-1_403_842)"/>
<path d="M81.2512 57.2661V47.7474C81.2512 44.0906 83.1275 42.2714 86.8614 42.3265H87.5181V38.1552H86.6363C85.5292 38.1552 84.5723 38.339 83.728 38.6881C82.8836 39.0556 82.302 39.4048 81.983 39.7172C81.664 40.0479 81.4201 40.3971 81.2512 40.7462V38.4492H77.2922V57.2661H81.2512Z" stroke="#0A004C" stroke-width="0.509302" mask="url(#path-1-outside-1_403_842)"/>
</svg>
