<svg width="100" height="58" viewBox="0 0 100 58" fill="none" xmlns="http://www.w3.org/2000/svg">
<mask id="path-1-outside-1_403_4650" maskUnits="userSpaceOnUse" x="-0.182373" y="-0.550293" width="101" height="59" fill="black">
<rect fill="white" x="-0.182373" y="-0.550293" width="101" height="59"/>
<path d="M5.07689 26.8007V7.98381L12.601 26.8007H16.1847L23.5962 7.98381V26.8007H27.6679V0.449707H22.6393L14.4585 21.049L6.03381 0.449707H0.817627V26.8007H5.07689Z"/>
<path d="M36.9673 5.28256V0.449707H32.3891V5.28256H36.9673ZM36.8359 26.8007V7.98381H32.5392V26.8007H36.8359Z"/>
<path d="M49.2313 27.2233C51.4829 27.2233 53.3405 26.6353 54.8228 25.4409C56.2863 24.2648 57.1682 22.7396 57.4872 20.8469H53.6595C52.9652 22.7764 51.4829 23.7503 49.2313 23.7503C47.6927 23.7503 46.4731 23.3093 45.5725 22.4089C44.6531 21.5268 44.2028 20.314 44.2028 18.7888V18.7521H57.8061C58.0313 15.573 57.3558 12.9453 55.7985 10.8688C54.2411 8.79234 52.0083 7.7633 49.1187 7.7633C46.3981 7.7633 44.2028 8.66371 42.5141 10.4645C40.8066 12.2654 39.9623 14.6175 39.9623 17.5392C39.9623 20.5529 40.8066 22.9234 42.4953 24.6323C44.1652 26.3597 46.4168 27.2233 49.2313 27.2233ZM44.3153 15.2423C44.3904 14.0662 44.8782 13.0923 45.7601 12.3389C46.642 11.5855 47.7115 11.218 49.0062 11.218C50.2821 11.218 51.3328 11.5855 52.1772 12.3389C53.0027 13.0923 53.4343 14.0662 53.4906 15.2423H44.3153Z"/>
<path d="M68.1188 27.2968C69.5073 27.2968 70.6893 27.0028 71.665 26.378C72.622 25.7716 73.3725 25.1285 73.8791 24.4302V26.8007H77.9507V7.98381H73.8791V17.4657C73.8791 19.3585 73.41 20.8653 72.4719 22.0046C71.5337 23.1439 70.4079 23.7135 69.0757 23.7135C66.7678 23.7135 65.2668 22.2435 65.2668 19.0828V7.98381H60.8574V19.5422C60.8574 21.9495 61.5892 23.934 62.6211 25.0366C63.1278 25.5879 63.7282 26.0289 64.4224 26.378C65.7734 27.0947 66.9367 27.2968 68.1188 27.2968Z"/>
<path d="M85.2425 26.8007L89.877 20.5529L94.4928 26.8007H99.3337L92.2224 17.3922L99.3337 7.98381H94.4928L89.9145 14.2316L85.2425 7.98381H80.3828L87.5316 17.3922L80.3828 26.8007H85.2425Z"/>
<path d="M15.0831 57.2661L25.1589 30.9151H20.8434L13.1317 51.6982L5.40122 30.9151H1.04815L11.124 57.2661H15.0831Z"/>
<path d="M34.0081 57.4499C36.6161 57.4499 38.8302 56.5494 40.6127 54.7302C42.3952 52.9294 43.2771 50.6324 43.2771 47.8577C43.2771 45.0462 42.3952 42.7308 40.6127 40.9116C38.8302 39.0924 36.6161 38.192 34.0081 38.192C31.3624 38.192 29.1671 39.0924 27.3846 40.9116C25.6021 42.7308 24.7015 45.0462 24.7015 47.8577C24.7015 50.6324 25.6021 52.9294 27.3846 54.7302C29.1671 56.5494 31.3624 57.4499 34.0081 57.4499ZM33.9705 53.7196C32.3569 53.7196 31.0998 53.1683 30.1991 52.0657C29.2797 50.9632 28.8294 49.5666 28.8294 47.8577C28.8294 46.1303 29.2985 44.7154 30.2179 43.5945C31.1373 42.4919 32.3944 41.9406 34.0081 41.9406C35.6405 41.9406 36.9351 42.4919 37.8545 43.5945C38.7739 44.7154 39.243 46.1487 39.243 47.8944C39.243 49.6034 38.7739 50.9999 37.8358 52.0841C36.8976 53.1683 35.6029 53.7196 33.9705 53.7196Z"/>
<path d="M55.4848 57.2661L55.5224 53.7196H52.9143C51.9949 53.7196 51.3757 53.5358 51.0567 53.1867C50.7377 52.8375 50.5689 52.1944 50.5689 51.2388V41.8304H55.4848V38.4492H50.5689V32.4219H46.5723V38.4492H43.5889V41.8304H46.5723V52.2679C46.5723 53.7196 47.0601 54.914 48.0546 55.8512C49.049 56.7883 50.3062 57.2661 51.8448 57.2661H55.4848Z"/>
<path d="M65.4785 57.6887C67.7301 57.6887 69.5877 57.1007 71.07 55.9063C72.5335 54.7302 73.4154 53.205 73.7344 51.3123H69.9066C69.2124 53.2418 67.7301 54.2157 65.4785 54.2157C63.9399 54.2157 62.7203 53.7747 61.8197 52.8743C60.9003 51.9922 60.45 50.7794 60.45 49.2542V49.2175H74.0533C74.2785 46.0384 73.603 43.4107 72.0457 41.3342C70.4883 39.2578 68.2555 38.2287 65.3659 38.2287C62.6453 38.2287 60.45 39.1291 58.7613 40.93C57.0538 42.7308 56.2095 45.0829 56.2095 48.0047C56.2095 51.0183 57.0538 53.3888 58.7425 55.0977C60.4124 56.8251 62.664 57.6887 65.4785 57.6887ZM60.5625 45.7077C60.6376 44.5316 61.1254 43.5577 62.0073 42.8043C62.8892 42.0509 63.9587 41.6834 65.2534 41.6834C66.5293 41.6834 67.58 42.0509 68.4244 42.8043C69.2499 43.5577 69.6815 44.5316 69.7378 45.7077H60.5625Z"/>
<path d="M81.2513 57.2661V47.7474C81.2513 44.0906 83.1276 42.2714 86.8615 42.3265H87.5182V38.1552H86.6363C85.5293 38.1552 84.5724 38.339 83.728 38.6881C82.8837 39.0556 82.302 39.4048 81.983 39.7172C81.6641 40.0479 81.4201 40.3971 81.2513 40.7462V38.4492H77.2922V57.2661H81.2513Z"/>
</mask>
<path d="M5.07689 26.8007V7.98381L12.601 26.8007H16.1847L23.5962 7.98381V26.8007H27.6679V0.449707H22.6393L14.4585 21.049L6.03381 0.449707H0.817627V26.8007H5.07689Z" fill="#0A004C"/>
<path d="M36.9673 5.28256V0.449707H32.3891V5.28256H36.9673ZM36.8359 26.8007V7.98381H32.5392V26.8007H36.8359Z" fill="#0A004C"/>
<path d="M49.2313 27.2233C51.4829 27.2233 53.3405 26.6353 54.8228 25.4409C56.2863 24.2648 57.1682 22.7396 57.4872 20.8469H53.6595C52.9652 22.7764 51.4829 23.7503 49.2313 23.7503C47.6927 23.7503 46.4731 23.3093 45.5725 22.4089C44.6531 21.5268 44.2028 20.314 44.2028 18.7888V18.7521H57.8061C58.0313 15.573 57.3558 12.9453 55.7985 10.8688C54.2411 8.79234 52.0083 7.7633 49.1187 7.7633C46.3981 7.7633 44.2028 8.66371 42.5141 10.4645C40.8066 12.2654 39.9623 14.6175 39.9623 17.5392C39.9623 20.5529 40.8066 22.9234 42.4953 24.6323C44.1652 26.3597 46.4168 27.2233 49.2313 27.2233ZM44.3153 15.2423C44.3904 14.0662 44.8782 13.0923 45.7601 12.3389C46.642 11.5855 47.7115 11.218 49.0062 11.218C50.2821 11.218 51.3328 11.5855 52.1772 12.3389C53.0027 13.0923 53.4343 14.0662 53.4906 15.2423H44.3153Z" fill="#0A004C"/>
<path d="M68.1188 27.2968C69.5073 27.2968 70.6893 27.0028 71.665 26.378C72.622 25.7716 73.3725 25.1285 73.8791 24.4302V26.8007H77.9507V7.98381H73.8791V17.4657C73.8791 19.3585 73.41 20.8653 72.4719 22.0046C71.5337 23.1439 70.4079 23.7135 69.0757 23.7135C66.7678 23.7135 65.2668 22.2435 65.2668 19.0828V7.98381H60.8574V19.5422C60.8574 21.9495 61.5892 23.934 62.6211 25.0366C63.1278 25.5879 63.7282 26.0289 64.4224 26.378C65.7734 27.0947 66.9367 27.2968 68.1188 27.2968Z" fill="#0A004C"/>
<path d="M85.2425 26.8007L89.877 20.5529L94.4928 26.8007H99.3337L92.2224 17.3922L99.3337 7.98381H94.4928L89.9145 14.2316L85.2425 7.98381H80.3828L87.5316 17.3922L80.3828 26.8007H85.2425Z" fill="#0A004C"/>
<path d="M15.0831 57.2661L25.1589 30.9151H20.8434L13.1317 51.6982L5.40122 30.9151H1.04815L11.124 57.2661H15.0831Z" fill="#0A004C"/>
<path d="M34.0081 57.4499C36.6161 57.4499 38.8302 56.5494 40.6127 54.7302C42.3952 52.9294 43.2771 50.6324 43.2771 47.8577C43.2771 45.0462 42.3952 42.7308 40.6127 40.9116C38.8302 39.0924 36.6161 38.192 34.0081 38.192C31.3624 38.192 29.1671 39.0924 27.3846 40.9116C25.6021 42.7308 24.7015 45.0462 24.7015 47.8577C24.7015 50.6324 25.6021 52.9294 27.3846 54.7302C29.1671 56.5494 31.3624 57.4499 34.0081 57.4499ZM33.9705 53.7196C32.3569 53.7196 31.0998 53.1683 30.1991 52.0657C29.2797 50.9632 28.8294 49.5666 28.8294 47.8577C28.8294 46.1303 29.2985 44.7154 30.2179 43.5945C31.1373 42.4919 32.3944 41.9406 34.0081 41.9406C35.6405 41.9406 36.9351 42.4919 37.8545 43.5945C38.7739 44.7154 39.243 46.1487 39.243 47.8944C39.243 49.6034 38.7739 50.9999 37.8358 52.0841C36.8976 53.1683 35.6029 53.7196 33.9705 53.7196Z" fill="#0A004C"/>
<path d="M55.4848 57.2661L55.5224 53.7196H52.9143C51.9949 53.7196 51.3757 53.5358 51.0567 53.1867C50.7377 52.8375 50.5689 52.1944 50.5689 51.2388V41.8304H55.4848V38.4492H50.5689V32.4219H46.5723V38.4492H43.5889V41.8304H46.5723V52.2679C46.5723 53.7196 47.0601 54.914 48.0546 55.8512C49.049 56.7883 50.3062 57.2661 51.8448 57.2661H55.4848Z" fill="#0A004C"/>
<path d="M65.4785 57.6887C67.7301 57.6887 69.5877 57.1007 71.07 55.9063C72.5335 54.7302 73.4154 53.205 73.7344 51.3123H69.9066C69.2124 53.2418 67.7301 54.2157 65.4785 54.2157C63.9399 54.2157 62.7203 53.7747 61.8197 52.8743C60.9003 51.9922 60.45 50.7794 60.45 49.2542V49.2175H74.0533C74.2785 46.0384 73.603 43.4107 72.0457 41.3342C70.4883 39.2578 68.2555 38.2287 65.3659 38.2287C62.6453 38.2287 60.45 39.1291 58.7613 40.93C57.0538 42.7308 56.2095 45.0829 56.2095 48.0047C56.2095 51.0183 57.0538 53.3888 58.7425 55.0977C60.4124 56.8251 62.664 57.6887 65.4785 57.6887ZM60.5625 45.7077C60.6376 44.5316 61.1254 43.5577 62.0073 42.8043C62.8892 42.0509 63.9587 41.6834 65.2534 41.6834C66.5293 41.6834 67.58 42.0509 68.4244 42.8043C69.2499 43.5577 69.6815 44.5316 69.7378 45.7077H60.5625Z" fill="#0A004C"/>
<path d="M81.2513 57.2661V47.7474C81.2513 44.0906 83.1276 42.2714 86.8615 42.3265H87.5182V38.1552H86.6363C85.5293 38.1552 84.5724 38.339 83.728 38.6881C82.8837 39.0556 82.302 39.4048 81.983 39.7172C81.6641 40.0479 81.4201 40.3971 81.2513 40.7462V38.4492H77.2922V57.2661H81.2513Z" fill="#0A004C"/>
<path d="M5.07689 26.8007V7.98381L12.601 26.8007H16.1847L23.5962 7.98381V26.8007H27.6679V0.449707H22.6393L14.4585 21.049L6.03381 0.449707H0.817627V26.8007H5.07689Z" stroke="#0A004C" stroke-width="0.509302" mask="url(#path-1-outside-1_403_4650)"/>
<path d="M36.9673 5.28256V0.449707H32.3891V5.28256H36.9673ZM36.8359 26.8007V7.98381H32.5392V26.8007H36.8359Z" stroke="#0A004C" stroke-width="0.509302" mask="url(#path-1-outside-1_403_4650)"/>
<path d="M49.2313 27.2233C51.4829 27.2233 53.3405 26.6353 54.8228 25.4409C56.2863 24.2648 57.1682 22.7396 57.4872 20.8469H53.6595C52.9652 22.7764 51.4829 23.7503 49.2313 23.7503C47.6927 23.7503 46.4731 23.3093 45.5725 22.4089C44.6531 21.5268 44.2028 20.314 44.2028 18.7888V18.7521H57.8061C58.0313 15.573 57.3558 12.9453 55.7985 10.8688C54.2411 8.79234 52.0083 7.7633 49.1187 7.7633C46.3981 7.7633 44.2028 8.66371 42.5141 10.4645C40.8066 12.2654 39.9623 14.6175 39.9623 17.5392C39.9623 20.5529 40.8066 22.9234 42.4953 24.6323C44.1652 26.3597 46.4168 27.2233 49.2313 27.2233ZM44.3153 15.2423C44.3904 14.0662 44.8782 13.0923 45.7601 12.3389C46.642 11.5855 47.7115 11.218 49.0062 11.218C50.2821 11.218 51.3328 11.5855 52.1772 12.3389C53.0027 13.0923 53.4343 14.0662 53.4906 15.2423H44.3153Z" stroke="#0A004C" stroke-width="0.509302" mask="url(#path-1-outside-1_403_4650)"/>
<path d="M68.1188 27.2968C69.5073 27.2968 70.6893 27.0028 71.665 26.378C72.622 25.7716 73.3725 25.1285 73.8791 24.4302V26.8007H77.9507V7.98381H73.8791V17.4657C73.8791 19.3585 73.41 20.8653 72.4719 22.0046C71.5337 23.1439 70.4079 23.7135 69.0757 23.7135C66.7678 23.7135 65.2668 22.2435 65.2668 19.0828V7.98381H60.8574V19.5422C60.8574 21.9495 61.5892 23.934 62.6211 25.0366C63.1278 25.5879 63.7282 26.0289 64.4224 26.378C65.7734 27.0947 66.9367 27.2968 68.1188 27.2968Z" stroke="#0A004C" stroke-width="0.509302" mask="url(#path-1-outside-1_403_4650)"/>
<path d="M85.2425 26.8007L89.877 20.5529L94.4928 26.8007H99.3337L92.2224 17.3922L99.3337 7.98381H94.4928L89.9145 14.2316L85.2425 7.98381H80.3828L87.5316 17.3922L80.3828 26.8007H85.2425Z" stroke="#0A004C" stroke-width="0.509302" mask="url(#path-1-outside-1_403_4650)"/>
<path d="M15.0831 57.2661L25.1589 30.9151H20.8434L13.1317 51.6982L5.40122 30.9151H1.04815L11.124 57.2661H15.0831Z" stroke="#0A004C" stroke-width="0.509302" mask="url(#path-1-outside-1_403_4650)"/>
<path d="M34.0081 57.4499C36.6161 57.4499 38.8302 56.5494 40.6127 54.7302C42.3952 52.9294 43.2771 50.6324 43.2771 47.8577C43.2771 45.0462 42.3952 42.7308 40.6127 40.9116C38.8302 39.0924 36.6161 38.192 34.0081 38.192C31.3624 38.192 29.1671 39.0924 27.3846 40.9116C25.6021 42.7308 24.7015 45.0462 24.7015 47.8577C24.7015 50.6324 25.6021 52.9294 27.3846 54.7302C29.1671 56.5494 31.3624 57.4499 34.0081 57.4499ZM33.9705 53.7196C32.3569 53.7196 31.0998 53.1683 30.1991 52.0657C29.2797 50.9632 28.8294 49.5666 28.8294 47.8577C28.8294 46.1303 29.2985 44.7154 30.2179 43.5945C31.1373 42.4919 32.3944 41.9406 34.0081 41.9406C35.6405 41.9406 36.9351 42.4919 37.8545 43.5945C38.7739 44.7154 39.243 46.1487 39.243 47.8944C39.243 49.6034 38.7739 50.9999 37.8358 52.0841C36.8976 53.1683 35.6029 53.7196 33.9705 53.7196Z" stroke="#0A004C" stroke-width="0.509302" mask="url(#path-1-outside-1_403_4650)"/>
<path d="M55.4848 57.2661L55.5224 53.7196H52.9143C51.9949 53.7196 51.3757 53.5358 51.0567 53.1867C50.7377 52.8375 50.5689 52.1944 50.5689 51.2388V41.8304H55.4848V38.4492H50.5689V32.4219H46.5723V38.4492H43.5889V41.8304H46.5723V52.2679C46.5723 53.7196 47.0601 54.914 48.0546 55.8512C49.049 56.7883 50.3062 57.2661 51.8448 57.2661H55.4848Z" stroke="#0A004C" stroke-width="0.509302" mask="url(#path-1-outside-1_403_4650)"/>
<path d="M65.4785 57.6887C67.7301 57.6887 69.5877 57.1007 71.07 55.9063C72.5335 54.7302 73.4154 53.205 73.7344 51.3123H69.9066C69.2124 53.2418 67.7301 54.2157 65.4785 54.2157C63.9399 54.2157 62.7203 53.7747 61.8197 52.8743C60.9003 51.9922 60.45 50.7794 60.45 49.2542V49.2175H74.0533C74.2785 46.0384 73.603 43.4107 72.0457 41.3342C70.4883 39.2578 68.2555 38.2287 65.3659 38.2287C62.6453 38.2287 60.45 39.1291 58.7613 40.93C57.0538 42.7308 56.2095 45.0829 56.2095 48.0047C56.2095 51.0183 57.0538 53.3888 58.7425 55.0977C60.4124 56.8251 62.664 57.6887 65.4785 57.6887ZM60.5625 45.7077C60.6376 44.5316 61.1254 43.5577 62.0073 42.8043C62.8892 42.0509 63.9587 41.6834 65.2534 41.6834C66.5293 41.6834 67.58 42.0509 68.4244 42.8043C69.2499 43.5577 69.6815 44.5316 69.7378 45.7077H60.5625Z" stroke="#0A004C" stroke-width="0.509302" mask="url(#path-1-outside-1_403_4650)"/>
<path d="M81.2513 57.2661V47.7474C81.2513 44.0906 83.1276 42.2714 86.8615 42.3265H87.5182V38.1552H86.6363C85.5293 38.1552 84.5724 38.339 83.728 38.6881C82.8837 39.0556 82.302 39.4048 81.983 39.7172C81.6641 40.0479 81.4201 40.3971 81.2513 40.7462V38.4492H77.2922V57.2661H81.2513Z" stroke="#0A004C" stroke-width="0.509302" mask="url(#path-1-outside-1_403_4650)"/>
</svg>
