<svg width="100" height="58" viewBox="0 0 100 58" fill="none" xmlns="http://www.w3.org/2000/svg">
<mask id="path-1-outside-1_403_4596" maskUnits="userSpaceOnUse" x="-0.182617" y="-0.550293" width="101" height="59" fill="black">
<rect fill="white" x="-0.182617" y="-0.550293" width="101" height="59"/>
<path d="M5.07664 26.8007V7.98381L12.6007 26.8007H16.1845L23.596 7.98381V26.8007H27.6676V0.449707H22.6391L14.4583 21.049L6.03357 0.449707H0.817383V26.8007H5.07664Z"/>
<path d="M36.967 5.28256V0.449707H32.3888V5.28256H36.967ZM36.8357 26.8007V7.98381H32.5389V26.8007H36.8357Z"/>
<path d="M49.2311 27.2233C51.4827 27.2233 53.3402 26.6353 54.8225 25.4409C56.2861 24.2648 57.1679 22.7396 57.4869 20.8469H53.6592C52.965 22.7764 51.4827 23.7503 49.2311 23.7503C47.6925 23.7503 46.4729 23.3093 45.5722 22.4089C44.6528 21.5268 44.2025 20.314 44.2025 18.7888V18.7521H57.8059C58.031 15.573 57.3556 12.9453 55.7982 10.8688C54.2409 8.79234 52.008 7.7633 49.1185 7.7633C46.3978 7.7633 44.2025 8.66371 42.5138 10.4645C40.8064 12.2654 39.962 14.6175 39.962 17.5392C39.962 20.5529 40.8064 22.9234 42.4951 24.6323C44.165 26.3597 46.4166 27.2233 49.2311 27.2233ZM44.3151 15.2423C44.3902 14.0662 44.878 13.0923 45.7599 12.3389C46.6417 11.5855 47.7112 11.218 49.0059 11.218C50.2818 11.218 51.3326 11.5855 52.1769 12.3389C53.0025 13.0923 53.434 14.0662 53.4903 15.2423H44.3151Z"/>
<path d="M68.1185 27.2968C69.507 27.2968 70.6891 27.0028 71.6648 26.378C72.6217 25.7716 73.3722 25.1285 73.8789 24.4302V26.8007H77.9505V7.98381H73.8789V17.4657C73.8789 19.3585 73.4098 20.8653 72.4716 22.0046C71.5334 23.1439 70.4077 23.7135 69.0755 23.7135C66.7676 23.7135 65.2665 22.2435 65.2665 19.0828V7.98381H60.8572V19.5422C60.8572 21.9495 61.5889 23.934 62.6209 25.0366C63.1275 25.5879 63.7279 26.0289 64.4222 26.378C65.7731 27.0947 66.9364 27.2968 68.1185 27.2968Z"/>
<path d="M85.2422 26.8007L89.8768 20.5529L94.4925 26.8007H99.3335L92.2222 17.3922L99.3335 7.98381H94.4925L89.9143 14.2316L85.2422 7.98381H80.3826L87.5314 17.3922L80.3826 26.8007H85.2422Z"/>
<path d="M15.0828 57.2661L25.1587 30.9151H20.8431L13.1314 51.6982L5.40098 30.9151H1.0479L11.1238 57.2661H15.0828Z"/>
<path d="M34.0078 57.4499C36.6159 57.4499 38.83 56.5494 40.6125 54.7302C42.395 52.9294 43.2769 50.6324 43.2769 47.8577C43.2769 45.0462 42.395 42.7308 40.6125 40.9116C38.83 39.0924 36.6159 38.192 34.0078 38.192C31.3622 38.192 29.1669 39.0924 27.3844 40.9116C25.6019 42.7308 24.7012 45.0462 24.7012 47.8577C24.7012 50.6324 25.6019 52.9294 27.3844 54.7302C29.1669 56.5494 31.3622 57.4499 34.0078 57.4499ZM33.9703 53.7196C32.3566 53.7196 31.0995 53.1683 30.1989 52.0657C29.2795 50.9632 28.8292 49.5666 28.8292 47.8577C28.8292 46.1303 29.2982 44.7154 30.2176 43.5945C31.137 42.4919 32.3942 41.9406 34.0078 41.9406C35.6402 41.9406 36.9349 42.4919 37.8543 43.5945C38.7737 44.7154 39.2428 46.1487 39.2428 47.8944C39.2428 49.6034 38.7737 50.9999 37.8355 52.0841C36.8974 53.1683 35.6027 53.7196 33.9703 53.7196Z"/>
<path d="M55.4846 57.2661L55.5221 53.7196H52.914C51.9946 53.7196 51.3754 53.5358 51.0565 53.1867C50.7375 52.8375 50.5686 52.1944 50.5686 51.2388V41.8304H55.4846V38.4492H50.5686V32.4219H46.5721V38.4492H43.5887V41.8304H46.5721V52.2679C46.5721 53.7196 47.0599 54.914 48.0543 55.8512C49.0488 56.7883 50.3059 57.2661 51.8445 57.2661H55.4846Z"/>
<path d="M65.4783 57.6887C67.7299 57.6887 69.5874 57.1007 71.0697 55.9063C72.5333 54.7302 73.4151 53.205 73.7341 51.3123H69.9064C69.2122 53.2418 67.7299 54.2157 65.4783 54.2157C63.9397 54.2157 62.7201 53.7747 61.8194 52.8743C60.9 51.9922 60.4497 50.7794 60.4497 49.2542V49.2175H74.0531C74.2782 46.0384 73.6028 43.4107 72.0454 41.3342C70.4881 39.2578 68.2552 38.2287 65.3657 38.2287C62.645 38.2287 60.4497 39.1291 58.761 40.93C57.0536 42.7308 56.2092 45.0829 56.2092 48.0047C56.2092 51.0183 57.0536 53.3888 58.7423 55.0977C60.4122 56.8251 62.6638 57.6887 65.4783 57.6887ZM60.5623 45.7077C60.6374 44.5316 61.1252 43.5577 62.0071 42.8043C62.8889 42.0509 63.9585 41.6834 65.2531 41.6834C66.529 41.6834 67.5798 42.0509 68.4241 42.8043C69.2497 43.5577 69.6812 44.5316 69.7375 45.7077H60.5623Z"/>
<path d="M81.251 57.2661V47.7474C81.251 44.0906 83.1274 42.2714 86.8612 42.3265H87.518V38.1552H86.6361C85.5291 38.1552 84.5721 38.339 83.7278 38.6881C82.8834 39.0556 82.3018 39.4048 81.9828 39.7172C81.6638 40.0479 81.4199 40.3971 81.251 40.7462V38.4492H77.292V57.2661H81.251Z"/>
</mask>
<path d="M5.07664 26.8007V7.98381L12.6007 26.8007H16.1845L23.596 7.98381V26.8007H27.6676V0.449707H22.6391L14.4583 21.049L6.03357 0.449707H0.817383V26.8007H5.07664Z" fill="#0A004C"/>
<path d="M36.967 5.28256V0.449707H32.3888V5.28256H36.967ZM36.8357 26.8007V7.98381H32.5389V26.8007H36.8357Z" fill="#0A004C"/>
<path d="M49.2311 27.2233C51.4827 27.2233 53.3402 26.6353 54.8225 25.4409C56.2861 24.2648 57.1679 22.7396 57.4869 20.8469H53.6592C52.965 22.7764 51.4827 23.7503 49.2311 23.7503C47.6925 23.7503 46.4729 23.3093 45.5722 22.4089C44.6528 21.5268 44.2025 20.314 44.2025 18.7888V18.7521H57.8059C58.031 15.573 57.3556 12.9453 55.7982 10.8688C54.2409 8.79234 52.008 7.7633 49.1185 7.7633C46.3978 7.7633 44.2025 8.66371 42.5138 10.4645C40.8064 12.2654 39.962 14.6175 39.962 17.5392C39.962 20.5529 40.8064 22.9234 42.4951 24.6323C44.165 26.3597 46.4166 27.2233 49.2311 27.2233ZM44.3151 15.2423C44.3902 14.0662 44.878 13.0923 45.7599 12.3389C46.6417 11.5855 47.7112 11.218 49.0059 11.218C50.2818 11.218 51.3326 11.5855 52.1769 12.3389C53.0025 13.0923 53.434 14.0662 53.4903 15.2423H44.3151Z" fill="#0A004C"/>
<path d="M68.1185 27.2968C69.507 27.2968 70.6891 27.0028 71.6648 26.378C72.6217 25.7716 73.3722 25.1285 73.8789 24.4302V26.8007H77.9505V7.98381H73.8789V17.4657C73.8789 19.3585 73.4098 20.8653 72.4716 22.0046C71.5334 23.1439 70.4077 23.7135 69.0755 23.7135C66.7676 23.7135 65.2665 22.2435 65.2665 19.0828V7.98381H60.8572V19.5422C60.8572 21.9495 61.5889 23.934 62.6209 25.0366C63.1275 25.5879 63.7279 26.0289 64.4222 26.378C65.7731 27.0947 66.9364 27.2968 68.1185 27.2968Z" fill="#0A004C"/>
<path d="M85.2422 26.8007L89.8768 20.5529L94.4925 26.8007H99.3335L92.2222 17.3922L99.3335 7.98381H94.4925L89.9143 14.2316L85.2422 7.98381H80.3826L87.5314 17.3922L80.3826 26.8007H85.2422Z" fill="#0A004C"/>
<path d="M15.0828 57.2661L25.1587 30.9151H20.8431L13.1314 51.6982L5.40098 30.9151H1.0479L11.1238 57.2661H15.0828Z" fill="#0A004C"/>
<path d="M34.0078 57.4499C36.6159 57.4499 38.83 56.5494 40.6125 54.7302C42.395 52.9294 43.2769 50.6324 43.2769 47.8577C43.2769 45.0462 42.395 42.7308 40.6125 40.9116C38.83 39.0924 36.6159 38.192 34.0078 38.192C31.3622 38.192 29.1669 39.0924 27.3844 40.9116C25.6019 42.7308 24.7012 45.0462 24.7012 47.8577C24.7012 50.6324 25.6019 52.9294 27.3844 54.7302C29.1669 56.5494 31.3622 57.4499 34.0078 57.4499ZM33.9703 53.7196C32.3566 53.7196 31.0995 53.1683 30.1989 52.0657C29.2795 50.9632 28.8292 49.5666 28.8292 47.8577C28.8292 46.1303 29.2982 44.7154 30.2176 43.5945C31.137 42.4919 32.3942 41.9406 34.0078 41.9406C35.6402 41.9406 36.9349 42.4919 37.8543 43.5945C38.7737 44.7154 39.2428 46.1487 39.2428 47.8944C39.2428 49.6034 38.7737 50.9999 37.8355 52.0841C36.8974 53.1683 35.6027 53.7196 33.9703 53.7196Z" fill="#0A004C"/>
<path d="M55.4846 57.2661L55.5221 53.7196H52.914C51.9946 53.7196 51.3754 53.5358 51.0565 53.1867C50.7375 52.8375 50.5686 52.1944 50.5686 51.2388V41.8304H55.4846V38.4492H50.5686V32.4219H46.5721V38.4492H43.5887V41.8304H46.5721V52.2679C46.5721 53.7196 47.0599 54.914 48.0543 55.8512C49.0488 56.7883 50.3059 57.2661 51.8445 57.2661H55.4846Z" fill="#0A004C"/>
<path d="M65.4783 57.6887C67.7299 57.6887 69.5874 57.1007 71.0697 55.9063C72.5333 54.7302 73.4151 53.205 73.7341 51.3123H69.9064C69.2122 53.2418 67.7299 54.2157 65.4783 54.2157C63.9397 54.2157 62.7201 53.7747 61.8194 52.8743C60.9 51.9922 60.4497 50.7794 60.4497 49.2542V49.2175H74.0531C74.2782 46.0384 73.6028 43.4107 72.0454 41.3342C70.4881 39.2578 68.2552 38.2287 65.3657 38.2287C62.645 38.2287 60.4497 39.1291 58.761 40.93C57.0536 42.7308 56.2092 45.0829 56.2092 48.0047C56.2092 51.0183 57.0536 53.3888 58.7423 55.0977C60.4122 56.8251 62.6638 57.6887 65.4783 57.6887ZM60.5623 45.7077C60.6374 44.5316 61.1252 43.5577 62.0071 42.8043C62.8889 42.0509 63.9585 41.6834 65.2531 41.6834C66.529 41.6834 67.5798 42.0509 68.4241 42.8043C69.2497 43.5577 69.6812 44.5316 69.7375 45.7077H60.5623Z" fill="#0A004C"/>
<path d="M81.251 57.2661V47.7474C81.251 44.0906 83.1274 42.2714 86.8612 42.3265H87.518V38.1552H86.6361C85.5291 38.1552 84.5721 38.339 83.7278 38.6881C82.8834 39.0556 82.3018 39.4048 81.9828 39.7172C81.6638 40.0479 81.4199 40.3971 81.251 40.7462V38.4492H77.292V57.2661H81.251Z" fill="#0A004C"/>
<path d="M5.07664 26.8007V7.98381L12.6007 26.8007H16.1845L23.596 7.98381V26.8007H27.6676V0.449707H22.6391L14.4583 21.049L6.03357 0.449707H0.817383V26.8007H5.07664Z" stroke="#0A004C" stroke-width="0.509302" mask="url(#path-1-outside-1_403_4596)"/>
<path d="M36.967 5.28256V0.449707H32.3888V5.28256H36.967ZM36.8357 26.8007V7.98381H32.5389V26.8007H36.8357Z" stroke="#0A004C" stroke-width="0.509302" mask="url(#path-1-outside-1_403_4596)"/>
<path d="M49.2311 27.2233C51.4827 27.2233 53.3402 26.6353 54.8225 25.4409C56.2861 24.2648 57.1679 22.7396 57.4869 20.8469H53.6592C52.965 22.7764 51.4827 23.7503 49.2311 23.7503C47.6925 23.7503 46.4729 23.3093 45.5722 22.4089C44.6528 21.5268 44.2025 20.314 44.2025 18.7888V18.7521H57.8059C58.031 15.573 57.3556 12.9453 55.7982 10.8688C54.2409 8.79234 52.008 7.7633 49.1185 7.7633C46.3978 7.7633 44.2025 8.66371 42.5138 10.4645C40.8064 12.2654 39.962 14.6175 39.962 17.5392C39.962 20.5529 40.8064 22.9234 42.4951 24.6323C44.165 26.3597 46.4166 27.2233 49.2311 27.2233ZM44.3151 15.2423C44.3902 14.0662 44.878 13.0923 45.7599 12.3389C46.6417 11.5855 47.7112 11.218 49.0059 11.218C50.2818 11.218 51.3326 11.5855 52.1769 12.3389C53.0025 13.0923 53.434 14.0662 53.4903 15.2423H44.3151Z" stroke="#0A004C" stroke-width="0.509302" mask="url(#path-1-outside-1_403_4596)"/>
<path d="M68.1185 27.2968C69.507 27.2968 70.6891 27.0028 71.6648 26.378C72.6217 25.7716 73.3722 25.1285 73.8789 24.4302V26.8007H77.9505V7.98381H73.8789V17.4657C73.8789 19.3585 73.4098 20.8653 72.4716 22.0046C71.5334 23.1439 70.4077 23.7135 69.0755 23.7135C66.7676 23.7135 65.2665 22.2435 65.2665 19.0828V7.98381H60.8572V19.5422C60.8572 21.9495 61.5889 23.934 62.6209 25.0366C63.1275 25.5879 63.7279 26.0289 64.4222 26.378C65.7731 27.0947 66.9364 27.2968 68.1185 27.2968Z" stroke="#0A004C" stroke-width="0.509302" mask="url(#path-1-outside-1_403_4596)"/>
<path d="M85.2422 26.8007L89.8768 20.5529L94.4925 26.8007H99.3335L92.2222 17.3922L99.3335 7.98381H94.4925L89.9143 14.2316L85.2422 7.98381H80.3826L87.5314 17.3922L80.3826 26.8007H85.2422Z" stroke="#0A004C" stroke-width="0.509302" mask="url(#path-1-outside-1_403_4596)"/>
<path d="M15.0828 57.2661L25.1587 30.9151H20.8431L13.1314 51.6982L5.40098 30.9151H1.0479L11.1238 57.2661H15.0828Z" stroke="#0A004C" stroke-width="0.509302" mask="url(#path-1-outside-1_403_4596)"/>
<path d="M34.0078 57.4499C36.6159 57.4499 38.83 56.5494 40.6125 54.7302C42.395 52.9294 43.2769 50.6324 43.2769 47.8577C43.2769 45.0462 42.395 42.7308 40.6125 40.9116C38.83 39.0924 36.6159 38.192 34.0078 38.192C31.3622 38.192 29.1669 39.0924 27.3844 40.9116C25.6019 42.7308 24.7012 45.0462 24.7012 47.8577C24.7012 50.6324 25.6019 52.9294 27.3844 54.7302C29.1669 56.5494 31.3622 57.4499 34.0078 57.4499ZM33.9703 53.7196C32.3566 53.7196 31.0995 53.1683 30.1989 52.0657C29.2795 50.9632 28.8292 49.5666 28.8292 47.8577C28.8292 46.1303 29.2982 44.7154 30.2176 43.5945C31.137 42.4919 32.3942 41.9406 34.0078 41.9406C35.6402 41.9406 36.9349 42.4919 37.8543 43.5945C38.7737 44.7154 39.2428 46.1487 39.2428 47.8944C39.2428 49.6034 38.7737 50.9999 37.8355 52.0841C36.8974 53.1683 35.6027 53.7196 33.9703 53.7196Z" stroke="#0A004C" stroke-width="0.509302" mask="url(#path-1-outside-1_403_4596)"/>
<path d="M55.4846 57.2661L55.5221 53.7196H52.914C51.9946 53.7196 51.3754 53.5358 51.0565 53.1867C50.7375 52.8375 50.5686 52.1944 50.5686 51.2388V41.8304H55.4846V38.4492H50.5686V32.4219H46.5721V38.4492H43.5887V41.8304H46.5721V52.2679C46.5721 53.7196 47.0599 54.914 48.0543 55.8512C49.0488 56.7883 50.3059 57.2661 51.8445 57.2661H55.4846Z" stroke="#0A004C" stroke-width="0.509302" mask="url(#path-1-outside-1_403_4596)"/>
<path d="M65.4783 57.6887C67.7299 57.6887 69.5874 57.1007 71.0697 55.9063C72.5333 54.7302 73.4151 53.205 73.7341 51.3123H69.9064C69.2122 53.2418 67.7299 54.2157 65.4783 54.2157C63.9397 54.2157 62.7201 53.7747 61.8194 52.8743C60.9 51.9922 60.4497 50.7794 60.4497 49.2542V49.2175H74.0531C74.2782 46.0384 73.6028 43.4107 72.0454 41.3342C70.4881 39.2578 68.2552 38.2287 65.3657 38.2287C62.645 38.2287 60.4497 39.1291 58.761 40.93C57.0536 42.7308 56.2092 45.0829 56.2092 48.0047C56.2092 51.0183 57.0536 53.3888 58.7423 55.0977C60.4122 56.8251 62.6638 57.6887 65.4783 57.6887ZM60.5623 45.7077C60.6374 44.5316 61.1252 43.5577 62.0071 42.8043C62.8889 42.0509 63.9585 41.6834 65.2531 41.6834C66.529 41.6834 67.5798 42.0509 68.4241 42.8043C69.2497 43.5577 69.6812 44.5316 69.7375 45.7077H60.5623Z" stroke="#0A004C" stroke-width="0.509302" mask="url(#path-1-outside-1_403_4596)"/>
<path d="M81.251 57.2661V47.7474C81.251 44.0906 83.1274 42.2714 86.8612 42.3265H87.518V38.1552H86.6361C85.5291 38.1552 84.5721 38.339 83.7278 38.6881C82.8834 39.0556 82.3018 39.4048 81.9828 39.7172C81.6638 40.0479 81.4199 40.3971 81.251 40.7462V38.4492H77.292V57.2661H81.251Z" stroke="#0A004C" stroke-width="0.509302" mask="url(#path-1-outside-1_403_4596)"/>
</svg>
