<svg width="100" height="58" viewBox="0 0 100 58" fill="none" xmlns="http://www.w3.org/2000/svg">
<mask id="path-1-outside-1_403_4488" maskUnits="userSpaceOnUse" x="-0.182617" y="-0.550171" width="101" height="59" fill="black">
<rect fill="white" x="-0.182617" y="-0.550171" width="101" height="59"/>
<path d="M5.07664 26.8008V7.98393L12.6007 26.8008H16.1845L23.596 7.98393V26.8008H27.6676V0.449829H22.6391L14.4583 21.0492L6.03357 0.449829H0.817383V26.8008H5.07664Z"/>
<path d="M36.967 5.28268V0.449829H32.3888V5.28268H36.967ZM36.8357 26.8008V7.98393H32.5389V26.8008H36.8357Z"/>
<path d="M49.2311 27.2234C51.4827 27.2234 53.3402 26.6354 54.8225 25.441C56.2861 24.2649 57.1679 22.7397 57.4869 20.847H53.6592C52.965 22.7765 51.4827 23.7504 49.2311 23.7504C47.6925 23.7504 46.4729 23.3094 45.5722 22.409C44.6528 21.5269 44.2025 20.3141 44.2025 18.7889V18.7522H57.8059C58.031 15.5732 57.3556 12.9454 55.7982 10.8689C54.2409 8.79247 52.008 7.76342 49.1185 7.76342C46.3978 7.76342 44.2025 8.66384 42.5138 10.4647C40.8064 12.2655 39.962 14.6176 39.962 17.5394C39.962 20.553 40.8064 22.9235 42.4951 24.6325C44.165 26.3598 46.4166 27.2234 49.2311 27.2234ZM44.3151 15.2424C44.3902 14.0663 44.878 13.0924 45.7599 12.339C46.6417 11.5856 47.7113 11.2181 49.0059 11.2181C50.2818 11.2181 51.3326 11.5856 52.1769 12.339C53.0025 13.0924 53.434 14.0663 53.4903 15.2424H44.3151Z"/>
<path d="M68.1185 27.2969C69.507 27.2969 70.6891 27.0029 71.6648 26.3782C72.6217 25.7718 73.3722 25.1286 73.8789 24.4303V26.8008H77.9505V7.98393H73.8789V17.4659C73.8789 19.3586 73.4098 20.8654 72.4716 22.0047C71.5334 23.144 70.4077 23.7137 69.0755 23.7137C66.7676 23.7137 65.2665 22.2436 65.2665 19.0829V7.98393H60.8572V19.5423C60.8572 21.9496 61.5889 23.9342 62.6209 25.0367C63.1275 25.588 63.7279 26.029 64.4222 26.3782C65.7731 27.0948 66.9364 27.2969 68.1185 27.2969Z"/>
<path d="M85.2422 26.8008L89.8768 20.553L94.4925 26.8008H99.3335L92.2222 17.3924L99.3335 7.98393H94.4925L89.9143 14.2317L85.2422 7.98393H80.3826L87.5314 17.3924L80.3826 26.8008H85.2422Z"/>
<path d="M15.0828 57.2662L25.1587 30.9152H20.8431L13.1314 51.6983L5.40098 30.9152H1.0479L11.1238 57.2662H15.0828Z"/>
<path d="M34.0078 57.45C36.6159 57.45 38.83 56.5496 40.6125 54.7303C42.395 52.9295 43.2769 50.6325 43.2769 47.8578C43.2769 45.0463 42.395 42.7309 40.6125 40.9117C38.83 39.0925 36.6159 38.1921 34.0078 38.1921C31.3622 38.1921 29.1669 39.0925 27.3844 40.9117C25.6019 42.7309 24.7012 45.0463 24.7012 47.8578C24.7012 50.6325 25.6019 52.9295 27.3844 54.7303C29.1669 56.5496 31.3622 57.45 34.0078 57.45ZM33.9703 53.7197C32.3566 53.7197 31.0995 53.1684 30.1989 52.0658C29.2795 50.9633 28.8292 49.5667 28.8292 47.8578C28.8292 46.1304 29.2982 44.7155 30.2176 43.5946C31.137 42.492 32.3942 41.9408 34.0078 41.9408C35.6402 41.9408 36.9349 42.492 37.8543 43.5946C38.7737 44.7155 39.2428 46.1488 39.2428 47.8945C39.2428 49.6035 38.7737 51 37.8355 52.0842C36.8974 53.1684 35.6027 53.7197 33.9703 53.7197Z"/>
<path d="M55.4846 57.2662L55.5221 53.7197H52.914C51.9946 53.7197 51.3754 53.5359 51.0565 53.1868C50.7375 52.8376 50.5686 52.1945 50.5686 51.2389V41.8305H55.4846V38.4493H50.5686V32.4221H46.5721V38.4493H43.5887V41.8305H46.5721V52.268C46.5721 53.7197 47.0599 54.9141 48.0543 55.8513C49.0488 56.7884 50.3059 57.2662 51.8445 57.2662H55.4846Z"/>
<path d="M65.4783 57.6889C67.7299 57.6889 69.5874 57.1008 71.0697 55.9064C72.5333 54.7303 73.4151 53.2052 73.7341 51.3124H69.9064C69.2122 53.2419 67.7299 54.2158 65.4783 54.2158C63.9397 54.2158 62.7201 53.7748 61.8194 52.8744C60.9 51.9923 60.4497 50.7795 60.4497 49.2543V49.2176H74.0531C74.2782 46.0386 73.6028 43.4108 72.0454 41.3344C70.4881 39.2579 68.2552 38.2288 65.3657 38.2288C62.645 38.2288 60.4497 39.1292 58.761 40.9301C57.0536 42.7309 56.2092 45.083 56.2092 48.0048C56.2092 51.0184 57.0536 53.3889 58.7423 55.0979C60.4122 56.8252 62.6638 57.6889 65.4783 57.6889ZM60.5623 45.7078C60.6374 44.5317 61.1252 43.5578 62.0071 42.8044C62.8889 42.051 63.9585 41.6835 65.2531 41.6835C66.529 41.6835 67.5798 42.051 68.4241 42.8044C69.2497 43.5578 69.6812 44.5317 69.7375 45.7078H60.5623Z"/>
<path d="M81.251 57.2662V47.7475C81.251 44.0907 83.1274 42.2715 86.8613 42.3266H87.518V38.1553H86.6361C85.5291 38.1553 84.5721 38.3391 83.7278 38.6882C82.8834 39.0557 82.3018 39.4049 81.9828 39.7173C81.6638 40.048 81.4199 40.3972 81.251 40.7463V38.4493H77.292V57.2662H81.251Z"/>
</mask>
<path d="M5.07664 26.8008V7.98393L12.6007 26.8008H16.1845L23.596 7.98393V26.8008H27.6676V0.449829H22.6391L14.4583 21.0492L6.03357 0.449829H0.817383V26.8008H5.07664Z" fill="#0A004C"/>
<path d="M36.967 5.28268V0.449829H32.3888V5.28268H36.967ZM36.8357 26.8008V7.98393H32.5389V26.8008H36.8357Z" fill="#0A004C"/>
<path d="M49.2311 27.2234C51.4827 27.2234 53.3402 26.6354 54.8225 25.441C56.2861 24.2649 57.1679 22.7397 57.4869 20.847H53.6592C52.965 22.7765 51.4827 23.7504 49.2311 23.7504C47.6925 23.7504 46.4729 23.3094 45.5722 22.409C44.6528 21.5269 44.2025 20.3141 44.2025 18.7889V18.7522H57.8059C58.031 15.5732 57.3556 12.9454 55.7982 10.8689C54.2409 8.79247 52.008 7.76342 49.1185 7.76342C46.3978 7.76342 44.2025 8.66384 42.5138 10.4647C40.8064 12.2655 39.962 14.6176 39.962 17.5394C39.962 20.553 40.8064 22.9235 42.4951 24.6325C44.165 26.3598 46.4166 27.2234 49.2311 27.2234ZM44.3151 15.2424C44.3902 14.0663 44.878 13.0924 45.7599 12.339C46.6417 11.5856 47.7113 11.2181 49.0059 11.2181C50.2818 11.2181 51.3326 11.5856 52.1769 12.339C53.0025 13.0924 53.434 14.0663 53.4903 15.2424H44.3151Z" fill="#0A004C"/>
<path d="M68.1185 27.2969C69.507 27.2969 70.6891 27.0029 71.6648 26.3782C72.6217 25.7718 73.3722 25.1286 73.8789 24.4303V26.8008H77.9505V7.98393H73.8789V17.4659C73.8789 19.3586 73.4098 20.8654 72.4716 22.0047C71.5334 23.144 70.4077 23.7137 69.0755 23.7137C66.7676 23.7137 65.2665 22.2436 65.2665 19.0829V7.98393H60.8572V19.5423C60.8572 21.9496 61.5889 23.9342 62.6209 25.0367C63.1275 25.588 63.7279 26.029 64.4222 26.3782C65.7731 27.0948 66.9364 27.2969 68.1185 27.2969Z" fill="#0A004C"/>
<path d="M85.2422 26.8008L89.8768 20.553L94.4925 26.8008H99.3335L92.2222 17.3924L99.3335 7.98393H94.4925L89.9143 14.2317L85.2422 7.98393H80.3826L87.5314 17.3924L80.3826 26.8008H85.2422Z" fill="#0A004C"/>
<path d="M15.0828 57.2662L25.1587 30.9152H20.8431L13.1314 51.6983L5.40098 30.9152H1.0479L11.1238 57.2662H15.0828Z" fill="#0A004C"/>
<path d="M34.0078 57.45C36.6159 57.45 38.83 56.5496 40.6125 54.7303C42.395 52.9295 43.2769 50.6325 43.2769 47.8578C43.2769 45.0463 42.395 42.7309 40.6125 40.9117C38.83 39.0925 36.6159 38.1921 34.0078 38.1921C31.3622 38.1921 29.1669 39.0925 27.3844 40.9117C25.6019 42.7309 24.7012 45.0463 24.7012 47.8578C24.7012 50.6325 25.6019 52.9295 27.3844 54.7303C29.1669 56.5496 31.3622 57.45 34.0078 57.45ZM33.9703 53.7197C32.3566 53.7197 31.0995 53.1684 30.1989 52.0658C29.2795 50.9633 28.8292 49.5667 28.8292 47.8578C28.8292 46.1304 29.2982 44.7155 30.2176 43.5946C31.137 42.492 32.3942 41.9408 34.0078 41.9408C35.6402 41.9408 36.9349 42.492 37.8543 43.5946C38.7737 44.7155 39.2428 46.1488 39.2428 47.8945C39.2428 49.6035 38.7737 51 37.8355 52.0842C36.8974 53.1684 35.6027 53.7197 33.9703 53.7197Z" fill="#0A004C"/>
<path d="M55.4846 57.2662L55.5221 53.7197H52.914C51.9946 53.7197 51.3754 53.5359 51.0565 53.1868C50.7375 52.8376 50.5686 52.1945 50.5686 51.2389V41.8305H55.4846V38.4493H50.5686V32.4221H46.5721V38.4493H43.5887V41.8305H46.5721V52.268C46.5721 53.7197 47.0599 54.9141 48.0543 55.8513C49.0488 56.7884 50.3059 57.2662 51.8445 57.2662H55.4846Z" fill="#0A004C"/>
<path d="M65.4783 57.6889C67.7299 57.6889 69.5874 57.1008 71.0697 55.9064C72.5333 54.7303 73.4151 53.2052 73.7341 51.3124H69.9064C69.2122 53.2419 67.7299 54.2158 65.4783 54.2158C63.9397 54.2158 62.7201 53.7748 61.8194 52.8744C60.9 51.9923 60.4497 50.7795 60.4497 49.2543V49.2176H74.0531C74.2782 46.0386 73.6028 43.4108 72.0454 41.3344C70.4881 39.2579 68.2552 38.2288 65.3657 38.2288C62.645 38.2288 60.4497 39.1292 58.761 40.9301C57.0536 42.7309 56.2092 45.083 56.2092 48.0048C56.2092 51.0184 57.0536 53.3889 58.7423 55.0979C60.4122 56.8252 62.6638 57.6889 65.4783 57.6889ZM60.5623 45.7078C60.6374 44.5317 61.1252 43.5578 62.0071 42.8044C62.8889 42.051 63.9585 41.6835 65.2531 41.6835C66.529 41.6835 67.5798 42.051 68.4241 42.8044C69.2497 43.5578 69.6812 44.5317 69.7375 45.7078H60.5623Z" fill="#0A004C"/>
<path d="M81.251 57.2662V47.7475C81.251 44.0907 83.1274 42.2715 86.8613 42.3266H87.518V38.1553H86.6361C85.5291 38.1553 84.5721 38.3391 83.7278 38.6882C82.8834 39.0557 82.3018 39.4049 81.9828 39.7173C81.6638 40.048 81.4199 40.3972 81.251 40.7463V38.4493H77.292V57.2662H81.251Z" fill="#0A004C"/>
<path d="M5.07664 26.8008V7.98393L12.6007 26.8008H16.1845L23.596 7.98393V26.8008H27.6676V0.449829H22.6391L14.4583 21.0492L6.03357 0.449829H0.817383V26.8008H5.07664Z" stroke="#0A004C" stroke-width="0.509302" mask="url(#path-1-outside-1_403_4488)"/>
<path d="M36.967 5.28268V0.449829H32.3888V5.28268H36.967ZM36.8357 26.8008V7.98393H32.5389V26.8008H36.8357Z" stroke="#0A004C" stroke-width="0.509302" mask="url(#path-1-outside-1_403_4488)"/>
<path d="M49.2311 27.2234C51.4827 27.2234 53.3402 26.6354 54.8225 25.441C56.2861 24.2649 57.1679 22.7397 57.4869 20.847H53.6592C52.965 22.7765 51.4827 23.7504 49.2311 23.7504C47.6925 23.7504 46.4729 23.3094 45.5722 22.409C44.6528 21.5269 44.2025 20.3141 44.2025 18.7889V18.7522H57.8059C58.031 15.5732 57.3556 12.9454 55.7982 10.8689C54.2409 8.79247 52.008 7.76342 49.1185 7.76342C46.3978 7.76342 44.2025 8.66384 42.5138 10.4647C40.8064 12.2655 39.962 14.6176 39.962 17.5394C39.962 20.553 40.8064 22.9235 42.4951 24.6325C44.165 26.3598 46.4166 27.2234 49.2311 27.2234ZM44.3151 15.2424C44.3902 14.0663 44.878 13.0924 45.7599 12.339C46.6417 11.5856 47.7113 11.2181 49.0059 11.2181C50.2818 11.2181 51.3326 11.5856 52.1769 12.339C53.0025 13.0924 53.434 14.0663 53.4903 15.2424H44.3151Z" stroke="#0A004C" stroke-width="0.509302" mask="url(#path-1-outside-1_403_4488)"/>
<path d="M68.1185 27.2969C69.507 27.2969 70.6891 27.0029 71.6648 26.3782C72.6217 25.7718 73.3722 25.1286 73.8789 24.4303V26.8008H77.9505V7.98393H73.8789V17.4659C73.8789 19.3586 73.4098 20.8654 72.4716 22.0047C71.5334 23.144 70.4077 23.7137 69.0755 23.7137C66.7676 23.7137 65.2665 22.2436 65.2665 19.0829V7.98393H60.8572V19.5423C60.8572 21.9496 61.5889 23.9342 62.6209 25.0367C63.1275 25.588 63.7279 26.029 64.4222 26.3782C65.7731 27.0948 66.9364 27.2969 68.1185 27.2969Z" stroke="#0A004C" stroke-width="0.509302" mask="url(#path-1-outside-1_403_4488)"/>
<path d="M85.2422 26.8008L89.8768 20.553L94.4925 26.8008H99.3335L92.2222 17.3924L99.3335 7.98393H94.4925L89.9143 14.2317L85.2422 7.98393H80.3826L87.5314 17.3924L80.3826 26.8008H85.2422Z" stroke="#0A004C" stroke-width="0.509302" mask="url(#path-1-outside-1_403_4488)"/>
<path d="M15.0828 57.2662L25.1587 30.9152H20.8431L13.1314 51.6983L5.40098 30.9152H1.0479L11.1238 57.2662H15.0828Z" stroke="#0A004C" stroke-width="0.509302" mask="url(#path-1-outside-1_403_4488)"/>
<path d="M34.0078 57.45C36.6159 57.45 38.83 56.5496 40.6125 54.7303C42.395 52.9295 43.2769 50.6325 43.2769 47.8578C43.2769 45.0463 42.395 42.7309 40.6125 40.9117C38.83 39.0925 36.6159 38.1921 34.0078 38.1921C31.3622 38.1921 29.1669 39.0925 27.3844 40.9117C25.6019 42.7309 24.7012 45.0463 24.7012 47.8578C24.7012 50.6325 25.6019 52.9295 27.3844 54.7303C29.1669 56.5496 31.3622 57.45 34.0078 57.45ZM33.9703 53.7197C32.3566 53.7197 31.0995 53.1684 30.1989 52.0658C29.2795 50.9633 28.8292 49.5667 28.8292 47.8578C28.8292 46.1304 29.2982 44.7155 30.2176 43.5946C31.137 42.492 32.3942 41.9408 34.0078 41.9408C35.6402 41.9408 36.9349 42.492 37.8543 43.5946C38.7737 44.7155 39.2428 46.1488 39.2428 47.8945C39.2428 49.6035 38.7737 51 37.8355 52.0842C36.8974 53.1684 35.6027 53.7197 33.9703 53.7197Z" stroke="#0A004C" stroke-width="0.509302" mask="url(#path-1-outside-1_403_4488)"/>
<path d="M55.4846 57.2662L55.5221 53.7197H52.914C51.9946 53.7197 51.3754 53.5359 51.0565 53.1868C50.7375 52.8376 50.5686 52.1945 50.5686 51.2389V41.8305H55.4846V38.4493H50.5686V32.4221H46.5721V38.4493H43.5887V41.8305H46.5721V52.268C46.5721 53.7197 47.0599 54.9141 48.0543 55.8513C49.0488 56.7884 50.3059 57.2662 51.8445 57.2662H55.4846Z" stroke="#0A004C" stroke-width="0.509302" mask="url(#path-1-outside-1_403_4488)"/>
<path d="M65.4783 57.6889C67.7299 57.6889 69.5874 57.1008 71.0697 55.9064C72.5333 54.7303 73.4151 53.2052 73.7341 51.3124H69.9064C69.2122 53.2419 67.7299 54.2158 65.4783 54.2158C63.9397 54.2158 62.7201 53.7748 61.8194 52.8744C60.9 51.9923 60.4497 50.7795 60.4497 49.2543V49.2176H74.0531C74.2782 46.0386 73.6028 43.4108 72.0454 41.3344C70.4881 39.2579 68.2552 38.2288 65.3657 38.2288C62.645 38.2288 60.4497 39.1292 58.761 40.9301C57.0536 42.7309 56.2092 45.083 56.2092 48.0048C56.2092 51.0184 57.0536 53.3889 58.7423 55.0979C60.4122 56.8252 62.6638 57.6889 65.4783 57.6889ZM60.5623 45.7078C60.6374 44.5317 61.1252 43.5578 62.0071 42.8044C62.8889 42.051 63.9585 41.6835 65.2531 41.6835C66.529 41.6835 67.5798 42.051 68.4241 42.8044C69.2497 43.5578 69.6812 44.5317 69.7375 45.7078H60.5623Z" stroke="#0A004C" stroke-width="0.509302" mask="url(#path-1-outside-1_403_4488)"/>
<path d="M81.251 57.2662V47.7475C81.251 44.0907 83.1274 42.2715 86.8613 42.3266H87.518V38.1553H86.6361C85.5291 38.1553 84.5721 38.3391 83.7278 38.6882C82.8834 39.0557 82.3018 39.4049 81.9828 39.7173C81.6638 40.048 81.4199 40.3972 81.251 40.7463V38.4493H77.292V57.2662H81.251Z" stroke="#0A004C" stroke-width="0.509302" mask="url(#path-1-outside-1_403_4488)"/>
</svg>
