<svg width="240" height="48" viewBox="0 0 240 48" fill="none" xmlns="http://www.w3.org/2000/svg">
<path d="M35 24.0669C35 17.9533 30.0766 13 24 13C17.9234 13 13 17.9533 13 24.0669C13 29.5906 17.0225 34.1691 22.2812 35V27.2661H19.4869V24.0669H22.2812V21.6286C22.2812 18.8552 23.9224 17.3232 26.436 17.3232C27.6398 17.3232 28.8985 17.5392 28.8985 17.5392V20.2613H27.5111C26.145 20.2613 25.7188 21.1146 25.7188 21.9897V24.0669H28.7695L28.2816 27.2661H25.7188V35C30.9775 34.1691 35 29.5906 35 24.0669Z" fill="white"/>
<path d="M80.7386 19.4859C80.7526 19.6828 80.7526 19.8797 80.7526 20.0766C80.7526 26.0812 76.2158 33 67.9239 33C65.3693 33 62.9962 32.2547 61 30.961C61.363 31.0031 61.7119 31.0172 62.0888 31.0172C64.1967 31.0172 66.1371 30.3 67.6866 29.0766C65.7043 29.0344 64.0431 27.7266 63.4708 25.9266C63.75 25.9687 64.0292 25.9969 64.3224 25.9969C64.7272 25.9969 65.132 25.9406 65.5089 25.8422C63.4429 25.4203 61.8934 23.5922 61.8934 21.3844V21.3281C62.4936 21.6656 63.1916 21.8766 63.9314 21.9047C62.717 21.089 61.9213 19.6969 61.9213 18.1218C61.9213 17.2781 62.1446 16.5047 62.5355 15.8297C64.7551 18.5859 68.0914 20.3859 71.8325 20.5828C71.7627 20.2453 71.7208 19.8938 71.7208 19.5422C71.7208 17.039 73.731 15 76.2297 15C77.5279 15 78.7005 15.5484 79.5241 16.4344C80.5431 16.2375 81.5203 15.8578 82.3858 15.3375C82.0507 16.3922 81.3388 17.2782 80.4036 17.8406C81.3109 17.7422 82.1904 17.489 83 17.1375C82.3859 18.0375 81.6181 18.839 80.7386 19.4859Z" fill="white"/>
<path d="M114.253 34H110.314V21.3147H114.253V34ZM112.281 19.5843C111.022 19.5843 110 18.5409 110 17.2813C110 16.6763 110.24 16.096 110.668 15.6682C111.096 15.2404 111.676 15 112.281 15C112.886 15 113.467 15.2404 113.894 15.6682C114.322 16.096 114.563 16.6763 114.563 17.2813C114.563 18.5409 113.54 19.5843 112.281 19.5843ZM128.996 34H125.065V27.8249C125.065 26.3532 125.035 24.4659 123.017 24.4659C120.969 24.4659 120.655 26.0648 120.655 27.7188V34H116.72V21.3147H120.498V23.0451H120.553C121.079 22.0484 122.364 20.9966 124.281 20.9966C128.267 20.9966 129 23.6219 129 27.0318V34H128.996Z" fill="white"/>
<path d="M178.54 18.5035C178.287 17.518 177.542 16.742 176.595 16.4786C174.88 16 168 16 168 16C168 16 161.12 16 159.405 16.4786C158.458 16.742 157.713 17.518 157.46 18.5035C157 20.2896 157 24.0162 157 24.0162C157 24.0162 157 27.7428 157.46 29.5289C157.713 30.5143 158.458 31.258 159.405 31.5214C161.12 32 168 32 168 32C168 32 174.88 32 176.595 31.5214C177.542 31.258 178.287 30.5143 178.54 29.5289C179 27.7428 179 24.0162 179 24.0162C179 24.0162 179 20.2896 178.54 18.5035ZM165.75 27.3996V20.6327L171.5 24.0163L165.75 27.3996Z" fill="white"/>
<path d="M216.002 18.8723C213.165 18.8723 210.876 21.1617 210.876 24C210.876 26.8383 213.165 29.1277 216.002 29.1277C218.84 29.1277 221.129 26.8383 221.129 24C221.129 21.1617 218.84 18.8723 216.002 18.8723ZM216.002 27.3337C214.168 27.3337 212.669 25.8387 212.669 24C212.669 22.1613 214.164 20.6663 216.002 20.6663C217.84 20.6663 219.335 22.1613 219.335 24C219.335 25.8387 217.836 27.3337 216.002 27.3337ZM222.534 18.6625C222.534 19.3275 221.999 19.8585 221.339 19.8585C220.674 19.8585 220.143 19.323 220.143 18.6625C220.143 18.002 220.678 17.4665 221.339 17.4665C221.999 17.4665 222.534 18.002 222.534 18.6625ZM225.93 19.8764C225.854 18.2742 225.488 16.8551 224.315 15.6858C223.146 14.5166 221.727 14.1506 220.125 14.0703C218.474 13.9766 213.526 13.9766 211.875 14.0703C210.278 14.1462 208.859 14.5121 207.685 15.6814C206.512 16.8506 206.151 18.2698 206.07 19.8719C205.977 21.5232 205.977 26.4724 206.07 28.1236C206.146 29.7258 206.512 31.1449 207.685 32.3142C208.859 33.4834 210.273 33.8494 211.875 33.9297C213.526 34.0234 218.474 34.0234 220.125 33.9297C221.727 33.8538 223.146 33.4879 224.315 32.3142C225.484 31.1449 225.849 29.7258 225.93 28.1236C226.023 26.4724 226.023 21.5276 225.93 19.8764ZM223.797 29.8953C223.449 30.7701 222.775 31.4439 221.896 31.7965C220.58 32.3186 217.457 32.1981 216.002 32.1981C214.548 32.1981 211.42 32.3142 210.108 31.7965C209.234 31.4484 208.56 30.7745 208.207 29.8953C207.685 28.5788 207.806 25.4549 207.806 24C207.806 22.5451 207.69 19.4167 208.207 18.1047C208.555 17.2299 209.229 16.5561 210.108 16.2035C211.424 15.6814 214.548 15.8019 216.002 15.8019C217.457 15.8019 220.584 15.6858 221.896 16.2035C222.771 16.5516 223.445 17.2255 223.797 18.1047C224.319 19.4212 224.199 22.5451 224.199 24C224.199 25.4549 224.319 28.5833 223.797 29.8953Z" fill="white"/>
</svg>
