<svg width="184" height="24" viewBox="0 0 184 24" fill="none" xmlns="http://www.w3.org/2000/svg">
<path d="M23 12.0669C23 5.95335 18.0766 1 12 1C5.92339 1 1 5.95335 1 12.0669C1 17.5906 5.02254 22.1691 10.2812 23V15.2661H7.48689V12.0669H10.2812V9.62864C10.2812 6.85521 11.9224 5.32325 14.436 5.32325C15.6398 5.32325 16.8985 5.53923 16.8985 5.53923V8.26134H15.5111C14.145 8.26134 13.7187 9.11456 13.7187 9.98965V12.0669H16.7695L16.2816 15.2661H13.7187V23C18.9775 22.1691 23 17.5906 23 12.0669Z" fill="#2400FD"/>
<path d="M60.7386 7.48592C60.7526 7.68279 60.7526 7.8797 60.7526 8.07656C60.7526 14.0812 56.2158 21 47.9239 21C45.3693 21 42.9962 20.2547 41 18.961C41.363 19.0031 41.7119 19.0172 42.0888 19.0172C44.1967 19.0172 46.1371 18.3 47.6866 17.0766C45.7043 17.0344 44.0431 15.7266 43.4708 13.9266C43.75 13.9687 44.0292 13.9969 44.3224 13.9969C44.7272 13.9969 45.132 13.9406 45.5089 13.8422C43.4429 13.4203 41.8934 11.5922 41.8934 9.38437V9.32814C42.4936 9.66564 43.1916 9.87657 43.9314 9.90467C42.717 9.08902 41.9213 7.69685 41.9213 6.12184C41.9213 5.27811 42.1446 4.50467 42.5355 3.82967C44.7551 6.58591 48.0914 8.38588 51.8325 8.58279C51.7627 8.24529 51.7208 7.89376 51.7208 7.54219C51.7208 5.03904 53.731 3 56.2297 3C57.5279 3 58.7005 3.54844 59.5241 4.43437C60.5431 4.23751 61.5203 3.8578 62.3858 3.3375C62.0507 4.39221 61.3388 5.27815 60.4036 5.84061C61.3109 5.74222 62.1904 5.48904 63 5.13752C62.3859 6.03748 61.6181 6.83901 60.7386 7.48592V7.48592Z" fill="#2400FD"/>
<path d="M86.7529 21.5H82.8138V8.81467H86.7529V21.5ZM84.7813 7.08428C83.5217 7.08428 82.5 6.04095 82.5 4.78132C82.5 4.17628 82.7403 3.59602 83.1682 3.16818C83.596 2.74035 84.1762 2.5 84.7813 2.5C85.3863 2.5 85.9666 2.74035 86.3944 3.16818C86.8222 3.59602 87.0625 4.17628 87.0625 4.78132C87.0625 6.04095 86.0404 7.08428 84.7813 7.08428ZM101.496 21.5H97.5651V15.3249C97.5651 13.8532 97.5354 11.9659 95.5171 11.9659C93.4691 11.9659 93.1553 13.5648 93.1553 15.2188V21.5H89.2204V8.81467H92.9983V10.5451H93.0535C93.5794 9.54839 94.864 8.49658 96.7805 8.49658C100.767 8.49658 101.5 11.1219 101.5 14.5318V21.5H101.496Z" fill="#2400FD"/>
<path d="M142.54 6.50346C142.287 5.51804 141.542 4.74196 140.595 4.47858C138.88 4 132 4 132 4C132 4 125.12 4 123.405 4.47858C122.458 4.742 121.713 5.51804 121.46 6.50346C121 8.28958 121 12.0162 121 12.0162C121 12.0162 121 15.7428 121.46 17.5289C121.713 18.5143 122.458 19.258 123.405 19.5214C125.12 20 132 20 132 20C132 20 138.88 20 140.595 19.5214C141.542 19.258 142.287 18.5143 142.54 17.5289C143 15.7428 143 12.0162 143 12.0162C143 12.0162 143 8.28958 142.54 6.50346V6.50346ZM129.75 15.3996V8.63271L135.5 12.0163L129.75 15.3996V15.3996Z" fill="#2400FD"/>
<path d="M172.002 6.87225C169.165 6.87225 166.876 9.16166 166.876 12C166.876 14.8383 169.165 17.1277 172.002 17.1277C174.84 17.1277 177.129 14.8383 177.129 12C177.129 9.16166 174.84 6.87225 172.002 6.87225ZM172.002 15.3337C170.168 15.3337 168.669 13.8387 168.669 12C168.669 10.1613 170.164 8.66629 172.002 8.66629C173.84 8.66629 175.335 10.1613 175.335 12C175.335 13.8387 173.836 15.3337 172.002 15.3337V15.3337ZM178.534 6.6625C178.534 7.32746 177.999 7.85853 177.339 7.85853C176.674 7.85853 176.143 7.32299 176.143 6.6625C176.143 6.00201 176.678 5.46647 177.339 5.46647C177.999 5.46647 178.534 6.00201 178.534 6.6625ZM181.93 7.87638C181.854 6.27424 181.488 4.85507 180.315 3.68582C179.146 2.51657 177.727 2.15062 176.125 2.07029C174.474 1.97657 169.526 1.97657 167.875 2.07029C166.278 2.14616 164.859 2.51211 163.685 3.68136C162.512 4.85061 162.151 6.26978 162.07 7.87192C161.977 9.52315 161.977 14.4724 162.07 16.1236C162.146 17.7258 162.512 19.1449 163.685 20.3142C164.859 21.4834 166.273 21.8494 167.875 21.9297C169.526 22.0234 174.474 22.0234 176.125 21.9297C177.727 21.8538 179.146 21.4879 180.315 20.3142C181.484 19.1449 181.849 17.7258 181.93 16.1236C182.023 14.4724 182.023 9.52761 181.93 7.87638V7.87638ZM179.797 17.8953C179.449 18.7701 178.775 19.4439 177.896 19.7965C176.58 20.3186 173.457 20.1981 172.002 20.1981C170.548 20.1981 167.42 20.3142 166.108 19.7965C165.234 19.4484 164.56 18.7745 164.207 17.8953C163.685 16.5788 163.806 13.4549 163.806 12C163.806 10.5451 163.69 7.41671 164.207 6.10465C164.555 5.22995 165.229 4.55606 166.108 4.2035C167.424 3.68136 170.548 3.80185 172.002 3.80185C173.457 3.80185 176.584 3.68582 177.896 4.2035C178.771 4.5516 179.445 5.22548 179.797 6.10465C180.319 7.42118 180.199 10.5451 180.199 12C180.199 13.4549 180.319 16.5833 179.797 17.8953Z" fill="#2400FD"/>
</svg>
