<svg width="1752" height="1457" viewBox="0 0 1752 1457" fill="none" xmlns="http://www.w3.org/2000/svg">
<g opacity="0.24">
<mask id="path-1-inside-1_101_2932" fill="white">
<path fill-rule="evenodd" clip-rule="evenodd" d="M1752 0.00010312V397.854L693.697 1456.16L-6.07735e-06 762.459L-2.3981e-05 364.605L693.697 1058.3L1752 0.00010312Z"/>
</mask>
<path d="M1752 0.00010312H1759V-16.8994L1747.05 -4.94964L1752 0.00010312ZM1752 397.854L1756.95 402.804L1759 400.754V397.854H1752ZM693.697 1456.16L688.748 1461.11L693.697 1466.06L698.647 1461.11L693.697 1456.16ZM-6.07735e-06 762.459H-7.00001L-7.00001 765.358L-4.94976 767.408L-6.07735e-06 762.459ZM-2.3981e-05 364.605L4.94973 359.655L-7.00002 347.705L-7.00002 364.605H-2.3981e-05ZM693.697 1058.3L688.748 1063.25L693.697 1068.2L698.647 1063.25L693.697 1058.3ZM1745 0.00010312V397.854H1759V0.00010312H1745ZM1747.05 392.904L688.748 1451.21L698.647 1461.11L1756.95 402.804L1747.05 392.904ZM698.647 1451.21L4.94974 757.509L-4.94976 767.408L688.748 1461.11L698.647 1451.21ZM6.99999 762.459L6.99998 364.605H-7.00002L-7.00001 762.459H6.99999ZM-4.94977 369.554L688.748 1063.25L698.647 1053.35L4.94973 359.655L-4.94977 369.554ZM698.647 1063.25L1756.95 4.94985L1747.05 -4.94964L688.748 1053.35L698.647 1063.25Z" fill="#2400FD" mask="url(#path-1-inside-1_101_2932)"/>
</g>
</svg>
