<svg width="1544" height="1284" viewBox="0 0 1544 1284" fill="none" xmlns="http://www.w3.org/2000/svg">
<mask id="path-1-inside-1_403_22874" fill="white">
<path fill-rule="evenodd" clip-rule="evenodd" d="M1544 0V350.62L611.341 1283.28L1.79037e-05 671.938L0 321.318L611.341 932.659L1544 0Z"/>
</mask>
<path d="M1544 0H1549V-12.0711L1540.46 -3.53553L1544 0ZM1544 350.62L1547.54 354.156L1549 352.691V350.62H1544ZM611.341 1283.28L607.805 1286.82L611.341 1290.35L614.876 1286.82L611.341 1283.28ZM1.79037e-05 671.938L-4.99998 671.938L-4.99998 674.009L-3.53552 675.473L1.79037e-05 671.938ZM0 321.318L3.53554 317.782L-5 309.247L-5 321.318L0 321.318ZM611.341 932.659L607.805 936.195L611.341 939.73L614.876 936.195L611.341 932.659ZM1539 0V350.62H1549V0H1539ZM1540.46 347.085L607.805 1279.74L614.876 1286.82L1547.54 354.156L1540.46 347.085ZM614.876 1279.74L3.53555 668.402L-3.53552 675.473L607.805 1286.82L614.876 1279.74ZM5.00002 671.938L5 321.318L-5 321.318L-4.99998 671.938L5.00002 671.938ZM-3.53554 324.853L607.805 936.195L614.876 929.124L3.53554 317.782L-3.53554 324.853ZM614.876 936.195L1547.54 3.53553L1540.46 -3.53553L607.805 929.124L614.876 936.195Z" fill="#2400FD" mask="url(#path-1-inside-1_403_22874)"/>
</svg>
