<svg width="1752" height="1457" viewBox="0 0 1752 1457" fill="none" xmlns="http://www.w3.org/2000/svg">
<g opacity="0.24">
<mask id="path-1-inside-1_403_23041" fill="white">
<path fill-rule="evenodd" clip-rule="evenodd" d="M1752 0V397.854L693.697 1456.16L1.79037e-05 762.458L0 364.604L693.698 1058.3L1752 0Z"/>
</mask>
<path d="M1752 0H1759V-16.8995L1747.05 -4.94975L1752 0ZM1752 397.854L1756.95 402.804L1759 400.753V397.854H1752ZM693.697 1456.16L688.748 1461.11L693.697 1466.06L698.647 1461.11L693.697 1456.16ZM1.79037e-05 762.458L-6.99998 762.458L-6.99998 765.358L-4.94973 767.408L1.79037e-05 762.458ZM0 364.604L4.94975 359.655L-7 347.705L-7 364.604L0 364.604ZM693.698 1058.3L688.748 1063.25L693.698 1068.2L698.647 1063.25L693.698 1058.3ZM1745 0V397.854H1759V0H1745ZM1747.05 392.904L688.748 1451.21L698.647 1461.11L1756.95 402.804L1747.05 392.904ZM698.647 1451.21L4.94977 757.509L-4.94973 767.408L688.748 1461.11L698.647 1451.21ZM7.00002 762.458L7 364.604L-7 364.604L-6.99998 762.458L7.00002 762.458ZM-4.94975 369.554L688.748 1063.25L698.647 1053.35L4.94975 359.655L-4.94975 369.554ZM698.647 1063.25L1756.95 4.94975L1747.05 -4.94975L688.748 1053.35L698.647 1063.25Z" fill="#2400FD" mask="url(#path-1-inside-1_403_23041)"/>
</g>
</svg>
