<svg width="27" height="11" viewBox="0 0 27 11" fill="none" xmlns="http://www.w3.org/2000/svg">
<path d="M3.66406 0.643555C1.52441 0.643555 0 2.10645 0 4.10937V4.12305C0 5.99609 1.32617 7.37695 3.21973 7.37695C4.57324 7.37695 5.43457 6.68652 5.79687 5.90723H5.93359C5.93359 5.98242 5.92676 6.05762 5.92676 6.13281C5.85156 8.01953 5.18848 9.55078 3.62305 9.55078C2.75488 9.55078 2.14648 9.09961 1.88672 8.40918L1.86621 8.34082H0.129883L0.143555 8.41602C0.458008 9.92676 1.81152 11 3.62305 11C6.10449 11 7.60156 9.03125 7.60156 5.70898V5.69531C7.60156 2.14062 5.76953 0.643555 3.66406 0.643555ZM3.65723 6.02344C2.53613 6.02344 1.72266 5.20312 1.72266 4.06152V4.04785C1.72266 2.94727 2.59082 2.0791 3.67773 2.0791C4.77148 2.0791 5.62598 2.96094 5.62598 4.08887V4.10254C5.62598 5.2168 4.77148 6.02344 3.65723 6.02344Z" fill="white"/>
<path d="M10.4251 4.3623C11.054 4.3623 11.512 3.88379 11.512 3.28223C11.512 2.67383 11.054 2.20215 10.4251 2.20215C9.80301 2.20215 9.33816 2.67383 9.33816 3.28223C9.33816 3.88379 9.80301 4.3623 10.4251 4.3623ZM10.4251 9.43457C11.054 9.43457 11.512 8.96289 11.512 8.35449C11.512 7.74609 11.054 7.27441 10.4251 7.27441C9.80301 7.27441 9.33816 7.74609 9.33816 8.35449C9.33816 8.96289 9.80301 9.43457 10.4251 9.43457Z" fill="white"/>
<path d="M18.0337 10.7539H19.7222V8.86035H21.0484V7.4043H19.7222V0.889648H17.2271C15.8873 2.92676 14.4859 5.19629 13.2076 7.41797V8.86035H18.0337V10.7539ZM14.8482 7.44531V7.34277C15.8052 5.66797 16.9468 3.84277 17.9586 2.29785H18.0611V7.44531H14.8482Z" fill="white"/>
<path d="M24.8563 10.7539H26.62V0.889648H24.8631L22.286 2.70117V4.3623L24.7401 2.62598H24.8563V10.7539Z" fill="white"/>
</svg>
