<svg width="25" height="12" viewBox="0 0 25 12" fill="none" xmlns="http://www.w3.org/2000/svg">
<path opacity="0.4" fill-rule="evenodd" clip-rule="evenodd" d="M3.33854 1.33331H20.0052C20.9257 1.33331 21.6719 2.0795 21.6719 2.99998V8.99998C21.6719 9.92045 20.9257 10.6666 20.0052 10.6666H3.33854C2.41807 10.6666 1.67188 9.92045 1.67188 8.99998V2.99998C1.67188 2.0795 2.41807 1.33331 3.33854 1.33331ZM0.671875 2.99998C0.671875 1.52722 1.86578 0.333313 3.33854 0.333313H20.0052C21.478 0.333313 22.6719 1.52722 22.6719 2.99998V8.99998C22.6719 10.4727 21.478 11.6666 20.0052 11.6666H3.33854C1.86578 11.6666 0.671875 10.4727 0.671875 8.99998V2.99998ZM24.9998 6.00003C24.9998 6.87316 24.4765 7.66125 23.6718 8.00003V4.00003C24.4765 4.33881 24.9998 5.1269 24.9998 6.00003Z" fill="white"/>
</svg>
