<svg width="25" height="12" viewBox="0 0 25 12" fill="none" xmlns="http://www.w3.org/2000/svg">
<path opacity="0.4" fill-rule="evenodd" clip-rule="evenodd" d="M3.33854 1.33334H20.0052C20.9257 1.33334 21.6719 2.07953 21.6719 3.00001V9.00001C21.6719 9.92049 20.9257 10.6667 20.0052 10.6667H3.33854C2.41807 10.6667 1.67188 9.92049 1.67188 9.00001V3.00001C1.67188 2.07953 2.41807 1.33334 3.33854 1.33334ZM0.671875 3.00001C0.671875 1.52725 1.86578 0.333344 3.33854 0.333344H20.0052C21.478 0.333344 22.6719 1.52725 22.6719 3.00001V9.00001C22.6719 10.4728 21.478 11.6667 20.0052 11.6667H3.33854C1.86578 11.6667 0.671875 10.4728 0.671875 9.00001V3.00001ZM24.9998 6.00006C24.9998 6.87319 24.4765 7.66128 23.6718 8.00006V4.00006C24.4765 4.33884 24.9998 5.12693 24.9998 6.00006Z" fill="white"/>
</svg>
