<svg width="16" height="12" viewBox="0 0 16 12" fill="none" xmlns="http://www.w3.org/2000/svg">
<path fill-rule="evenodd" clip-rule="evenodd" d="M8.03602 2.7946C10.2519 2.7947 12.3831 3.64613 13.989 5.17293C14.11 5.29081 14.3032 5.28932 14.4224 5.1696L15.5784 4.00293C15.6387 3.94221 15.6723 3.85996 15.6718 3.77438C15.6713 3.6888 15.6367 3.60695 15.5757 3.54693C11.3606 -0.492614 4.71078 -0.492614 0.495687 3.54693C0.434628 3.6069 0.399984 3.68873 0.399421 3.77431C0.398858 3.85989 0.432422 3.94217 0.492687 4.00293L1.64902 5.1696C1.76805 5.2895 1.96149 5.29099 2.08235 5.17293C3.68851 3.64603 5.81991 2.79459 8.03602 2.7946ZM8.03605 6.59016C9.25354 6.59009 10.4276 7.04262 11.33 7.85983C11.4521 7.97581 11.6444 7.97329 11.7634 7.85416L12.9181 6.68749C12.9789 6.6263 13.0126 6.54328 13.0117 6.45702C13.0108 6.37075 12.9754 6.28844 12.9134 6.22849C10.1652 3.67211 5.90925 3.67211 3.16105 6.22849C3.09897 6.28844 3.06356 6.37079 3.06274 6.45709C3.06193 6.54338 3.09578 6.62639 3.15672 6.68749L4.31105 7.85416C4.43004 7.97329 4.62232 7.97581 4.74438 7.85983C5.64626 7.04316 6.81937 6.59067 8.03605 6.59016ZM10.3492 9.14396C10.3509 9.23046 10.3169 9.31387 10.2552 9.37447L8.25782 11.3901C8.19927 11.4494 8.11945 11.4827 8.03616 11.4827C7.95287 11.4827 7.87304 11.4494 7.81449 11.3901L5.81682 9.37447C5.75511 9.31382 5.72116 9.23039 5.72299 9.14388C5.72482 9.05738 5.76227 8.97546 5.82649 8.91747C7.10206 7.83859 8.97025 7.83859 10.2458 8.91747C10.31 8.97551 10.3474 9.05745 10.3492 9.14396Z" fill="white"/>
</svg>
