<?xml version="1.0" encoding="utf-8"?>
<!-- Generator: Adobe Illustrator 22.0.0, SVG Export Plug-In . SVG Version: 6.00 Build 0)  -->
<svg version="1.1" id="Calque_1" xmlns="http://www.w3.org/2000/svg" xmlns:xlink="http://www.w3.org/1999/xlink" x="0px" y="0px"
	 viewBox="0 0 120.6 156.8" style="enable-background:new 0 0 120.6 156.8;" xml:space="preserve">
<style type="text/css">
	.st0{fill:#010043;}
	.st1{fill:url(#SVGID_1_);}
	.st2{fill:#FFFFFF;}
	.st3{fill:#FFDD00;}
</style>
<g>
	<rect x="7.1" y="117.7" class="st0" width="106.1" height="12.5"/>
	<g>
		<g>
			<path class="st0" d="M18.7,145c0,1.1-0.2,2-0.6,2.8c-0.4,0.8-0.9,1.4-1.6,2c-0.7,0.5-1.4,0.9-2.3,1.1c-0.8,0.2-1.7,0.4-2.5,0.4
				H7.1v-12.5h4.5c0.9,0,1.8,0.1,2.6,0.3c0.9,0.2,1.6,0.5,2.3,1c0.7,0.5,1.2,1.1,1.6,1.9C18.5,142.8,18.7,143.8,18.7,145z M15.6,145
				c0-0.7-0.1-1.3-0.3-1.8c-0.2-0.5-0.5-0.8-0.9-1.1c-0.4-0.3-0.8-0.5-1.3-0.6c-0.5-0.1-1-0.2-1.5-0.2H10v7.3h1.4
				c0.5,0,1.1-0.1,1.6-0.2c0.5-0.1,0.9-0.3,1.3-0.6s0.7-0.7,0.9-1.1C15.5,146.3,15.6,145.7,15.6,145z"/>
			<path class="st0" d="M26,151.3v-12.5h8.4v2.5h-5.5v2.4h5.2v2.4h-5.2v2.6h5.8v2.6H26z"/>
			<path class="st0" d="M51,151.1c-0.8,0.4-1.7,0.6-2.8,0.6c-1,0-1.9-0.2-2.7-0.5c-0.8-0.3-1.5-0.8-2.1-1.4
				c-0.6-0.6-1.1-1.3-1.4-2.1c-0.3-0.8-0.5-1.7-0.5-2.7c0-1,0.2-1.9,0.5-2.7c0.3-0.8,0.8-1.5,1.4-2.1c0.6-0.6,1.3-1,2.2-1.3
				c0.8-0.3,1.7-0.5,2.7-0.5c0.9,0,1.8,0.2,2.6,0.5c0.9,0.3,1.5,0.8,2.1,1.4l-2,2c-0.3-0.4-0.7-0.7-1.1-0.9
				c-0.5-0.2-0.9-0.3-1.4-0.3c-0.5,0-1,0.1-1.5,0.3c-0.4,0.2-0.8,0.5-1.1,0.8c-0.3,0.3-0.6,0.7-0.7,1.2c-0.2,0.5-0.3,1-0.3,1.5
				c0,0.6,0.1,1.1,0.3,1.6c0.2,0.5,0.4,0.9,0.7,1.2c0.3,0.3,0.7,0.6,1.1,0.8c0.4,0.2,0.9,0.3,1.4,0.3c0.6,0,1.1-0.1,1.6-0.4
				c0.4-0.2,0.8-0.5,1.1-0.9l2.1,2C52.5,150.2,51.8,150.7,51,151.1z"/>
			<path class="st0" d="M69.8,148.6c-0.3,0.6-0.6,1.1-1.1,1.6c-0.5,0.4-1,0.8-1.7,1c-0.7,0.2-1.4,0.4-2.2,0.4
				c-0.8,0-1.6-0.1-2.2-0.4c-0.7-0.2-1.2-0.6-1.7-1c-0.5-0.4-0.8-1-1.1-1.6c-0.2-0.6-0.4-1.3-0.4-2.1v-7.8h3v7.5c0,0.3,0,0.7,0.1,1
				c0.1,0.3,0.2,0.6,0.4,0.8c0.2,0.2,0.4,0.4,0.7,0.6c0.3,0.1,0.7,0.2,1.1,0.2c0.4,0,0.8-0.1,1.1-0.2c0.3-0.1,0.5-0.3,0.7-0.6
				c0.2-0.2,0.3-0.5,0.4-0.8c0.1-0.3,0.1-0.6,0.1-1v-7.5h3v7.8C70.2,147.3,70.1,148,69.8,148.6z"/>
			<path class="st0" d="M84.6,142c-0.3-0.3-0.6-0.6-1-0.8c-0.4-0.2-0.8-0.3-1.2-0.3c-0.2,0-0.4,0-0.6,0.1c-0.2,0-0.4,0.1-0.6,0.2
				c-0.2,0.1-0.3,0.2-0.4,0.4c-0.1,0.2-0.2,0.4-0.2,0.6c0,0.2,0,0.4,0.1,0.5c0.1,0.1,0.2,0.3,0.4,0.4c0.2,0.1,0.4,0.2,0.6,0.3
				c0.2,0.1,0.5,0.2,0.8,0.3c0.4,0.1,0.9,0.3,1.3,0.5c0.5,0.2,0.9,0.4,1.3,0.7c0.4,0.3,0.7,0.6,0.9,1c0.2,0.4,0.4,0.9,0.4,1.6
				c0,0.7-0.1,1.3-0.4,1.9c-0.3,0.5-0.6,1-1.1,1.3c-0.4,0.3-1,0.6-1.5,0.8c-0.6,0.2-1.2,0.2-1.8,0.2c-0.9,0-1.8-0.2-2.6-0.5
				c-0.8-0.3-1.5-0.8-2.1-1.3l2-2c0.3,0.4,0.7,0.7,1.2,0.9c0.5,0.3,1,0.4,1.5,0.4c0.2,0,0.4,0,0.7-0.1c0.2,0,0.4-0.1,0.6-0.2
				c0.2-0.1,0.3-0.2,0.4-0.4c0.1-0.2,0.1-0.4,0.1-0.6c0-0.2-0.1-0.4-0.2-0.6c-0.1-0.2-0.3-0.3-0.5-0.4c-0.2-0.1-0.5-0.3-0.8-0.4
				c-0.3-0.1-0.7-0.2-1.1-0.4c-0.4-0.1-0.8-0.3-1.2-0.5c-0.4-0.2-0.7-0.4-1-0.7c-0.3-0.3-0.5-0.6-0.7-1c-0.2-0.4-0.3-0.9-0.3-1.4
				c0-0.7,0.1-1.3,0.4-1.8s0.7-0.9,1.1-1.2c0.5-0.3,1-0.5,1.6-0.7s1.2-0.2,1.7-0.2c0.7,0,1.4,0.1,2.2,0.4c0.7,0.3,1.4,0.6,1.9,1.1
				L84.6,142z"/>
			<path class="st0" d="M93.7,151.3v-12.5h3v12.5H93.7z"/>
			<path class="st0" d="M111.2,142c-0.3-0.3-0.6-0.6-1-0.8c-0.4-0.2-0.8-0.3-1.2-0.3c-0.2,0-0.4,0-0.6,0.1c-0.2,0-0.4,0.1-0.6,0.2
				c-0.2,0.1-0.3,0.2-0.4,0.4c-0.1,0.2-0.2,0.4-0.2,0.6c0,0.2,0,0.4,0.1,0.5c0.1,0.1,0.2,0.3,0.4,0.4c0.2,0.1,0.4,0.2,0.6,0.3
				c0.2,0.1,0.5,0.2,0.8,0.3c0.4,0.1,0.9,0.3,1.3,0.5c0.5,0.2,0.9,0.4,1.3,0.7c0.4,0.3,0.7,0.6,0.9,1c0.2,0.4,0.4,0.9,0.4,1.6
				c0,0.7-0.1,1.3-0.4,1.9c-0.3,0.5-0.6,1-1.1,1.3c-0.4,0.3-1,0.6-1.5,0.8s-1.2,0.2-1.8,0.2c-0.9,0-1.8-0.2-2.6-0.5
				c-0.8-0.3-1.5-0.8-2.1-1.3l2-2c0.3,0.4,0.7,0.7,1.2,0.9c0.5,0.3,1,0.4,1.5,0.4c0.2,0,0.4,0,0.7-0.1c0.2,0,0.4-0.1,0.6-0.2
				c0.2-0.1,0.3-0.2,0.4-0.4s0.1-0.4,0.1-0.6c0-0.2-0.1-0.4-0.2-0.6c-0.1-0.2-0.3-0.3-0.5-0.4c-0.2-0.1-0.5-0.3-0.8-0.4
				c-0.3-0.1-0.7-0.2-1.1-0.4c-0.4-0.1-0.8-0.3-1.2-0.5c-0.4-0.2-0.7-0.4-1-0.7c-0.3-0.3-0.5-0.6-0.7-1s-0.3-0.9-0.3-1.4
				c0-0.7,0.1-1.3,0.4-1.8c0.3-0.5,0.7-0.9,1.1-1.2c0.5-0.3,1-0.5,1.6-0.7c0.6-0.1,1.2-0.2,1.7-0.2c0.7,0,1.4,0.1,2.2,0.4
				c0.7,0.3,1.4,0.6,1.9,1.1L111.2,142z"/>
		</g>
	</g>
	<linearGradient id="SVGID_1_" gradientUnits="userSpaceOnUse" x1="60.2782" y1="109.167" x2="60.2782" y2="3.1026">
		<stop  offset="0" style="stop-color:#010043"/>
		<stop  offset="0.5538" style="stop-color:#01006F"/>
		<stop  offset="1" style="stop-color:#010043"/>
	</linearGradient>
	<circle class="st1" cx="60.3" cy="56.1" r="53"/>
	<circle class="st2" cx="60.3" cy="56.1" r="15.2"/>
	<path class="st3" d="M45.9,56.1c0-3.2,1.5-3.7,3-8.2c1.5-4.5,7-6,11.2-6c4.1,0,5.9,2.2,9.7,3.7c3.7,1.5,4.5,6.7,4.5,10.4
		c0,3.6-2.2,6-3,8.2c-1.3,3.8-7,6.3-11.2,6c-4.2-0.4-4.3-3.5-10.5-6C46.5,63.1,45.9,59.1,45.9,56.1z"/>
</g>
</svg>
